<svg width="45" height="45" viewBox="0 0 45 45" fill="none" xmlns="http://www.w3.org/2000/svg">
<g clip-path="url(#clip0_2509_6480)">
<path d="M21.0498 29.1797C22.5293 29.7656 23.877 30.542 25.0928 31.5088C26.3086 32.4756 27.3486 33.5962 28.2129 34.8706C29.0771 36.145 29.7437 37.5146 30.2124 38.9795C30.6812 40.4443 30.9229 41.9824 30.9375 43.5938V45H28.125V43.5938C28.125 41.8506 27.7954 40.21 27.1362 38.6719C26.4771 37.1338 25.5688 35.7935 24.4116 34.6509C23.2544 33.5083 21.9141 32.6074 20.3906 31.9482C18.8672 31.2891 17.2266 30.9521 15.4688 30.9375C13.7256 30.9375 12.085 31.2671 10.5469 31.9263C9.00879 32.5854 7.66846 33.4937 6.52588 34.6509C5.3833 35.8081 4.48242 37.1484 3.82324 38.6719C3.16406 40.1953 2.82715 41.8359 2.8125 43.5938V45H0V43.5938C0 41.9971 0.234375 40.459 0.703125 38.9795C1.17188 37.5 1.8457 36.1304 2.72461 34.8706C3.60352 33.6108 4.64355 32.4976 5.84473 31.5308C7.0459 30.564 8.39355 29.7803 9.8877 29.1797C9.22852 28.7256 8.63525 28.1982 8.10791 27.5977C7.58057 26.9971 7.13379 26.3525 6.76758 25.6641C6.40137 24.9756 6.12305 24.2432 5.93262 23.4668C5.74219 22.6904 5.63965 21.8994 5.625 21.0938C5.625 19.7314 5.88135 18.457 6.39404 17.2705C6.90674 16.084 7.60986 15.0439 8.50342 14.1504C9.39697 13.2568 10.437 12.5537 11.6235 12.041C12.8101 11.5283 14.0918 11.2646 15.4688 11.25C16.8311 11.25 18.1055 11.5063 19.292 12.019C20.4785 12.5317 21.5186 13.2349 22.4121 14.1284C23.3057 15.022 24.0088 16.062 24.5215 17.2485C25.0342 18.4351 25.2979 19.7168 25.3125 21.0938C25.3125 21.8994 25.2173 22.6831 25.0269 23.4448C24.8364 24.2065 24.5508 24.939 24.1699 25.6421C23.7891 26.3452 23.3423 26.9971 22.8296 27.5977C22.3169 28.1982 21.7236 28.7256 21.0498 29.1797ZM15.4688 28.125C16.4355 28.125 17.3438 27.9419 18.1934 27.5757C19.043 27.2095 19.7827 26.7114 20.4126 26.0815C21.0425 25.4517 21.5479 24.7046 21.9287 23.8403C22.3096 22.9761 22.5 22.0605 22.5 21.0938C22.5 20.127 22.3169 19.2188 21.9507 18.3691C21.5845 17.5195 21.0791 16.7798 20.4346 16.1499C19.79 15.52 19.043 15.0146 18.1934 14.6338C17.3438 14.2529 16.4355 14.0625 15.4688 14.0625C14.502 14.0625 13.5938 14.2456 12.7441 14.6118C11.8945 14.978 11.1475 15.4834 10.5029 16.1279C9.8584 16.7725 9.35303 17.5195 8.98682 18.3691C8.62061 19.2188 8.4375 20.127 8.4375 21.0938C8.4375 22.0605 8.62061 22.9688 8.98682 23.8184C9.35303 24.668 9.85107 25.415 10.481 26.0596C11.1108 26.7041 11.8579 27.2095 12.7222 27.5757C13.5864 27.9419 14.502 28.125 15.4688 28.125ZM45 0V22.5H39.375L30.9375 30.9375V22.5H28.125V19.6875H33.75V24.1479L38.2104 19.6875H42.1875V2.8125H14.0625V7.86621C13.5938 7.9248 13.125 7.99805 12.6562 8.08594C12.1875 8.17383 11.7188 8.30566 11.25 8.48145V0H45Z" fill="#699BF7"/>
</g>
<defs>
<clipPath id="clip0_2509_6480">
<rect width="45" height="45" fill="white"/>
</clipPath>
</defs>
</svg>
