<?xml version="1.0" encoding="UTF-8"?>
<svg version="1.1" xmlns="http://www.w3.org/2000/svg" width="512" height="512">
<path d="M0 0 C8.18036487 4.47066452 15.10104305 11.26785271 18.29824317 20.07462907 C19.48544725 24.46286531 19.39609715 28.86241859 19.40592957 33.38302612 C19.42670806 35.00500874 19.42670806 35.00500874 19.44790632 36.65975869 C19.49021314 40.27301716 19.51124348 43.88606976 19.53198242 47.49951172 C19.55734087 50.09574914 19.58377092 52.69197628 19.6111908 55.28819275 C19.68930989 63.07735087 19.73796072 70.86658042 19.78070328 78.6560027 C19.79294732 80.86332402 19.80587486 83.07064032 19.81901383 85.27795649 C19.90055251 99.03612727 19.97122252 112.7943178 20.01288891 126.55267143 C20.02269521 129.73596109 20.03262182 132.91925033 20.04272461 136.10253906 C20.04522507 136.89357187 20.04772553 137.68460468 20.05030177 138.49960817 C20.09241813 151.25145498 20.19972337 164.00187265 20.33435126 176.75304376 C20.47199468 189.90002849 20.54734631 203.04628828 20.56492692 216.19398892 C20.57630558 223.55349244 20.61369125 230.91071139 20.72087669 238.26949692 C21.53404706 296.09177675 21.53404706 296.09177675 4.88620949 322.27252579 C2.3861368 326.33299023 0.40360974 330.56613446 -1.55248737 334.90992546 C-3.62980965 338.38710625 -6.23786612 340.79413198 -10.08984375 342.15234375 C-14.94347014 342.71810388 -17.88221039 342.28769746 -22.0625 339.4375 C-25.55668537 335.57522756 -27.6631424 331.50743282 -29.8125 326.828125 C-30.15249023 326.10187927 -30.49248047 325.37563354 -30.84277344 324.62738037 C-31.92240031 322.31700116 -32.99247777 320.00234052 -34.0625 317.6875 C-34.78064492 316.14815507 -35.4993896 314.60908979 -36.21875 313.0703125 C-39.83304521 305.32210491 -39.83304521 305.32210491 -41.0605948 302.59843343 C-41.70866414 301.20066177 -42.38756308 299.81660375 -43.1021688 298.4516502 C-46.12570865 292.40429478 -46.62398049 287.33267398 -46.54351807 280.63645935 C-46.54694214 279.58590363 -46.55036621 278.5353479 -46.55389404 277.45295715 C-46.56048703 273.94028121 -46.53846747 270.4283771 -46.51660156 266.91577148 C-46.51537564 264.35152492 -46.51591119 261.787277 -46.51806259 259.22303104 C-46.51887304 253.06036675 -46.50177283 246.89798528 -46.47605728 240.73538205 C-46.44718668 233.60226841 -46.44407444 226.46923588 -46.44091797 219.33605957 C-46.41994138 200.51566939 -46.36409664 181.69533114 -46.3125 162.875 C-46.23 120.820625 -46.1475 78.76625 -46.0625 35.4375 C-136.4825 35.4375 -226.9025 35.4375 -320.0625 35.4375 C-320.0625 50.9475 -320.0625 66.4575 -320.0625 82.4375 C-323.48956334 92.71869002 -323.48956334 92.71869002 -327.125 96.75 C-327.81722656 97.55050781 -328.50945312 98.35101563 -329.22265625 99.17578125 C-336.57810152 105.03383189 -344.39505477 106.0172204 -353.5390625 105.828125 C-355.11595352 105.81963531 -355.11595352 105.81963531 -356.72470093 105.81097412 C-360.046119 105.78878043 -363.36641409 105.73861589 -366.6875 105.6875 C-368.95441138 105.66741303 -371.22133986 105.64916614 -373.48828125 105.6328125 C-379.01339685 105.58897179 -384.53786816 105.52223273 -390.0625 105.4375 C-390.05881283 106.09256877 -390.05512566 106.74763754 -390.05132675 107.42255688 C-389.96298003 123.36361226 -389.89679262 139.30458246 -389.85525131 155.24582195 C-389.83462814 162.954905 -389.80651241 170.6638246 -389.76074219 178.37280273 C-389.72086669 185.09214936 -389.6950654 191.81137761 -389.68614602 198.53083926 C-389.6809324 202.08863244 -389.66868419 205.64608698 -389.63957977 209.20377159 C-389.60734888 213.17586986 -389.60654106 217.14763717 -389.60839844 221.11987305 C-389.58682678 222.88825027 -389.58682678 222.88825027 -389.56481934 224.69235229 C-389.60522657 232.65735079 -389.60522657 232.65735079 -391.94244385 236.64485168 C-394.48266536 238.79277773 -395.72733762 239.4375 -399.0625 239.4375 C-404.70105422 237.16039157 -404.70105422 237.16039157 -406.0625 234.4375 C-406.17086377 232.60598215 -406.21516574 230.77054452 -406.2298584 228.93588257 C-406.24134918 227.76671295 -406.25283997 226.59754333 -406.26467896 225.39294434 C-406.27208099 224.10359985 -406.27948303 222.81425537 -406.28710938 221.48583984 C-406.29828305 220.11922943 -406.30979632 218.75262175 -406.32162476 217.38601685 C-406.35821191 212.89019595 -406.3834099 208.39434686 -406.40625 203.8984375 C-406.41019587 203.13332745 -406.41414173 202.3682174 -406.41820717 201.5799222 C-406.45463419 194.36215011 -406.48607581 187.14436824 -406.50731659 179.92653465 C-406.53487431 170.69861941 -406.58559995 161.47147426 -406.66779089 152.24387968 C-406.72363698 145.75375453 -406.75256063 139.26383793 -406.7617898 132.77348101 C-406.76804003 128.89847858 -406.78609358 125.02437864 -406.83317566 121.14963913 C-406.87697122 117.50002716 -406.88729258 113.85180702 -406.87254715 110.20197678 C-406.87303034 108.23291398 -406.9081779 106.26395395 -406.94454956 104.29522705 C-406.89093973 98.55009694 -406.77073621 94.48653823 -402.93818665 90.01393127 C-401.67026926 88.79631625 -400.37841711 87.60307411 -399.0625 86.4375 C-397.94467331 85.29016973 -396.83321058 84.1366008 -395.7285614 82.97657776 C-394.56854147 81.81073814 -393.40590082 80.64750164 -392.2409668 79.48657227 C-391.59942154 78.84327469 -390.95787628 78.19997711 -390.29689026 77.53718567 C-388.20431809 75.44025991 -386.1081668 73.34695645 -384.01171875 71.25390625 C-382.54663233 69.78814542 -381.08169432 68.32223624 -379.61689758 66.85618591 C-376.56156792 63.79938852 -373.50445308 60.74439101 -370.44604492 57.69067383 C-366.52058903 53.7709451 -362.59968047 49.84670304 -358.68007183 45.92112827 C-355.66310269 42.90055434 -352.64376679 39.88235531 -349.62369728 36.86488152 C-348.17602901 35.41788117 -346.72910554 33.97013528 -345.28293419 32.52163887 C-343.27004725 30.50622352 -341.25400227 28.49402238 -339.23706055 26.48266602 C-338.63809967 25.88168091 -338.03913879 25.2806958 -337.42202759 24.66149902 C-333.50862503 20.76823473 -331.80728408 19.31206635 -326.33421898 19.31445217 C-325.33050235 19.31246112 -324.32678572 19.31047007 -323.29265344 19.30841869 C-322.18177696 19.31133153 -321.07090049 19.31424437 -319.92636108 19.31724548 C-318.16582852 19.31596385 -318.16582852 19.31596385 -316.36972964 19.31465632 C-313.10198202 19.31328966 -309.83427367 19.31643138 -306.5665307 19.32143438 C-303.0464239 19.32574002 -299.52631903 19.32429237 -296.00621033 19.3235321 C-289.90407244 19.32300694 -283.80194523 19.32615294 -277.69981003 19.33176994 C-268.87707262 19.33988598 -260.05434038 19.34250027 -251.23159964 19.34375793 C-236.91839423 19.34594829 -222.60519451 19.35260793 -208.29199219 19.36206055 C-194.38541696 19.37123509 -180.47884327 19.37831572 -166.57226562 19.38256836 C-165.71552334 19.38283108 -164.85878106 19.38309381 -163.97607689 19.38336449 C-159.67818971 19.3846695 -155.38030253 19.38593321 -151.08241534 19.38717639 C-115.40910617 19.3975485 -79.73580361 19.41516637 -44.0625 19.4375 C-43.76230957 18.49205322 -43.46211914 17.54660645 -43.15283203 16.57250977 C-40.17688347 8.01582471 -32.59702367 3.19505214 -24.8359375 -0.671875 C-17.6159649 -2.99040141 -7.08555607 -2.89130397 0 0 Z M-24.921875 17.9140625 C-31.92893084 25.51082106 -31.0625 33.22119058 -31.0625 43.4375 C-19.5125 43.4375 -7.9625 43.4375 3.9375 43.4375 C4.37071542 29.36600582 4.37071542 29.36600582 -2.203125 17.9140625 C-9.19448453 12.36210052 -17.93051547 12.36210052 -24.921875 17.9140625 Z M-340.93969727 51.18530273 C-342.17086021 52.41173744 -342.17086021 52.41173744 -343.42689514 53.66294861 C-344.31855881 54.55663651 -345.21022247 55.4503244 -346.12890625 56.37109375 C-347.03752914 57.27875992 -347.94615204 58.18642609 -348.88230896 59.12159729 C-350.808182 61.04599328 -352.73222751 62.97219365 -354.6550293 64.8996582 C-357.12561939 67.37594558 -359.60067048 69.84771771 -362.07710361 72.31816006 C-364.43013154 74.66671532 -366.77935216 77.01906311 -369.12890625 79.37109375 C-370.02259415 80.26275742 -370.91628204 81.15442108 -371.83705139 82.07310486 C-372.65467453 82.89388016 -373.47229767 83.71465546 -374.31469727 84.56030273 C-375.04004166 85.28644272 -375.76538605 86.0125827 -376.51271057 86.76072693 C-378.17562544 88.17934609 -378.17562544 88.17934609 -378.0625 89.4375 C-373.4543813 89.51186755 -368.84661486 89.56620394 -364.23803711 89.60229492 C-362.67156893 89.61734622 -361.10514264 89.63779207 -359.53881836 89.66381836 C-357.28228394 89.70036433 -355.02630847 89.71726261 -352.76953125 89.73046875 C-352.07350296 89.74595261 -351.37747467 89.76143646 -350.66035461 89.77738953 C-346.24447257 89.77890489 -343.49794396 89.24952791 -340.0625 86.4375 C-336.25967356 81.95055434 -335.50094126 78.35292252 -335.671875 72.6328125 C-335.68036469 71.5468428 -335.68036469 71.5468428 -335.68902588 70.43893433 C-335.71126333 68.14609212 -335.76143013 65.85486284 -335.8125 63.5625 C-335.83258159 62.00002271 -335.85082945 60.43752071 -335.8671875 58.875 C-335.91108584 55.0618867 -335.98002029 51.24996598 -336.0625 47.4375 C-338.05279069 47.4375 -339.64221669 49.88924374 -340.93969727 51.18530273 Z M-31.0625 58.4375 C-31.0625 63.3875 -31.0625 68.3375 -31.0625 73.4375 C-19.5125 73.4375 -7.9625 73.4375 3.9375 73.4375 C3.9375 68.4875 3.9375 63.5375 3.9375 58.4375 C-7.6125 58.4375 -19.1625 58.4375 -31.0625 58.4375 Z M-31.0625 88.4375 C-31.45869497 113.50078237 -31.7607463 138.56329187 -31.94330692 163.62909317 C-32.03038675 175.2718902 -32.14874838 186.91268754 -32.3449707 198.55419922 C-32.51623121 208.71975579 -32.62450863 218.88386259 -32.66200441 229.05082202 C-32.68387165 234.41825218 -32.73395134 239.78154109 -32.85991096 245.14762115 C-33.52388467 274.54315095 -29.25408533 296.03863816 -14.0625 321.4375 C4.71484514 297.38110043 6.06263497 271.74710249 5.45840907 242.41286278 C5.36300215 236.97740891 5.35570254 231.54175287 5.33802795 226.10559082 C5.29187448 215.86671582 5.16944486 205.63031652 5.01778561 195.39251947 C4.84863419 183.71399715 4.76728249 172.03534045 4.69235408 160.35589314 C4.53663188 136.38168909 4.27062822 112.40984003 3.9375 88.4375 C-7.6125 88.4375 -19.1625 88.4375 -31.0625 88.4375 Z " fill="#03133ccc" transform="translate(475.0625,19.5625)"/>
<path d="M0 0 C1.23180496 -0.01913956 1.23180496 -0.01913956 2.48849487 -0.03866577 C3.36772614 -0.04089142 4.2469574 -0.04311707 5.15283203 -0.04541016 C6.06517609 -0.05206696 6.97752014 -0.05872375 7.91751099 -0.06558228 C9.84570299 -0.07569715 11.77392993 -0.08039966 13.70214844 -0.08007812 C16.64333161 -0.08444694 19.58300843 -0.12076633 22.52392578 -0.15869141 C24.40022275 -0.16456078 26.27652682 -0.16852937 28.15283203 -0.17041016 C29.46560623 -0.19196671 29.46560623 -0.19196671 30.80490112 -0.21395874 C37.79740773 -0.1619632 41.25061689 2.10118529 46.53564453 6.66552734 C51.89955295 13.44371387 51.06992559 25.04637653 50.78564453 33.29052734 C55.79305651 34.60002832 55.79305651 34.60002832 60.60009766 33.37402344 C62.34724779 31.99111834 63.94393091 30.5371396 65.53564453 28.97802734 C71.1679115 23.73487484 74.27365991 21.00745024 82.16064453 20.91552734 C83.26150391 20.88716797 84.36236328 20.85880859 85.49658203 20.82958984 C91.86953244 21.72271116 96.16689234 26.36975701 100.55126953 30.79052734 C101.07074158 31.30808594 101.59021362 31.82564453 102.12542725 32.35888672 C103.21351694 33.44562455 104.29912184 34.53485552 105.38232422 35.62646484 C107.0380074 37.29290557 108.70415642 38.94834514 110.37158203 40.60302734 C111.43212008 41.66488631 112.49203793 42.72736515 113.55126953 43.79052734 C114.04709534 44.28230469 114.54292114 44.77408203 115.05377197 45.28076172 C119.72241314 50.01325069 121.08334881 53.03355472 121.16064453 59.66552734 C121.01094763 66.75643323 119.23741341 69.61435928 114.48095703 74.80615234 C109.79664865 79.68924632 109.79664865 79.68924632 107.42626953 85.77880859 C107.68774156 88.20041686 107.68774156 88.20041686 108.78564453 91.29052734 C109.98189453 91.24927734 111.17814453 91.20802734 112.41064453 91.16552734 C131.11263466 91.31325238 131.11263466 91.31325238 138.33251953 98.43896484 C140.88740399 101.69438213 142.03220502 104.35742018 142.07617188 108.50488281 C142.08893158 109.32608612 142.10169128 110.14728943 142.11483765 110.99337769 C142.11706329 111.87260895 142.11928894 112.75184021 142.12158203 113.65771484 C142.13156723 115.02623093 142.13156723 115.02623093 142.14175415 116.4223938 C142.15186903 118.35058581 142.15657153 120.27881274 142.15625 122.20703125 C142.16061881 125.14821442 142.1969382 128.08789124 142.23486328 131.02880859 C142.24073266 132.90510556 142.24470124 134.78140964 142.24658203 136.65771484 C142.26095306 137.53289764 142.2753241 138.40808044 142.29013062 139.30978394 C142.23813508 146.30229054 139.97498658 149.75549971 135.41064453 155.04052734 C128.63245801 160.40443576 117.02979535 159.57480841 108.78564453 159.29052734 C107.47094007 164.31578109 107.47094007 164.31578109 108.71826172 169.13720703 C110.11510793 170.9165836 111.58440613 172.54315514 113.16064453 174.16552734 C114.19033126 175.28696834 115.21902433 176.40932274 116.24658203 177.53271484 C117.08447266 178.44279297 117.92236328 179.35287109 118.78564453 180.29052734 C119.11564453 180.95052734 119.44564453 181.61052734 119.78564453 182.29052734 C145.64564848 182.36057029 171.50563823 182.41349241 197.36571789 182.44596386 C209.37266903 182.46144083 221.37956127 182.48254624 233.38647461 182.5168457 C243.85019813 182.54672261 254.31387899 182.56609631 264.77764398 182.57279283 C270.31948488 182.57670797 275.86120376 182.58592642 281.4030056 182.60771751 C286.61745555 182.6280556 291.83173302 182.63436654 297.04621887 182.62985039 C298.96145883 182.63067679 300.87670447 182.63665831 302.79191017 182.64814377 C305.40467372 182.66304597 308.01678405 182.6594893 310.62956238 182.65129089 C311.38929688 182.66002942 312.14903139 182.66876794 312.93178815 182.67777127 C317.39543979 182.63985332 320.2535029 182.0707479 323.78564453 179.29052734 C327.42717433 173.82823264 326.94401961 168.08041334 326.99658203 161.72021484 C327.02462924 159.83609125 327.05329353 157.95197677 327.08251953 156.06787109 C327.12390374 153.1074224 327.16080721 150.14714779 327.18701172 147.18652344 C327.21453766 144.3224017 327.26038034 141.45904412 327.30908203 138.59521484 C327.3123349 137.70768524 327.31558777 136.82015564 327.31893921 135.9057312 C327.33550568 135.08122467 327.35207214 134.25671814 327.36914062 133.40722656 C327.3812709 132.32065262 327.3812709 132.32065262 327.39364624 131.21212769 C327.8983452 128.73806156 328.82473239 127.83563609 330.78564453 126.29052734 C332.94189453 125.89208984 332.94189453 125.89208984 335.28564453 125.91552734 C336.44580078 125.90392578 336.44580078 125.90392578 337.62939453 125.89208984 C340.34853753 126.39454018 341.09063749 127.13037478 342.78564453 129.29052734 C343.18005371 131.48219299 343.18005371 131.48219299 343.20556641 134.06225586 C343.22147827 135.03078995 343.23739014 135.99932404 343.25378418 136.99720764 C343.2540863 138.56745949 343.2540863 138.56745949 343.25439453 140.16943359 C343.26200806 141.25127426 343.26962158 142.33311493 343.27746582 143.44773865 C343.28828189 145.74174696 343.29111384 148.03580457 343.28662109 150.32983398 C343.2856549 153.81563445 343.32713384 157.29918894 343.37158203 160.78466797 C343.37679386 163.01708528 343.37947715 165.2495102 343.37939453 167.48193359 C343.39578979 168.51459854 343.41218506 169.54726349 343.42907715 170.61122131 C343.35291917 178.71854298 341.37175897 185.35584352 335.82507324 191.44166565 C329.21145897 197.82112676 322.06034634 199.75324269 313.11694336 199.65129089 C312.28114683 199.65385417 311.4453503 199.65641744 310.58422661 199.65905839 C307.80350893 199.66397184 305.02334284 199.64754396 302.24267578 199.63110352 C300.24152133 199.63025672 298.24036595 199.63073342 296.23921204 199.63243103 C290.82035499 199.63329034 285.40169792 199.61567489 279.98288727 199.59470916 C274.31477375 199.57593168 268.64665545 199.57419107 262.97851562 199.57063293 C252.25124143 199.56131563 241.52405916 199.53670605 230.79682541 199.50658447 C218.58164945 199.47303071 206.36646906 199.45655198 194.15125847 199.44149816 C169.02933623 199.41015627 143.90749554 199.35740182 118.78564453 199.29052734 C118.5044577 199.89637665 118.22327087 200.50222595 117.93356323 201.12643433 C116.30473076 204.19716136 113.92523346 206.43627176 111.48095703 208.86083984 C110.96056854 209.38314178 110.44018005 209.90544373 109.90402222 210.443573 C108.80533452 211.54361824 107.70413084 212.64115561 106.60058594 213.73632812 C104.91643036 215.40977829 103.24320277 217.09362141 101.57080078 218.77880859 C100.49982686 219.84846085 99.42823266 220.91749249 98.35595703 221.98583984 C97.85790558 222.48793976 97.35985413 222.99003967 96.84671021 223.50735474 C92.08775457 228.20298038 89.080485 229.58779028 82.41064453 229.66552734 C75.31973864 229.51583044 72.4618126 227.74229622 67.27001953 222.98583984 C62.38692556 218.30153146 62.38692556 218.30153146 56.29736328 215.93115234 C53.87575502 216.19262437 53.87575502 216.19262437 50.78564453 217.29052734 C50.82689453 218.48677734 50.86814453 219.68302734 50.91064453 220.91552734 C50.76291949 239.61751747 50.76291949 239.61751747 43.63720703 246.83740234 C40.38178974 249.3922868 37.7187517 250.53708783 33.57128906 250.58105469 C32.75008575 250.59381439 31.92888245 250.6065741 31.08279419 250.61972046 C30.20356293 250.62194611 29.32433167 250.62417175 28.41845703 250.62646484 C27.04994095 250.63645004 27.04994095 250.63645004 25.65377808 250.64663696 C23.72558607 250.65675184 21.79735914 250.66145434 19.86914062 250.66113281 C16.92795745 250.66550163 13.98828064 250.70182102 11.04736328 250.73974609 C9.17106631 250.74561547 7.29476224 250.74958405 5.41845703 250.75146484 C4.54327423 250.76583588 3.66809143 250.78020691 2.76638794 250.79501343 C-4.22611866 250.74301789 -7.67932783 248.47986939 -12.96435547 243.91552734 C-18.32826389 237.13734082 -17.49863653 225.53467816 -17.21435547 217.29052734 C-22.22176745 215.98102637 -22.22176745 215.98102637 -27.02880859 217.20703125 C-28.77595873 218.58993634 -30.37264185 220.04391508 -31.96435547 221.60302734 C-37.59662244 226.84617985 -40.70237085 229.57360445 -48.58935547 229.66552734 C-49.69021484 229.69388672 -50.79107422 229.72224609 -51.92529297 229.75146484 C-58.29824338 228.85834353 -62.59560327 224.21129768 -66.97998047 219.79052734 C-67.49945251 219.27296875 -68.01892456 218.75541016 -68.55413818 218.22216797 C-69.64222788 217.13543014 -70.72783278 216.04619916 -71.81103516 214.95458984 C-73.46671834 213.28814912 -75.13286736 211.63270955 -76.80029297 209.97802734 C-77.86083102 208.91616837 -78.92074887 207.85368953 -79.97998047 206.79052734 C-80.47580627 206.29875 -80.97163208 205.80697266 -81.48248291 205.30029297 C-86.15112408 200.567804 -87.51205975 197.54749996 -87.58935547 190.91552734 C-87.43965857 183.82462145 -85.66612435 180.96669541 -80.90966797 175.77490234 C-76.22535959 170.89180837 -76.22535959 170.89180837 -73.85498047 164.80224609 C-74.1164525 162.38063783 -74.1164525 162.38063783 -75.21435547 159.29052734 C-76.41060547 159.33177734 -77.60685547 159.37302734 -78.83935547 159.41552734 C-97.5413456 159.2678023 -97.5413456 159.2678023 -104.76123047 152.14208984 C-107.31611492 148.88667255 -108.46091596 146.22363451 -108.50488281 142.07617188 C-108.52402237 140.84436691 -108.52402237 140.84436691 -108.54354858 139.587677 C-108.54577423 138.70844574 -108.54799988 137.82921448 -108.55029297 136.92333984 C-108.55694977 136.01099579 -108.56360657 135.09865173 -108.57046509 134.15866089 C-108.58057996 132.23046888 -108.58528247 130.30224195 -108.58496094 128.37402344 C-108.58932975 125.43284027 -108.62564914 122.49316345 -108.66357422 119.55224609 C-108.66944359 117.67594912 -108.67341218 115.79964505 -108.67529297 113.92333984 C-108.689664 113.04815704 -108.70403503 112.17297424 -108.71884155 111.27127075 C-108.66684601 104.27876415 -106.40369752 100.82555498 -101.83935547 95.54052734 C-95.06116895 90.17661893 -83.45850628 91.00624628 -75.21435547 91.29052734 C-73.90485449 86.28311536 -73.90485449 86.28311536 -75.13085938 81.47607422 C-76.51376447 79.72892408 -77.96774321 78.13224097 -79.52685547 76.54052734 C-84.77000797 70.90826038 -87.49743257 67.80251196 -87.58935547 59.91552734 C-87.61771484 58.81466797 -87.64607422 57.71380859 -87.67529297 56.57958984 C-86.78217165 50.20663943 -82.1351258 45.90927954 -77.71435547 41.52490234 C-77.19679688 41.0054303 -76.67923828 40.48595825 -76.14599609 39.95074463 C-75.05925826 38.86265493 -73.97002729 37.77705003 -72.87841797 36.69384766 C-71.21197725 35.03816447 -69.55653768 33.37201546 -67.90185547 31.70458984 C-66.8399965 30.64405179 -65.77751766 29.58413395 -64.71435547 28.52490234 C-63.97668945 27.78116364 -63.97668945 27.78116364 -63.22412109 27.0223999 C-58.49163212 22.35375873 -55.47132809 20.99282306 -48.83935547 20.91552734 C-41.74844958 21.06522425 -38.89052353 22.83875846 -33.69873047 27.59521484 C-28.8156365 32.27952322 -28.8156365 32.27952322 -22.72607422 34.64990234 C-20.30446596 34.38843032 -20.30446596 34.38843032 -17.21435547 33.29052734 C-17.25560547 32.09427734 -17.29685547 30.89802734 -17.33935547 29.66552734 C-17.19163043 10.96353721 -17.19163043 10.96353721 -10.06591797 3.74365234 C-6.81050068 1.18876789 -4.14746263 0.04396686 0 0 Z M-0.21435547 17.29052734 C-0.73955258 19.85475016 -0.73955258 19.85475016 -0.99560547 22.84912109 C-1.11548828 23.95707031 -1.23537109 25.06501953 -1.35888672 26.20654297 C-1.47619141 27.36863281 -1.59349609 28.53072266 -1.71435547 29.72802734 C-1.94640197 32.01916778 -2.18566077 34.30959249 -2.43310547 36.59912109 C-2.53558594 37.61804443 -2.63806641 38.63696777 -2.74365234 39.68676758 C-3.21435547 42.29052734 -3.21435547 42.29052734 -5.21435547 45.29052734 C-7.71185113 46.44189576 -10.1448336 47.45976127 -12.71435547 48.41552734 C-14.07912592 48.93847677 -15.44371741 49.46189355 -16.80810547 49.98583984 C-17.93216797 50.41638672 -19.05623047 50.84693359 -20.21435547 51.29052734 C-21.20435547 51.78552734 -21.20435547 51.78552734 -22.21435547 52.29052734 C-25.20419822 52.78883447 -27.32549258 52.80011613 -29.99951172 51.26708984 C-33.13544264 48.93606932 -36.07682498 46.40955512 -39.03076172 43.85302734 C-39.99884766 43.02802734 -40.96693359 42.20302734 -41.96435547 41.35302734 C-42.86669922 40.56025391 -43.76904297 39.76748047 -44.69873047 38.95068359 C-46.97208969 37.08578213 -46.97208969 37.08578213 -49.0715332 37.41601562 C-54.08127547 39.46055212 -57.76815554 44.3338502 -61.52685547 48.10302734 C-62.47109375 49.01890625 -63.41533203 49.93478516 -64.38818359 50.87841797 C-65.27570313 51.76335937 -66.16322266 52.64830078 -67.07763672 53.56005859 C-67.89530518 54.37063721 -68.71297363 55.18121582 -69.55541992 56.01635742 C-71.4416489 58.10544802 -71.4416489 58.10544802 -71.12280273 60.39501953 C-69.59020117 63.59284768 -67.18002333 66.10227814 -64.83935547 68.72802734 C-56.48442026 78.18172357 -56.48442026 78.18172357 -55.84716797 83.15771484 C-56.2955495 86.98326787 -57.50605987 89.90803518 -59.08935547 93.41552734 C-59.88986328 95.21376953 -59.88986328 95.21376953 -60.70654297 97.04833984 C-61.20412109 98.11826172 -61.70169922 99.18818359 -62.21435547 100.29052734 C-62.44380859 101.05107422 -62.67326172 101.81162109 -62.90966797 102.59521484 C-65.18464388 105.55132127 -68.71521032 105.74593898 -72.21435547 106.29052734 C-76.35830425 106.78850899 -80.51277657 107.11490424 -84.67529297 107.41357422 C-85.48998047 107.48511719 -86.30466797 107.55666016 -87.14404297 107.63037109 C-87.87864746 107.68572021 -88.61325195 107.74106934 -89.37011719 107.7980957 C-91.61846749 108.18084018 -91.61846749 108.18084018 -93.21435547 111.29052734 C-93.52394195 114.24718798 -93.52394195 114.24718798 -93.47998047 117.60302734 C-93.48255859 118.84310547 -93.48513672 120.08318359 -93.48779297 121.36083984 C-93.48005859 122.65763672 -93.47232422 123.95443359 -93.46435547 125.29052734 C-93.47208984 126.58732422 -93.47982422 127.88412109 -93.48779297 129.22021484 C-93.48521484 130.46029297 -93.48263672 131.70037109 -93.47998047 132.97802734 C-93.47772461 134.11626953 -93.47546875 135.25451172 -93.47314453 136.42724609 C-93.42605258 139.49032888 -93.42605258 139.49032888 -91.21435547 142.29052734 C-88.65924265 142.95311519 -88.65924265 142.95311519 -85.65576172 143.16943359 C-83.99383789 143.34442383 -83.99383789 143.34442383 -82.29833984 143.52294922 C-81.13625 143.631875 -79.97416016 143.74080078 -78.77685547 143.85302734 C-76.48576302 144.0761443 -74.19534165 144.306296 -71.90576172 144.54443359 C-70.88683838 144.64054932 -69.86791504 144.73666504 -68.81811523 144.83569336 C-66.21435547 145.29052734 -66.21435547 145.29052734 -63.21435547 147.29052734 C-62.06298705 149.78802301 -61.04512155 152.22100548 -60.08935547 154.79052734 C-59.56640604 156.1552978 -59.04298926 157.51988929 -58.51904297 158.88427734 C-58.08849609 160.00833984 -57.65794922 161.13240234 -57.21435547 162.29052734 C-56.88435547 162.95052734 -56.55435547 163.61052734 -56.21435547 164.29052734 C-55.71604834 167.28037009 -55.70476668 169.40166446 -57.23779297 172.07568359 C-59.56881349 175.21161451 -62.09532769 178.15299685 -64.65185547 181.10693359 C-65.47685547 182.07501953 -66.30185547 183.04310547 -67.15185547 184.04052734 C-67.94462891 184.94287109 -68.73740234 185.84521484 -69.55419922 186.77490234 C-71.41910068 189.04826157 -71.41910068 189.04826157 -71.08886719 191.14770508 C-69.04433069 196.15744734 -64.17103261 199.84432741 -60.40185547 203.60302734 C-59.48597656 204.54726563 -58.57009766 205.49150391 -57.62646484 206.46435547 C-56.29905273 207.79563477 -56.29905273 207.79563477 -54.94482422 209.15380859 C-54.13424561 209.97147705 -53.32366699 210.78914551 -52.48852539 211.6315918 C-50.39943479 213.51782077 -50.39943479 213.51782077 -48.10986328 213.19897461 C-44.91203513 211.66637304 -42.40260468 209.25619521 -39.77685547 206.91552734 C-30.32315925 198.56059213 -30.32315925 198.56059213 -25.34716797 197.92333984 C-21.52161494 198.37172137 -18.59684764 199.58223174 -15.08935547 201.16552734 C-13.89052734 201.69919922 -12.69169922 202.23287109 -11.45654297 202.78271484 C-10.38662109 203.28029297 -9.31669922 203.77787109 -8.21435547 204.29052734 C-7.45380859 204.51998047 -6.69326172 204.74943359 -5.90966797 204.98583984 C-2.95356154 207.26081576 -2.75894383 210.7913822 -2.21435547 214.29052734 C-1.71637382 218.43447612 -1.38997858 222.58894844 -1.09130859 226.75146484 C-1.01976563 227.56615234 -0.94822266 228.38083984 -0.87451172 229.22021484 C-0.8191626 229.95481934 -0.76381348 230.68942383 -0.70678711 231.44628906 C-0.32404263 233.69463937 -0.32404263 233.69463937 2.78564453 235.29052734 C5.74230517 235.60011382 5.74230517 235.60011382 9.09814453 235.55615234 C10.33822266 235.55873047 11.57830078 235.56130859 12.85595703 235.56396484 C14.15275391 235.55623047 15.44955078 235.54849609 16.78564453 235.54052734 C18.08244141 235.54826172 19.37923828 235.55599609 20.71533203 235.56396484 C21.95541016 235.56138672 23.19548828 235.55880859 24.47314453 235.55615234 C25.61138672 235.55389648 26.74962891 235.55164063 27.92236328 235.54931641 C30.98544606 235.50222446 30.98544606 235.50222446 33.78564453 233.29052734 C34.44823238 230.73541452 34.44823238 230.73541452 34.66455078 227.73193359 C34.83954102 226.07000977 34.83954102 226.07000977 35.01806641 224.37451172 C35.12699219 223.21242188 35.23591797 222.05033203 35.34814453 220.85302734 C35.57126149 218.5619349 35.80141318 216.27151352 36.03955078 213.98193359 C36.1356665 212.96301025 36.23178223 211.94408691 36.33081055 210.89428711 C36.78564453 208.29052734 36.78564453 208.29052734 38.78564453 205.29052734 C41.2831402 204.13915893 43.71612266 203.12129342 46.28564453 202.16552734 C47.65041498 201.64257792 49.01500647 201.11916114 50.37939453 200.59521484 C52.06548828 199.94939453 52.06548828 199.94939453 53.78564453 199.29052734 C54.44564453 198.96052734 55.10564453 198.63052734 55.78564453 198.29052734 C58.77548728 197.79222022 60.89678164 197.78093856 63.57080078 199.31396484 C66.7067317 201.64498536 69.64811404 204.17149957 72.60205078 206.72802734 C73.57013672 207.55302734 74.53822266 208.37802734 75.53564453 209.22802734 C76.43798828 210.02080078 77.34033203 210.81357422 78.27001953 211.63037109 C80.54337875 213.49527256 80.54337875 213.49527256 82.64282227 213.16503906 C87.65256453 211.12050257 91.3394446 206.24720449 95.09814453 202.47802734 C96.04238281 201.56214844 96.98662109 200.64626953 97.95947266 199.70263672 C99.29075195 198.37522461 99.29075195 198.37522461 100.64892578 197.02099609 C101.46659424 196.21041748 102.2842627 195.39983887 103.12670898 194.56469727 C105.01293796 192.47560667 105.01293796 192.47560667 104.6940918 190.18603516 C103.16149023 186.98820701 100.7513124 184.47877655 98.41064453 181.85302734 C90.05570932 172.39933112 90.05570932 172.39933112 89.41845703 167.42333984 C89.86683856 163.59778682 91.07734893 160.67301951 92.66064453 157.16552734 C93.19431641 155.96669922 93.72798828 154.76787109 94.27783203 153.53271484 C94.77541016 152.46279297 95.27298828 151.39287109 95.78564453 150.29052734 C96.01509766 149.52998047 96.24455078 148.76943359 96.48095703 147.98583984 C98.75593295 145.02973342 102.28649939 144.83511571 105.78564453 144.29052734 C109.92959331 143.7925457 114.08406563 143.46615045 118.24658203 143.16748047 C119.06126953 143.0959375 119.87595703 143.02439453 120.71533203 142.95068359 C121.44993652 142.89533447 122.18454102 142.83998535 122.94140625 142.78295898 C125.18975655 142.40021451 125.18975655 142.40021451 126.78564453 139.29052734 C127.09523101 136.33386671 127.09523101 136.33386671 127.05126953 132.97802734 C127.05384766 131.73794922 127.05642578 130.49787109 127.05908203 129.22021484 C127.05134766 127.92341797 127.04361328 126.62662109 127.03564453 125.29052734 C127.04337891 123.99373047 127.05111328 122.69693359 127.05908203 121.36083984 C127.05650391 120.12076172 127.05392578 118.88068359 127.05126953 117.60302734 C127.04788574 115.89566406 127.04788574 115.89566406 127.04443359 114.15380859 C126.99734165 111.09072581 126.99734165 111.09072581 124.78564453 108.29052734 C122.23053171 107.6279395 122.23053171 107.6279395 119.22705078 107.41162109 C118.11910156 107.29496094 117.01115234 107.17830078 115.86962891 107.05810547 C114.70753906 106.94917969 113.54544922 106.84025391 112.34814453 106.72802734 C110.05705209 106.50491038 107.76663071 106.27475869 105.47705078 106.03662109 C104.45812744 105.94050537 103.4392041 105.84438965 102.3894043 105.74536133 C99.78564453 105.29052734 99.78564453 105.29052734 96.78564453 103.29052734 C95.63427612 100.79303168 94.61641061 98.36004921 93.66064453 95.79052734 C93.13769511 94.42575689 92.61427832 93.0611654 92.09033203 91.69677734 C91.65978516 90.57271484 91.22923828 89.44865234 90.78564453 88.29052734 C90.45564453 87.63052734 90.12564453 86.97052734 89.78564453 86.29052734 C89.28733741 83.3006846 89.27605574 81.17939023 90.80908203 78.50537109 C93.14010255 75.36944017 95.66661676 72.42805783 98.22314453 69.47412109 C99.04814453 68.50603516 99.87314453 67.53794922 100.72314453 66.54052734 C101.51591797 65.63818359 102.30869141 64.73583984 103.12548828 63.80615234 C104.99038975 61.53279312 104.99038975 61.53279312 104.66015625 59.43334961 C102.61561976 54.42360734 97.74232168 50.73672728 93.97314453 46.97802734 C93.05726563 46.03378906 92.14138672 45.08955078 91.19775391 44.11669922 C89.8703418 42.78541992 89.8703418 42.78541992 88.51611328 41.42724609 C87.70553467 40.60957764 86.89495605 39.79190918 86.05981445 38.94946289 C83.97072386 37.06323391 83.97072386 37.06323391 81.68115234 37.38208008 C78.48332419 38.91468164 75.97389374 41.32485948 73.34814453 43.66552734 C63.89444831 52.02046255 63.89444831 52.02046255 58.91845703 52.65771484 C55.092904 52.20933332 52.1681367 50.99882294 48.66064453 49.41552734 C47.46181641 48.88185547 46.26298828 48.34818359 45.02783203 47.79833984 C43.95791016 47.30076172 42.88798828 46.80318359 41.78564453 46.29052734 C41.02509766 46.06107422 40.26455078 45.83162109 39.48095703 45.59521484 C36.52587816 43.32102973 36.33650688 39.78762425 35.78564453 36.29052734 C35.25988443 32.14679627 34.91424174 27.99203386 34.57470703 23.82958984 C34.46255859 22.60755859 34.46255859 22.60755859 34.34814453 21.36083984 C34.28755859 20.62623535 34.22697266 19.89163086 34.16455078 19.13476562 C33.91265955 17.05065322 33.91265955 17.05065322 31.78564453 15.29052734 C28.70918713 14.97817842 28.70918713 14.97817842 25.09814453 15.02490234 C24.43983643 15.02298889 23.78152832 15.02107544 23.10327148 15.019104 C21.71125913 15.01774284 20.31923406 15.02143451 18.92724609 15.02978516 C16.79381864 15.04048634 14.66123322 15.02988828 12.52783203 15.01708984 C11.17626767 15.01841145 9.82470383 15.02097387 8.47314453 15.02490234 C6.62269531 15.02828613 6.62269531 15.02828613 4.73486328 15.03173828 C1.66494875 14.98282968 1.66494875 14.98282968 -0.21435547 17.29052734 Z " fill="#03133ccc" transform="translate(126.21435546875,243.70947265625)"/>
<path d="M0 0 C1.0709919 -0.01210762 1.0709919 -0.01210762 2.16362 -0.02445984 C3.67407825 -0.03827755 5.18456743 -0.04901004 6.69506836 -0.05688477 C8.2342244 -0.06840127 9.77334061 -0.08884823 11.31225586 -0.1184082 C13.54177862 -0.16122384 15.77011643 -0.17727197 18 -0.1875 C19.02218376 -0.21376213 19.02218376 -0.21376213 20.0650177 -0.24055481 C25.0756843 -0.21802145 27.89501896 1.02504511 31.69921875 4.23828125 C34.25901071 7.82297489 35.07484508 10.27340566 35.08016968 14.65855408 C35.08862915 15.73376816 35.09708862 16.80898224 35.10580444 17.91677856 C35.0966954 19.67101639 35.0966954 19.67101639 35.08740234 21.46069336 C35.09528778 23.32001747 35.09528778 23.32001747 35.10333252 25.21690369 C35.1142642 28.60965783 35.1117154 32.00186218 35.10219526 35.39458537 C35.09458696 38.94987765 35.10164768 42.50514683 35.10635376 46.06044006 C35.11180863 52.0314657 35.10462756 58.00237995 35.09033203 63.97338867 C35.07401343 70.86886848 35.07928922 77.76408205 35.09581125 84.65955538 C35.10944277 90.58668793 35.11133744 96.51374052 35.10349524 102.4408837 C35.09882688 105.97784985 35.09817054 109.51469105 35.10810471 113.05164909 C35.11841135 116.99669546 35.10410968 120.94144579 35.08740234 124.88647461 C35.09347504 126.05394226 35.09954773 127.22140991 35.10580444 128.42425537 C35.0614242 134.07985697 35.00303348 138.40601209 31.69921875 143.23828125 C27.78479349 146.78572915 24.38315461 147.36323338 19.21574402 147.37872314 C17.50607704 147.38728836 17.50607704 147.38728836 15.76187134 147.39602661 C14.510383 147.39714447 13.25889465 147.39826233 11.96948242 147.39941406 C10.6521965 147.40437897 9.33491058 147.40934387 7.97770691 147.41445923 C4.36189503 147.42757703 0.74610172 147.43402702 -2.86973023 147.43846989 C-5.12933429 147.44140174 -7.38893327 147.44550677 -9.64853477 147.44997406 C-16.71998471 147.46364763 -23.79142306 147.47331486 -30.8628853 147.47717595 C-39.02269128 147.48165589 -47.18232968 147.49920132 -55.34208471 147.52817655 C-61.65131975 147.54980197 -67.96050768 147.5598807 -74.26977938 147.56121707 C-78.03706886 147.56226453 -81.80420077 147.56815951 -85.57145119 147.58603668 C-89.11652412 147.60253227 -92.66132132 147.60466582 -96.20641899 147.59589767 C-98.12324912 147.59476188 -100.04007015 147.60846798 -101.95684814 147.62265015 C-112.55096138 147.57126684 -112.55096138 147.57126684 -117.30078125 144.23828125 C-122.24930939 139.00627321 -121.86988189 133.69505721 -121.796875 126.890625 C-121.79833023 125.80117081 -121.79978546 124.71171661 -121.80128479 123.58924866 C-121.79962872 121.29213784 -121.78810035 118.99501559 -121.76733398 116.69799805 C-121.73835113 113.18425358 -121.74673785 109.67201605 -121.75976562 106.15820312 C-121.7535287 103.92316976 -121.74513812 101.68814115 -121.734375 99.453125 C-121.73731064 98.40406479 -121.74024628 97.35500458 -121.74327087 96.27415466 C-121.66161043 89.95660569 -120.98481813 86.36965761 -116.80078125 81.48828125 C-113.61005039 78.82933887 -110.27207041 79.12134813 -106.3203125 79.140625 C-105.15693359 79.14384766 -103.99355469 79.14707031 -102.79492188 79.15039062 C-101.57998047 79.15876953 -100.36503906 79.16714844 -99.11328125 79.17578125 C-97.88673828 79.18029297 -96.66019531 79.18480469 -95.39648438 79.18945312 C-92.36453457 79.2012506 -89.33268219 79.21771204 -86.30078125 79.23828125 C-86.35298828 77.48451172 -86.35298828 77.48451172 -86.40625 75.6953125 C-86.43439841 74.14714984 -86.46169744 72.59897157 -86.48828125 71.05078125 C-86.51341797 70.28185547 -86.53855469 69.51292969 -86.56445312 68.72070312 C-86.63768276 63.03320138 -85.56133215 59.87559063 -81.80078125 55.48828125 C-78.61005039 52.82933887 -75.27207041 53.12134813 -71.3203125 53.140625 C-70.15693359 53.14384766 -68.99355469 53.14707031 -67.79492188 53.15039062 C-66.57998047 53.15876953 -65.36503906 53.16714844 -64.11328125 53.17578125 C-62.88673828 53.18029297 -61.66019531 53.18480469 -60.39648438 53.18945312 C-57.36453457 53.2012506 -54.33268219 53.21771204 -51.30078125 53.23828125 C-51.33558594 51.99691406 -51.37039063 50.75554687 -51.40625 49.4765625 C-51.43439709 47.83464899 -51.46169626 46.19272079 -51.48828125 44.55078125 C-51.51341797 43.73416016 -51.53855469 42.91753906 -51.56445312 42.07617188 C-51.63548569 36.22782412 -50.67103233 33.00357417 -46.80078125 28.48828125 C-43.61005039 25.82933887 -40.27207041 26.12134813 -36.3203125 26.140625 C-35.15693359 26.14384766 -33.99355469 26.14707031 -32.79492188 26.15039062 C-31.57998047 26.15876953 -30.36503906 26.16714844 -29.11328125 26.17578125 C-27.88673828 26.18029297 -26.66019531 26.18480469 -25.39648438 26.18945312 C-22.36453457 26.2012506 -19.33268219 26.21771204 -16.30078125 26.23828125 C-16.35298828 24.48451172 -16.35298828 24.48451172 -16.40625 22.6953125 C-16.43439841 21.14714984 -16.46169744 19.59897157 -16.48828125 18.05078125 C-16.51341797 17.28185547 -16.53855469 16.51292969 -16.56445312 15.72070312 C-16.63768276 10.03320138 -15.56133215 6.87559063 -11.80078125 2.48828125 C-8.3658055 -0.37419854 -4.22759901 0.0454221 0 0 Z M-0.30078125 16.23828125 C-0.30078125 54.18828125 -0.30078125 92.13828125 -0.30078125 131.23828125 C5.96921875 131.23828125 12.23921875 131.23828125 18.69921875 131.23828125 C18.69921875 93.28828125 18.69921875 55.33828125 18.69921875 16.23828125 C12.42921875 16.23828125 6.15921875 16.23828125 -0.30078125 16.23828125 Z M-35.30078125 42.23828125 C-35.30078125 71.60828125 -35.30078125 100.97828125 -35.30078125 131.23828125 C-29.03078125 131.23828125 -22.76078125 131.23828125 -16.30078125 131.23828125 C-16.30078125 101.86828125 -16.30078125 72.49828125 -16.30078125 42.23828125 C-22.57078125 42.23828125 -28.84078125 42.23828125 -35.30078125 42.23828125 Z M-70.30078125 69.23828125 C-70.30078125 89.69828125 -70.30078125 110.15828125 -70.30078125 131.23828125 C-64.03078125 131.23828125 -57.76078125 131.23828125 -51.30078125 131.23828125 C-51.30078125 110.77828125 -51.30078125 90.31828125 -51.30078125 69.23828125 C-57.57078125 69.23828125 -63.84078125 69.23828125 -70.30078125 69.23828125 Z M-105.30078125 95.23828125 C-105.30078125 107.11828125 -105.30078125 118.99828125 -105.30078125 131.23828125 C-99.03078125 131.23828125 -92.76078125 131.23828125 -86.30078125 131.23828125 C-86.30078125 119.35828125 -86.30078125 107.47828125 -86.30078125 95.23828125 C-92.57078125 95.23828125 -98.84078125 95.23828125 -105.30078125 95.23828125 Z " fill="#03133ccc" transform="translate(380.30078125,120.76171875)"/>
<path d="M0 0 C3.92567568 3.40540541 3.92567568 3.40540541 4.4375 7.5 C3.79279279 12.65765766 3.79279279 12.65765766 1 15 C-4.84302167 16.48223711 -7.74798316 15.6004009 -12.9375 12.6875 C-23.86124223 6.85701879 -34.44214784 5.1348343 -46.6875 8.1875 C-59.35272704 12.14538345 -68.60194429 18.50171217 -75.45703125 29.984375 C-81.7686783 42.32004973 -82.78061467 54.84733136 -79.04296875 68.1484375 C-77.31566612 72.87102522 -74.89526131 76.90669953 -72 81 C-71.55914062 81.63679688 -71.11828125 82.27359375 -70.6640625 82.9296875 C-63.72655447 91.95245805 -52.94690229 96.86617476 -42 99 C-27.7996545 100.54594109 -15.23239121 96.78037643 -4 88 C5.09851519 79.88321285 10.30293227 68.20129398 11.21484375 56.1640625 C11.49686767 47.38747796 10.00327797 39.50517632 5.8125 31.75 C3.84364116 28.01832569 3.27678734 25.25891898 4 21 C6.0625 18 6.0625 18 9 16 C12.90681474 15.93145939 15.05595113 16.19235363 18.0546875 18.7578125 C27.16153999 29.25446578 29.09622975 45.58468712 28.21142578 58.9296875 C26.46926221 75.98921068 18.43743027 91.05231354 5.375 102.1875 C-8.88030619 112.9717592 -25.21446042 117.78613661 -43 116 C-59.88319871 113.60068232 -74.09315755 105.69495855 -85.0625 92.5234375 C-95.70498453 78.07351239 -100.23821744 60.74959002 -97.70703125 42.93847656 C-94.6931152 25.88392473 -86.11489281 11.47469883 -72.0625 1.125 C-50.61178448 -12.84135372 -21.6107895 -15.11244021 0 0 Z " fill="#03133ccc" transform="translate(178,316)"/>
<path d="M0 0 C8.169169 5.73008854 14.06896618 13.04192362 16 23 C16.86875162 32.58475146 15.6788304 40.75523161 10.08203125 48.734375 C3.83851703 56.20449113 -3.77572898 61.3451998 -13.62890625 62.23828125 C-23.01181277 62.47566504 -30.91110186 60.85159146 -38.3125 54.8125 C-45.90559898 47.5312326 -49.93985801 39.81579136 -50.375 29.25 C-50.13051805 18.93028822 -46.64041517 11.57945643 -39.51171875 4.16796875 C-28.3605163 -5.45709713 -12.95773179 -7.02824341 0 0 Z M-31.80078125 20.28125 C-34.50901565 24.16275858 -34.45943147 28.44902794 -34 33 C-32.15080845 38.43879866 -28.62413162 41.77361725 -24 45 C-19.06558151 46.64480616 -14.73589501 46.5902043 -9.875 44.9375 C-5.35653079 41.89244466 -1.73973806 38.21921417 0 33 C0.36823488 27.38441811 0.23891406 23.80613054 -3 19 C-7.33774105 14.62124012 -10.47018385 12.16588958 -16.8125 11.75 C-23.76184973 11.88974926 -27.52258192 15.16088545 -31.80078125 20.28125 Z " fill="#03133ccc" transform="translate(160,340)"/>
<path d="M0 0 C1.14508026 -0.0087616 2.29016052 -0.01752319 3.46994019 -0.02655029 C7.26029191 -0.04858188 11.04947988 -0.03397663 14.83984375 -0.01708984 C17.47013575 -0.02045685 20.10042623 -0.0253085 22.73071289 -0.03158569 C28.24540854 -0.04067957 33.75976927 -0.02870168 39.27441406 -0.00488281 C45.6480687 0.02232858 52.02092365 0.01351418 58.39455891 -0.01401484 C64.52851778 -0.03944714 70.66212239 -0.03674496 76.79611206 -0.02210617 C79.4052644 -0.01876622 82.01443709 -0.02287978 84.62356567 -0.03450394 C88.26782612 -0.04717595 91.91054234 -0.02788322 95.5546875 0 C97.17877029 -0.01518173 97.17877029 -0.01518173 98.83566284 -0.03067017 C106.12475193 0.07286698 106.12475193 0.07286698 109.44750977 2.9960022 C111.07274629 6.23584572 111.38620381 8.06991981 110.77734375 11.64697266 C108.91024465 13.94972822 107.42086634 15.32521136 104.77734375 16.64697266 C103.26825215 16.74552451 101.754896 16.78200981 100.24259949 16.78741455 C99.2878624 16.79312469 98.33312531 16.79883484 97.34945679 16.80471802 C96.29851837 16.80583588 95.24757996 16.80695374 94.16479492 16.80810547 C93.06062729 16.81307037 91.95645966 16.81803528 90.8188324 16.82315063 C87.15265284 16.83779959 83.48651656 16.84457892 79.8203125 16.85009766 C77.27924091 16.85584698 74.73816933 16.86160474 72.19709778 16.86737061 C67.5454771 16.87654289 62.89386947 16.88283995 58.24224204 16.88586736 C51.3977538 16.8903464 44.55346543 16.90788609 37.70903796 16.93686795 C31.78022652 16.96110056 25.85146479 16.96881226 19.9226017 16.97054291 C17.40078964 16.97357374 14.87897851 16.98161668 12.35719872 16.99472809 C8.83066996 17.01175402 5.30462918 17.00991646 1.77807617 17.00341797 C0.73321045 17.01263275 -0.31165527 17.02184753 -1.38818359 17.03134155 C-10.32387325 16.97967586 -10.32387325 16.97967586 -14.22265625 13.64697266 C-15.64927844 10.79372828 -15.53299493 8.81242717 -15.22265625 5.64697266 C-11.92166633 -1.01148596 -6.58136283 -0.06152179 0 0 Z " fill="#03133ccc" transform="translate(130.22265625,179.35302734375)"/>
<path d="M0 0 C1.14508026 -0.00861557 2.29016052 -0.01723114 3.46994019 -0.02610779 C7.26013707 -0.04883585 11.04959875 -0.04201616 14.83984375 -0.03295898 C17.47013571 -0.03819129 20.10042579 -0.04446632 22.73071289 -0.05174255 C28.24535418 -0.06359126 33.75978538 -0.05789479 39.27441406 -0.04296875 C45.64804877 -0.02604076 52.02099894 -0.04189082 58.39455891 -0.07419163 C64.52849416 -0.1040996 70.66211596 -0.10607425 76.79611206 -0.09669304 C79.40527232 -0.09587138 82.01444663 -0.10277541 84.62356567 -0.11746407 C88.26778443 -0.13483456 91.91052878 -0.12042763 95.5546875 -0.09765625 C96.63740936 -0.10934845 97.72013123 -0.12104065 98.83566284 -0.13308716 C106.10612831 -0.04039999 106.10612831 -0.04039999 109.48266602 2.84632874 C111.2504992 6.51548685 110.85471269 8.65491909 109.77734375 12.53344727 C108.14525358 14.72217327 107.29058068 15.44475642 104.57652378 15.913764 C103.2832059 15.91740884 103.2832059 15.91740884 101.96376038 15.92112732 C100.47694008 15.93598427 100.47694008 15.93598427 98.96008301 15.95114136 C97.87376587 15.94663971 96.78744873 15.94213806 95.66821289 15.9375 C94.52327866 15.94436325 93.37834442 15.9512265 92.19871521 15.95829773 C88.40318501 15.97664206 84.60806514 15.97271719 80.8125 15.96704102 C78.18077967 15.97159916 75.54906053 15.97690363 72.91734314 15.98292542 C67.39675961 15.99296116 61.87629317 15.98964906 56.35571289 15.97949219 C49.97480908 15.96801188 43.59432561 15.98208302 37.21347719 16.00888866 C31.07477264 16.03371138 24.93626212 16.03622472 18.79751396 16.0297718 C16.18556456 16.02961813 13.57360724 16.03570069 10.96168709 16.04806328 C7.31276079 16.06289943 3.66476579 16.05234921 0.01586914 16.03515625 C-1.06842377 16.04482422 -2.15271667 16.05449219 -3.26986694 16.06445312 C-10.54621939 15.99246696 -10.54621939 15.99246696 -13.89381409 13.72084045 C-15.86357958 10.47843008 -15.75305058 8.24620757 -15.22265625 4.53344727 C-11.7792439 -1.125354 -5.89529434 -0.03553265 0 0 Z " fill="#03133ccc" transform="translate(294.22265625,339.466552734375)"/>
<path d="M0 0 C1.30797043 -0.0131424 1.30797043 -0.0131424 2.6423645 -0.02655029 C5.52380175 -0.04855131 8.4037035 -0.03398926 11.28515625 -0.01708984 C13.28768203 -0.02045778 15.29020583 -0.02531021 17.29272461 -0.03158569 C21.48929306 -0.03895798 25.68532935 -0.02823991 29.88183594 -0.00488281 C35.26257179 0.02360499 40.64206076 0.00720295 46.02275085 -0.02274513 C50.15776982 -0.04080839 54.2924929 -0.0350645 58.42752075 -0.02210617 C60.41147 -0.01876948 62.39544608 -0.02286847 64.37936401 -0.03450394 C67.15207113 -0.04719661 69.92275613 -0.02785845 72.6953125 0 C73.51621368 -0.01012115 74.33711487 -0.02024231 75.18289185 -0.03067017 C79.11298304 0.04252855 80.93928533 0.26471836 83.85717773 2.9960022 C85.68047107 6.23891829 85.9713702 7.98265318 85.34765625 11.64697266 C83.48055715 13.94972822 81.99117884 15.32521136 79.34765625 16.64697266 C76.65863363 16.75575087 73.99511518 16.80429526 71.30541992 16.80810547 C70.05881844 16.81555283 70.05881844 16.81555283 68.78703308 16.82315063 C66.02988871 16.83778927 63.27280189 16.84457743 60.515625 16.85009766 C58.60232033 16.85584815 56.68901569 16.86160589 54.77571106 16.86737061 C50.75989513 16.87788574 46.74409925 16.8837249 42.72827148 16.88720703 C37.58330222 16.8926898 32.43859787 16.91671104 27.29371166 16.94517899 C23.33973925 16.96380713 19.38583059 16.96901108 15.43181801 16.97054291 C13.53520575 16.97357007 11.63859462 16.98160074 9.74202538 16.99472809 C7.0871711 17.01179064 4.4329631 17.00990777 1.77807617 17.00341797 C0.99503113 17.01263275 0.21198608 17.02184753 -0.5947876 17.03134155 C-5.11880809 16.99671407 -8.06455196 16.47180904 -11.65234375 13.64697266 C-13.07896594 10.79372828 -12.96268243 8.81242717 -12.65234375 5.64697266 C-9.52579478 0.0254949 -5.9498107 -0.07335713 0 0 Z " fill="#03133ccc" transform="translate(155.65234375,145.35302734375)"/>
<path d="M0 0 C0.87198029 -0.00861557 1.74396057 -0.01723114 2.6423645 -0.02610779 C5.52359734 -0.04880363 8.40386048 -0.04202272 11.28515625 -0.03295898 C13.28768199 -0.03819273 15.29020525 -0.04446829 17.29272461 -0.05174255 C21.48921308 -0.06215327 25.68536259 -0.05757524 29.88183594 -0.04296875 C35.26253633 -0.02577444 40.64216955 -0.04928086 46.02275085 -0.08445835 C50.15774629 -0.10640602 54.29248529 -0.10499734 58.42752075 -0.09669304 C60.41148042 -0.09587218 62.39545866 -0.10276115 64.37936401 -0.11746407 C67.15201674 -0.13486273 69.92273793 -0.12040747 72.6953125 -0.09765625 C73.51621368 -0.10934845 74.33711487 -0.12104065 75.18289185 -0.13308716 C79.09747161 -0.0676506 80.94922092 0.17130566 83.89233398 2.84632874 C85.8786011 6.51378803 85.44802289 8.57212735 84.34765625 12.53344727 C83.02347469 14.22015476 83.02347469 14.22015476 81.34765625 15.53344727 C78.43101518 15.83492571 75.72705904 15.95343312 72.80883789 15.9375 C71.93700363 15.94436325 71.06516937 15.9512265 70.16691589 15.95829773 C67.28038317 15.97662291 64.39439101 15.97272004 61.5078125 15.96704102 C59.50385866 15.97160018 57.4999064 15.97690495 55.49595642 15.98292542 C51.29354506 15.99186784 47.09132361 15.98942064 42.88891602 15.97949219 C37.50048813 15.968003 32.11271559 15.98820761 26.72437382 16.01740932 C22.58511685 16.03574603 18.44601765 16.03548388 14.30673027 16.0297718 C12.31998208 16.02961827 10.33322341 16.03568909 8.34651375 16.04806328 C5.56921282 16.06292314 2.79313161 16.05233315 0.01586914 16.03515625 C-1.2178392 16.0496582 -1.2178392 16.0496582 -2.47647095 16.06445312 C-6.05738574 16.01802184 -8.22010389 15.84552723 -11.16285706 13.72084045 C-13.35135639 10.50690873 -13.19440521 8.32787751 -12.65234375 4.53344727 C-9.36680422 -0.28396497 -5.37439515 -0.04272457 0 0 Z " fill="#03133ccc" transform="translate(319.65234375,305.466552734375)"/>
<path d="M0 0 C1.54210144 -0.00929787 1.54210144 -0.00929787 3.11535645 -0.01878357 C5.28734388 -0.02588244 7.45938573 -0.0227066 9.63134766 -0.01000977 C12.95707128 0.00385755 16.27998274 -0.03021742 19.60546875 -0.06835938 C21.71614652 -0.06931055 23.82682782 -0.06745186 25.9375 -0.0625 C27.4298114 -0.08238731 27.4298114 -0.08238731 28.95227051 -0.10267639 C35.80515503 -0.01010101 35.80515503 -0.01010101 39.13085938 2.87915039 C40.9576301 6.5483594 40.55221587 8.66592911 39.46875 12.56640625 C37.88989034 14.62578841 36.77732577 15.41211836 34.46875 16.56640625 C33.10666828 16.67040904 31.73976839 16.715009 30.3737793 16.72753906 C29.10687508 16.74195038 29.10687508 16.74195038 27.81437683 16.75665283 C26.89981216 16.76090271 25.9852475 16.76515259 25.04296875 16.76953125 C24.10322708 16.77523132 23.16348541 16.7809314 22.19526672 16.7868042 C20.20383838 16.79626099 18.21239434 16.80279087 16.22094727 16.80664062 C13.17891987 16.81633401 10.13757151 16.84734597 7.09570312 16.87890625 C5.16146235 16.8854375 3.22721673 16.89068749 1.29296875 16.89453125 C0.38447678 16.90687805 -0.5240152 16.91922485 -1.46003723 16.9319458 C-6.28967861 16.91497481 -9.63884396 16.77163022 -13.53125 13.56640625 C-15.07711876 10.47466873 -14.82484521 7.97211073 -14.53125 4.56640625 C-11.13051468 -0.90733827 -5.77912034 -0.02881136 0 0 Z " fill="#03133ccc" transform="translate(170.53125,213.43359375)"/>
<path d="M0 0 C1.54210144 -0.00929787 1.54210144 -0.00929787 3.11535645 -0.01878357 C5.28734388 -0.02588244 7.45938573 -0.0227066 9.63134766 -0.01000977 C12.95707128 0.00385755 16.27998274 -0.03021742 19.60546875 -0.06835938 C21.71614652 -0.06931055 23.82682782 -0.06745186 25.9375 -0.0625 C27.4298114 -0.08238731 27.4298114 -0.08238731 28.95227051 -0.10267639 C35.80515503 -0.01010101 35.80515503 -0.01010101 39.13085938 2.87915039 C40.9576301 6.5483594 40.55221587 8.66592911 39.46875 12.56640625 C37.85954046 14.69960286 37.00161187 15.46887773 34.3506012 15.9540863 C33.12626625 15.96219078 33.12626625 15.96219078 31.87719727 15.97045898 C30.94935928 15.98314316 30.0215213 15.99582733 29.06556702 16.00889587 C27.56551369 16.00449242 27.56551369 16.00449242 26.03515625 16 C24.49093239 16.00786278 24.49093239 16.00786278 22.91551208 16.0158844 C20.73754783 16.02230999 18.5595489 16.0209607 16.3815918 16.01245117 C13.04738575 16.0039474 9.7148958 16.03268633 6.38085938 16.06445312 C4.26562551 16.06606534 2.15038862 16.06548722 0.03515625 16.0625 C-0.96285507 16.07373398 -1.96086639 16.08496796 -2.98912048 16.09654236 C-9.86262832 16.02728272 -9.86262832 16.02728272 -13.16040039 13.75415039 C-15.18771751 10.51874723 -15.06462892 8.30005867 -14.53125 4.56640625 C-11.09562797 -0.89674592 -5.79918527 -0.02891139 0 0 Z " fill="#03133ccc" transform="translate(334.53125,373.43359375)"/>
<path d="M0 0 C1.14082031 -0.01095703 2.28164062 -0.02191406 3.45703125 -0.03320312 C11.87264149 0.040965 11.87264149 0.040965 14.80273438 2.47680664 C16.59057562 4.6738043 17.32951387 5.74947891 17.5 8.5625 C16.753064 11.62493762 15.98699075 13.15141671 13.5703125 15.19140625 C9.06286972 17.20427192 4.8794637 16.99790602 0 16.9375 C-0.93714844 16.94910156 -1.87429687 16.96070313 -2.83984375 16.97265625 C-7.82233347 16.95145417 -11.51372108 16.91162778 -15.5 13.5625 C-16.92662219 10.70925563 -16.81033868 8.72795451 -16.5 5.5625 C-13.23692872 -1.45773536 -6.72592798 -0.14059849 0 0 Z " fill="#03133ccc" transform="translate(131.5,213.4375)"/>
<path d="M0 0 C1.14662109 -0.00515625 2.29324219 -0.0103125 3.47460938 -0.015625 C4.66763672 -0.00015625 5.86066406 0.0153125 7.08984375 0.03125 C8.28673828 0.01578125 9.48363281 0.0003125 10.71679688 -0.015625 C12.43479492 -0.00789063 12.43479492 -0.00789063 14.1875 0 C15.75963257 0.00676758 15.75963257 0.00676758 17.36352539 0.01367188 C20.02734375 0.53125 20.02734375 0.53125 21.86499023 2.34570312 C23.58531714 5.58039467 23.47734285 7.93125719 23.02734375 11.53125 C20.94102951 14.26175952 19.74890832 15.39218483 16.34179688 16.04882812 C15.34083984 16.05333984 14.33988281 16.05785156 13.30859375 16.0625 C12.21160156 16.06765625 11.11460937 16.0728125 9.984375 16.078125 C8.84355469 16.06265625 7.70273437 16.0471875 6.52734375 16.03125 C4.81611328 16.05445313 4.81611328 16.05445313 3.0703125 16.078125 C1.97332031 16.07296875 0.87632812 16.0678125 -0.25390625 16.0625 C-1.7553418 16.05573242 -1.7553418 16.05573242 -3.28710938 16.04882812 C-6.69438135 15.39215389 -7.88335719 14.2592846 -9.97265625 11.53125 C-10.47265625 8.03125 -10.47265625 8.03125 -9.97265625 4.53125 C-6.98707035 0.59560503 -4.84985832 0.0208548 0 0 Z " fill="#03133ccc" transform="translate(288.97265625,373.46875)"/>
<path d="M0 0 C1.9375 1.0625 1.9375 1.0625 3 3 C3.75471698 9.79245283 3.75471698 9.79245283 1.4375 13.5 C-1.9238388 15.56851618 -4.11959911 15.48505011 -8 15 C-10.375 13.9375 -10.375 13.9375 -12 12 C-12.87281149 8.57109774 -13.32922829 6.10740423 -12.3125 2.6875 C-8.84502924 -1.7706767 -5.21701645 -1.23311298 0 0 Z " fill="#03133ccc" transform="translate(416,67)"/>
<path d="M0 0 C1.9375 1.0625 1.9375 1.0625 3 3 C3.75471698 9.79245283 3.75471698 9.79245283 1.4375 13.5 C-1.9238388 15.56851618 -4.11959911 15.48505011 -8 15 C-10.375 13.9375 -10.375 13.9375 -12 12 C-12.87281149 8.57109774 -13.32922829 6.10740423 -12.3125 2.6875 C-8.84502924 -1.7706767 -5.21701645 -1.23311298 0 0 Z " fill="#03133ccc" transform="translate(337,67)"/>
<path d="M0 0 C1.9375 1.0625 1.9375 1.0625 3 3 C3.75471698 9.79245283 3.75471698 9.79245283 1.4375 13.5 C-1.9238388 15.56851618 -4.11959911 15.48505011 -8 15 C-10.375 13.9375 -10.375 13.9375 -12 12 C-12.87281149 8.57109774 -13.32922829 6.10740423 -12.3125 2.6875 C-8.84502924 -1.7706767 -5.21701645 -1.23311298 0 0 Z " fill="#03133ccc" transform="translate(258,67)"/>
<path d="M0 0 C1.9375 1.0625 1.9375 1.0625 3 3 C3.75471698 9.79245283 3.75471698 9.79245283 1.4375 13.5 C-1.9238388 15.56851618 -4.11959911 15.48505011 -8 15 C-10.375 13.9375 -10.375 13.9375 -12 12 C-12.87281149 8.57109774 -13.32922829 6.10740423 -12.3125 2.6875 C-8.84502924 -1.7706767 -5.21701645 -1.23311298 0 0 Z " fill="#03133ccc" transform="translate(179,67)"/>
<path d="M0 0 C4.30279717 0.06840695 4.30279717 0.06840695 6.6875 1.875 C8.2845532 6.02733832 8.2845532 9.59766168 6.6875 13.75 C3.77674319 15.9551188 1.35194231 15.7520449 -2.21875 15.74609375 C-4.86341567 15.21428598 -5.74363875 14.42926628 -7.375 12.3125 C-8.49803133 8.62253991 -8.71238847 7.00261278 -7 3.5 C-4.6057016 0.276906 -4.00142896 0.12302128 0 0 Z " fill="#03133ccc" transform="translate(389.375,373.6875)"/>
<path d="M0 0 C4.30279717 0.06840695 4.30279717 0.06840695 6.6875 1.875 C8.2845532 6.02733832 8.2845532 9.59766168 6.6875 13.75 C3.77674319 15.9551188 1.35194231 15.7520449 -2.21875 15.74609375 C-4.86341567 15.21428598 -5.74363875 14.42926628 -7.375 12.3125 C-8.49803133 8.62253991 -8.71238847 7.00261278 -7 3.5 C-4.6057016 0.276906 -4.00142896 0.12302128 0 0 Z " fill="#03133ccc" transform="translate(294.375,305.6875)"/>
<path d="M0 0 C2.44053024 1.79828544 3.63399544 3.18956132 4.875 5.9375 C5.05132235 8.84681875 4.43082215 10.46354255 3 13 C0.09651429 15.41957143 -1.32650931 16.02693963 -5.125 15.875 C-9.52810903 14.53492334 -9.52810903 14.53492334 -11 12 C-11.75471698 5.20754717 -11.75471698 5.20754717 -9.4375 1.5 C-6.05111671 -0.58392818 -3.90614682 -0.55802097 0 0 Z " fill="#03133ccc" transform="translate(229,214)"/>
<path d="M0 0 C2.44053024 1.79828544 3.63399544 3.18956132 4.875 5.9375 C5.05132235 8.84681875 4.43082215 10.46354255 3 13 C0.09651429 15.41957143 -1.32650931 16.02693963 -5.125 15.875 C-9.52810903 14.53492334 -9.52810903 14.53492334 -11 12 C-11.75471698 5.20754717 -11.75471698 5.20754717 -9.4375 1.5 C-6.05111671 -0.58392818 -3.90614682 -0.55802097 0 0 Z " fill="#03133ccc" transform="translate(134,146)"/>
</svg>
