<svg width="171" height="174" viewBox="0 0 171 174" fill="none" xmlns="http://www.w3.org/2000/svg">
<g clip-path="url(#clip0_4474_9263)">
<path d="M60.7927 112.887C45.3462 94.4889 34.4923 84.5341 11.7034 69.1196V115.555L68.595 142.509L60.7927 112.887Z" fill="white" fill-opacity="0.85"/>
<path d="M14.6294 44.5677L46.1636 60.8468C48.239 37.8899 56.983 25.6475 85.175 10.9419L14.6294 44.5677Z" fill="white" fill-opacity="0.85"/>
<path d="M159.622 115.822V69.3867C137.833 85.4326 125.639 95.2295 109.557 115.822L101.755 142.509L159.622 115.822Z" fill="white" fill-opacity="0.85"/>
<path fill-rule="evenodd" clip-rule="evenodd" d="M0 40.8313L0.975285 121.16L79.9734 157.988L85.8251 174L90.3764 157.988L170.675 120.092V40.0307L85.1749 0L0 40.8313ZM82.8992 79.2607L14.6293 44.5675L85.1749 10.9417L156.696 44.5675L87.7757 79.2607L91.6768 118.224L85.1749 124.896L79.3232 118.224L82.8992 79.2607ZM12.0285 50.9724L59.4924 95.0061L76.0722 145.979L12.0285 115.555V50.9724ZM159.622 115.555L158.646 50.9724L109.232 95.0061L94.2776 145.979L159.622 115.555Z" fill="#85B6FF"/>
<path fill-rule="evenodd" clip-rule="evenodd" d="M85.1742 74.19C97.204 74.19 106.956 66.0654 106.956 56.0427C106.956 46.0203 97.204 37.8955 85.1742 37.8955C73.1444 37.8955 63.3928 46.0203 63.3928 56.0427C63.3928 66.0654 73.1444 74.19 85.1742 74.19ZM85.1742 68.3188C93.2535 68.3188 99.8035 62.9419 99.8035 56.3096C99.8035 49.6771 93.2535 44.3004 85.1742 44.3004C77.0949 44.3004 70.5449 49.6771 70.5449 56.3096C70.5449 62.9419 77.0949 68.3188 85.1742 68.3188Z" fill="#85B6FF"/>
<path fill-rule="evenodd" clip-rule="evenodd" d="M73.4841 56.5765C73.4841 51.4133 78.6216 47.0688 85.1752 47.0688C89.5215 47.0688 93.2449 48.9797 95.2601 51.7728C95.7609 51.7739 96.2322 51.8782 96.6439 52.0613C94.5909 48.4893 90.1802 46.0688 85.1752 46.0688C78.2629 46.0688 72.4841 50.6855 72.4841 56.5765C72.4841 56.9822 72.5115 57.3818 72.5648 57.7742C72.7941 57.45 73.1132 57.1739 73.494 56.9687C73.4875 56.8386 73.4841 56.7078 73.4841 56.5765ZM97.7854 55.3777C97.5563 55.7021 97.2372 55.9785 96.8563 56.1838C96.8629 56.3141 96.8663 56.4451 96.8663 56.5765C96.8663 61.7397 91.7288 66.0842 85.1752 66.0842C80.8289 66.0842 77.1054 64.1734 75.0903 61.3802C74.5896 61.3793 74.1185 61.2751 73.7068 61.0923C75.76 64.664 80.1705 67.0842 85.1752 67.0842C92.0875 67.0842 97.8663 62.4675 97.8663 56.5765C97.8663 56.1705 97.8388 55.7705 97.7854 55.3777ZM92.9138 52.7311C91.3261 50.5572 88.4352 49.121 85.175 49.121C80.2376 49.121 76.1475 52.4151 76.1475 56.5765C76.1475 56.63 76.1481 56.6834 76.1495 56.7366C76.3287 56.7933 76.4993 56.8641 76.6595 56.9473C76.6515 56.8245 76.6475 56.7008 76.6475 56.5765C76.6475 52.779 80.417 49.621 85.175 49.621C88.3845 49.621 91.1441 51.0578 92.6005 53.1586C92.687 53.0068 92.7923 52.8636 92.9138 52.7311ZM93.6906 56.206C93.8507 56.2892 94.0214 56.3599 94.2006 56.4166C94.2019 56.4698 94.2026 56.5231 94.2026 56.5765C94.2026 60.738 90.1124 64.032 85.175 64.032C81.9146 64.032 79.0237 62.5956 77.436 60.4216C77.5575 60.289 77.6627 60.1458 77.7492 59.9939C79.2055 62.095 81.9653 63.532 85.175 63.532C89.9331 63.532 93.7026 60.3741 93.7026 56.5765C93.7026 56.4523 93.6986 56.3288 93.6906 56.206Z" fill="white" fill-opacity="0.85"/>
<path fill-rule="evenodd" clip-rule="evenodd" d="M82.249 54.9754C82.7874 54.9754 83.2243 54.6167 83.2243 54.1747C83.2243 53.7328 82.7874 53.3741 82.249 53.3741C81.7107 53.3741 81.2738 53.7328 81.2738 54.1747C81.2738 54.6167 81.7107 54.9754 82.249 54.9754ZM82.249 56.0428C82.6983 56.0428 83.1177 55.9361 83.4701 55.7514L85.6196 57.8688C85.3401 58.1789 85.1749 58.5626 85.1749 58.9784C85.1749 60.0101 86.1938 60.8465 87.4506 60.8465C88.7074 60.8465 89.7262 60.0101 89.7262 58.9784C89.7262 58.7548 89.6781 58.5408 89.591 58.3417L93.602 55.4605C94.0168 55.8192 94.6027 56.0428 95.2528 56.0428C96.5097 56.0428 97.5285 55.2065 97.5285 54.1747C97.5285 53.143 96.5097 52.3066 95.2528 52.3066C93.996 52.3066 92.9772 53.143 92.9772 54.1747C92.9772 54.2756 92.9869 54.3744 93.0058 54.4704L88.8134 57.4818C88.433 57.2486 87.9616 57.1103 87.4506 57.1103C87.1729 57.1103 86.9064 57.1514 86.6599 57.2261L84.3303 54.9311C84.4551 54.6999 84.5247 54.4437 84.5247 54.1747C84.5247 53.143 83.5059 52.3066 82.249 52.3066C80.9922 52.3066 79.9734 53.143 79.9734 54.1747C79.9734 54.4299 80.0358 54.6733 80.1483 54.8948L76.4663 57.4861C76.0852 57.2502 75.6106 57.1103 75.097 57.1103C73.8401 57.1103 72.8213 57.9467 72.8213 58.9784C72.8213 60.0101 73.8401 60.8465 75.097 60.8465C76.3538 60.8465 77.3726 60.0101 77.3726 58.9784C77.3726 58.7569 77.3258 58.5445 77.2393 58.3475L80.9721 55.7215C81.3362 55.9243 81.7757 56.0428 82.249 56.0428ZM86.4753 58.9784C86.4753 58.8631 86.5052 58.7537 86.5585 58.655L87.2237 58.1997C87.2965 58.1853 87.3725 58.1778 87.4506 58.1778C87.9889 58.1778 88.4259 58.5365 88.4259 58.9784C88.4259 59.4204 87.9889 59.779 87.4506 59.779C86.9122 59.779 86.4753 59.4204 86.4753 58.9784ZM75.097 59.779C75.6353 59.779 76.0722 59.4204 76.0722 58.9784C76.0722 58.5365 75.6353 58.1778 75.097 58.1778C74.5586 58.1778 74.1217 58.5365 74.1217 58.9784C74.1217 59.4204 74.5586 59.779 75.097 59.779ZM95.2528 54.9754C95.7912 54.9754 96.2281 54.6167 96.2281 54.1747C96.2281 53.7328 95.7912 53.3741 95.2528 53.3741C94.7145 53.3741 94.2776 53.7328 94.2776 54.1747C94.2776 54.6167 94.7145 54.9754 95.2528 54.9754Z" fill="#85B6FF"/>
</g>
<defs>
<clipPath id="clip0_4474_9263">
<rect width="171" height="174" fill="white"/>
</clipPath>
</defs>
</svg>
