<svg width="138" height="137" viewBox="0 0 138 137" fill="none" xmlns="http://www.w3.org/2000/svg">
<path d="M24.124 0.414062C23.926 0.414062 23.7267 0.417578 23.5293 0.422852C18.7873 0.550293 14.2782 2.2123 10.5288 4.89062C0.529777 12.0326 -4.27989 26.9315 5.09042 39.6719C12.4832 49.7216 9.26142 62.9913 1.61171 70.4058L5.42909 74.3333C14.8744 65.1789 18.6868 48.9153 9.50341 36.4308C1.8247 25.9908 5.8788 14.9465 13.7148 9.34961C17.633 6.55059 22.4356 5.24512 27.2734 6.2002C31.9179 7.11602 36.7466 10.0996 41.0157 16.4541L23.4742 26.6069L30.6062 38.9937C15.9877 57.727 13.3246 84.2412 25.9187 106.12C42.4677 134.87 79.0976 144.734 107.739 128.149C136.381 111.563 146.188 74.8117 129.639 46.0618C117.067 24.221 92.8976 13.288 69.4521 16.564L62.2926 4.13096L45.7583 13.6984C40.8024 6.20078 34.6097 2.06348 28.3354 0.825977C26.9484 0.552246 25.5378 0.414289 24.124 0.414062ZM73.9656 24.1809C97.3738 24.1809 116.391 43.0325 116.391 66.4416C116.391 89.8498 97.3738 108.876 73.9653 108.876C50.5568 108.876 31.7046 89.8495 31.7046 66.4416C31.7046 43.0334 50.5571 24.1809 73.9653 24.1809H73.9656ZM71.3014 31.5599V57.3968C67.4201 58.6249 64.5174 62.3157 64.5174 66.5427C64.5174 71.7358 68.9008 75.9543 74.0939 75.9543C79.0217 75.9543 83.0676 72.1551 83.4689 67.3299L105.89 51.2532L102.695 46.8036L82.1043 61.5713C80.9022 59.5867 79.0158 58.0577 76.7761 57.3687V31.5596H71.3011L71.3014 31.5599ZM58.9419 34.8745L54.1993 37.612L58.4017 44.8902L63.1448 42.1439L58.9422 34.8748L58.9419 34.8745ZM89.1361 34.8745L84.9338 42.1437L89.6761 44.8902L93.8787 37.612L89.1361 34.8745ZM45.1542 46.6577L42.4167 51.3997L49.6852 55.6021L52.423 50.8595L45.1536 46.6571L45.1542 46.6577ZM74.0936 62.4411C76.3284 62.4411 78.0306 64.3088 78.0306 66.5427C78.0306 68.7769 76.3284 70.4793 74.0942 70.4793C71.8601 70.4793 69.9927 68.7771 69.9927 66.5424C69.9927 64.3082 71.8595 62.4408 74.0942 62.4408L74.0936 62.4411ZM39.1023 63.7595V69.2342H47.4976V63.7592L39.1023 63.7595ZM100.571 63.7595V69.2342H108.975V63.7592H100.571L100.571 63.7595ZM49.6855 77.4004L42.417 81.5937L45.1539 86.3359L52.423 82.1336L49.6855 77.4004ZM98.3916 77.4004L95.6547 82.1336L102.924 86.3359L105.661 81.5934L98.3916 77.4004ZM58.4014 88.1122L54.1993 95.3813L58.9419 98.1188L63.1442 90.8491L58.4011 88.1116L58.4014 88.1122ZM89.6758 88.1122L84.9338 90.8494L89.1361 98.1188L93.8784 95.3811L89.6761 88.1116L89.6758 88.1122ZM71.3017 93.0376V101.433H76.7764V93.0379L71.3017 93.0376Z" fill="#03133C"/>
</svg>
