<svg width="31" height="31" viewBox="0 0 31 31" fill="none" xmlns="http://www.w3.org/2000/svg">
<path d="M17.5537 17.6465C16.6943 16.9141 15.7422 16.3525 14.6973 15.9619C13.6523 15.5713 12.5684 15.376 11.4453 15.376C10.5859 15.376 9.75586 15.4883 8.95508 15.7129C8.1543 15.9375 7.40723 16.25 6.71387 16.6504C6.02051 17.0508 5.39062 17.5391 4.82422 18.1152C4.25781 18.6914 3.76953 19.3262 3.35938 20.0195C2.94922 20.7129 2.63184 21.46 2.40723 22.2607C2.18262 23.0615 2.07031 23.8916 2.07031 24.751H0.195312C0.195312 23.5791 0.366211 22.4512 0.708008 21.3672C1.0498 20.2832 1.54297 19.2822 2.1875 18.3643C2.83203 17.4463 3.59375 16.6309 4.47266 15.918C5.35156 15.2051 6.34766 14.6436 7.46094 14.2334C6.35742 13.5107 5.49805 12.6025 4.88281 11.5088C4.26758 10.415 3.95508 9.2041 3.94531 7.87598C3.94531 6.84082 4.14062 5.86914 4.53125 4.96094C4.92188 4.05273 5.4541 3.25684 6.12793 2.57324C6.80176 1.88965 7.59766 1.35254 8.51562 0.961914C9.43359 0.571289 10.4102 0.375977 11.4453 0.375977C12.4805 0.375977 13.4521 0.571289 14.3604 0.961914C15.2686 1.35254 16.0645 1.88477 16.748 2.55859C17.4316 3.23242 17.9688 4.02832 18.3594 4.94629C18.75 5.86426 18.9453 6.84082 18.9453 7.87598C18.9453 8.52051 18.8672 9.15039 18.7109 9.76562C18.5547 10.3809 18.3203 10.9619 18.0078 11.5088C17.6953 12.0557 17.3291 12.5586 16.9092 13.0176C16.4893 13.4766 15.9961 13.8818 15.4297 14.2334C16.0645 14.4775 16.6699 14.7754 17.2461 15.127C17.8223 15.4785 18.3643 15.874 18.8721 16.3135L17.5537 17.6465ZM5.82031 7.87598C5.82031 8.65723 5.9668 9.38477 6.25977 10.0586C6.55273 10.7324 6.95312 11.3281 7.46094 11.8457C7.96875 12.3633 8.56445 12.7686 9.24805 13.0615C9.93164 13.3545 10.6641 13.501 11.4453 13.501C12.2168 13.501 12.9443 13.3545 13.6279 13.0615C14.3115 12.7686 14.9072 12.3682 15.415 11.8604C15.9229 11.3525 16.3281 10.7568 16.6309 10.0732C16.9336 9.38965 17.0801 8.65723 17.0703 7.87598C17.0703 7.10449 16.9238 6.37695 16.6309 5.69336C16.3379 5.00977 15.9375 4.41406 15.4297 3.90625C14.9219 3.39844 14.3213 2.99316 13.6279 2.69043C12.9346 2.3877 12.207 2.24121 11.4453 2.25098C10.6641 2.25098 9.93652 2.39746 9.2627 2.69043C8.58887 2.9834 7.99316 3.38379 7.47559 3.8916C6.95801 4.39941 6.55273 5 6.25977 5.69336C5.9668 6.38672 5.82031 7.11426 5.82031 7.87598ZM25.5078 11.626C26.1523 11.626 26.7578 11.748 27.3242 11.9922C27.8906 12.2363 28.3838 12.5732 28.8037 13.0029C29.2236 13.4326 29.5605 13.9307 29.8145 14.4971C30.0684 15.0635 30.1953 15.6689 30.1953 16.3135C30.1953 16.958 30.0732 17.5635 29.8291 18.1299C29.585 18.6963 29.248 19.1943 28.8184 19.624C28.3887 20.0537 27.8906 20.3906 27.3242 20.6348C26.7578 20.8789 26.1523 21.001 25.5078 21.001C25.2832 21.001 25.0635 20.9863 24.8486 20.957L16.25 29.5557C15.9863 29.8193 15.6836 30.0195 15.3418 30.1562C15 30.293 14.6387 30.3662 14.2578 30.376C13.8672 30.376 13.501 30.3027 13.1592 30.1562C12.8174 30.0098 12.5195 29.8096 12.2656 29.5557C12.0117 29.3018 11.8115 29.0039 11.665 28.6621C11.5186 28.3203 11.4453 27.9541 11.4453 27.5635C11.4453 27.1924 11.5137 26.8359 11.6504 26.4941C11.7871 26.1523 11.9922 25.8447 12.2656 25.5713L20.8643 16.9727C20.835 16.7578 20.8203 16.5381 20.8203 16.3135C20.8203 15.6689 20.9424 15.0635 21.1865 14.4971C21.4307 13.9307 21.7627 13.4375 22.1826 13.0176C22.6025 12.5977 23.1006 12.2607 23.6768 12.0068C24.2529 11.7529 24.8633 11.626 25.5078 11.626ZM25.5078 19.126C25.8984 19.126 26.2646 19.0527 26.6064 18.9062C26.9482 18.7598 27.2461 18.5596 27.5 18.3057C27.7539 18.0518 27.9541 17.7539 28.1006 17.4121C28.2471 17.0703 28.3203 16.7041 28.3203 16.3135C28.3203 15.9131 28.2275 15.5127 28.042 15.1123L25.9033 17.251H24.5703V15.918L26.709 13.7793C26.3086 13.5938 25.9082 13.501 25.5078 13.501C25.1172 13.501 24.751 13.5742 24.4092 13.7207C24.0674 13.8672 23.7695 14.0674 23.5156 14.3213C23.2617 14.5752 23.0615 14.873 22.915 15.2148C22.7686 15.5566 22.6953 15.9229 22.6953 16.3135C22.6953 16.7139 22.7881 17.1143 22.9736 17.5146L13.5986 26.9043C13.4131 27.0898 13.3203 27.3096 13.3203 27.5635C13.3203 27.8174 13.4131 28.0371 13.5986 28.2227C13.7842 28.4082 14.0039 28.501 14.2578 28.501C14.5117 28.501 14.7314 28.4082 14.917 28.2227L24.3066 18.8477C24.707 19.0332 25.1074 19.126 25.5078 19.126Z" fill="#101010"/>
</svg>
