<svg width="33" height="34" viewBox="0 0 33 34" fill="none" xmlns="http://www.w3.org/2000/svg">
<path d="M4.59896 16.7812H1.26562L16.2656 1.78125L31.2656 16.7812H27.9323M4.59896 16.7812V28.4479C4.59896 29.332 4.95015 30.1798 5.57527 30.8049C6.20039 31.4301 7.04824 31.7812 7.93229 31.7812H24.599C25.483 31.7812 26.3309 31.4301 26.956 30.8049C27.5811 30.1798 27.9323 29.332 27.9323 28.4479V16.7812" stroke="#101010" stroke-width="2.5" stroke-linecap="round" stroke-linejoin="round"/>
<path d="M11.2656 31.7813V21.7813C11.2656 20.8973 11.6168 20.0494 12.2419 19.4243C12.8671 18.7992 13.7149 18.448 14.599 18.448H17.9323C18.8163 18.448 19.6642 18.7992 20.2893 19.4243C20.9144 20.0494 21.2656 20.8973 21.2656 21.7813V31.7813" stroke="#101010" stroke-width="2.5" stroke-linecap="round" stroke-linejoin="round"/>
</svg>
