<svg width="30" height="30" viewBox="0 0 30 30" fill="none" xmlns="http://www.w3.org/2000/svg">
<path d="M20.7579 0V1.62449C19.8107 1.78717 18.9112 2.15726 18.1238 2.70826L16.9316 1.58752L15.3431 3.28596L16.4984 4.36857C15.9699 5.13887 15.6126 6.01351 15.4506 6.93356H13.8262V9.24437H15.4506C15.6192 10.2034 15.9982 11.0768 16.5342 11.844L15.3061 13.0341L16.9697 14.6979L18.1597 13.4685C18.9268 14.0046 19.8001 14.3836 20.759 14.5523V16.1756H23.0695V14.5511C23.9894 14.3895 24.864 14.0325 25.6342 13.5043L26.7156 14.6597L28.4138 13.0699L27.2932 11.8798C27.8362 11.1057 28.2059 10.2103 28.3768 9.24321H30V6.93241H28.3757C28.2094 5.99689 27.8395 5.10938 27.2921 4.33276L28.3757 3.24899L26.7502 1.62449L25.6677 2.70826C24.8912 2.16079 24.0038 1.7908 23.0684 1.62449V0H20.7579ZM21.9131 3.82785C22.4736 3.82416 23.0292 3.93183 23.5477 4.14459C24.0662 4.35736 24.5373 4.67098 24.9336 5.06728C25.33 5.46357 25.6437 5.93464 25.8566 6.45316C26.0695 6.97167 26.1773 7.5273 26.1738 8.08781C26.1738 10.4622 24.2872 12.3489 21.9131 12.3489C19.539 12.3489 17.6525 10.4622 17.6525 8.08781C17.6525 5.71346 19.539 3.82785 21.9131 3.82785ZM6.9293 10.6505L4.80129 11.517L5.63078 13.6083C4.5266 14.2692 3.59777 15.1862 2.92283 16.2819L0.866451 15.45L0 17.5817L2.05638 18.4113C1.89408 19.0363 1.80949 19.679 1.80453 20.3247C1.80453 20.9832 1.90273 21.6256 2.05638 22.238L0 23.0699L0.866451 25.1993L2.92283 24.3674C3.59161 25.4775 4.52115 26.4075 5.63078 27.0768L4.79898 29.1334L6.93045 30L7.76225 27.9434C8.38709 28.1061 9.0297 28.1907 9.67537 28.1953C10.3339 28.1953 10.9785 28.0971 11.5885 27.9434L12.4203 30L14.5494 29.1334L13.7177 27.0768C14.814 26.4028 15.7311 25.4736 16.3909 24.3686L18.482 25.1982L19.3484 23.0687L17.2574 22.2369C17.4076 21.6245 17.5092 20.9809 17.5092 20.3235C17.5092 19.6649 17.4087 19.0202 17.2551 18.409L19.3496 17.5794L18.4831 15.4477L16.3921 16.2796C15.7285 15.1867 14.8116 14.2697 13.7188 13.606L14.5506 11.5147L12.4191 10.6482L11.5908 12.7395C10.9653 12.5782 10.3224 12.494 9.67653 12.4887C9.01802 12.4887 8.37569 12.5881 7.7634 12.7406L6.93161 10.6493L6.9293 10.6505ZM9.67422 14.8007C12.7507 14.8007 15.1964 17.2501 15.1964 20.3258C15.1987 23.4027 12.7507 25.8856 9.67422 25.8856C8.94392 25.8865 8.22062 25.7433 7.54574 25.4643C6.87086 25.1852 6.25766 24.7757 5.74127 24.2592C5.22487 23.7428 4.81542 23.1295 4.53637 22.4545C4.25732 21.7796 4.11415 21.0562 4.11506 20.3258C4.11506 17.249 6.59889 14.8007 9.67422 14.8007Z" fill="#101010"/>
</svg>
