<svg width="31" height="30" viewBox="0 0 31 30" fill="none" xmlns="http://www.w3.org/2000/svg">
<path d="M28.7223 2.78834e-05H19.1768C18.3961 -0.00316332 17.6392 0.267657 17.0384 0.765102C16.4376 1.26255 16.0313 1.95493 15.8905 2.72111L14.6359 9.59185C14.5492 10.0705 14.569 10.5624 14.6939 11.0326C14.8188 11.5028 15.0457 11.9399 15.3587 12.3129C15.6733 12.6861 16.0656 12.9866 16.5083 13.1933C16.951 13.4001 17.4335 13.5082 17.9223 13.5102H21.9041L21.5632 14.4082C21.3115 15.074 21.2241 15.7904 21.3083 16.4971C21.3925 17.2037 21.6459 17.8797 22.0471 18.4681C22.4482 19.0564 22.9854 19.5398 23.6132 19.8775C24.241 20.2152 24.941 20.3972 25.6541 20.4082C25.9187 20.4102 26.1783 20.3355 26.401 20.1929C26.6238 20.0504 26.8002 19.8463 26.9087 19.6054L29.9632 12.7211C30.0328 12.5711 30.0744 12.4098 30.0859 12.2449V1.36057C30.0859 0.999732 29.9423 0.653672 29.6865 0.398521C29.4308 0.14337 29.084 2.78834e-05 28.7223 2.78834e-05ZM27.3587 11.8776L24.8632 17.4966C24.6197 17.3644 24.4097 17.1782 24.2496 16.9524C24.0891 16.7257 23.9876 16.4628 23.9543 16.1873C23.921 15.9118 23.9568 15.6324 24.0587 15.3742L24.5768 14.0136C24.7132 13.6607 24.7596 13.2797 24.712 12.9045C24.6644 12.5293 24.5243 12.1718 24.3041 11.864C24.0873 11.5573 23.799 11.3079 23.464 11.1372C23.129 10.9665 22.7575 10.8798 22.3814 10.8844H17.895C17.8044 10.8846 17.7149 10.8653 17.6325 10.8277C17.5501 10.7901 17.4768 10.7352 17.4178 10.6667C17.3119 10.5216 17.2678 10.3407 17.295 10.1633L18.5496 3.36057C18.5437 3.27624 18.5558 3.19164 18.5851 3.11231C18.6143 3.03299 18.6601 2.96075 18.7193 2.90034C18.7786 2.83993 18.85 2.79273 18.9289 2.76184C19.0077 2.73095 19.0922 2.71707 19.1768 2.72111H27.3587V11.8776ZM12.2768 16.3946H8.33594L8.67685 15.4966C8.92489 14.8269 9.00723 14.1073 8.91687 13.3991C8.82651 12.6908 8.56612 12.0148 8.15782 11.4285C7.74953 10.8421 7.2054 10.3628 6.57167 10.0312C5.93794 9.69961 5.23334 9.52555 4.51776 9.52382C4.25313 9.52173 3.99361 9.59652 3.77085 9.73905C3.54808 9.88159 3.3717 10.0857 3.26321 10.3265L0.208665 17.2109C0.130522 17.3819 0.0887347 17.5672 0.0859375 17.7551V28.6394C0.0859375 29.0003 0.229606 29.3463 0.485337 29.6015C0.741069 29.8566 1.08792 30 1.44957 30H10.995C11.7757 30.0032 12.5327 29.7323 13.1335 29.2349C13.7343 28.7375 14.1406 28.0451 14.2814 27.2789L15.5359 20.4762C15.6226 19.9975 15.6029 19.5056 15.478 19.0354C15.3531 18.5652 15.1261 18.1281 14.8132 17.7551C14.5175 17.3554 14.1367 17.026 13.6981 16.7907C13.2595 16.5555 12.7741 16.4202 12.2768 16.3946ZM11.6223 26.7075C11.5989 26.854 11.5217 26.9867 11.4058 27.0797C11.2899 27.1727 11.1435 27.2195 10.995 27.2109H2.81321V18.0544L5.30866 12.4354C5.55222 12.5676 5.76214 12.7538 5.9223 12.9796C6.08278 13.2062 6.18425 13.4692 6.21757 13.7446C6.2509 14.0201 6.21503 14.2996 6.11321 14.5578L5.59503 15.9184C5.45871 16.2712 5.41227 16.6523 5.45986 17.0275C5.50746 17.4027 5.64761 17.7602 5.86776 18.068C6.0815 18.3797 6.3685 18.6344 6.70366 18.8099C7.03883 18.9854 7.41197 19.0764 7.79048 19.0748H12.2768C12.3674 19.0746 12.457 19.0939 12.5394 19.1315C12.6218 19.1691 12.695 19.224 12.7541 19.2925C12.86 19.4376 12.9041 19.6185 12.8768 19.7959L11.6223 26.7075Z" fill="#101010"/>
</svg>
