<svg width="31" height="31" viewBox="0 0 31 31" fill="none" xmlns="http://www.w3.org/2000/svg">
<path d="M13.0525 0.719971H21.624V3.57595H13.0525V0.719971ZM27.3654 9.84341L29.414 7.79567L27.394 5.77649L25.3468 7.8228C23.1039 6.02612 20.3227 5.03359 17.4485 5.00407C14.5744 4.97456 11.7734 5.90977 9.49398 7.66001L11.5225 9.71632C13.2174 8.51304 15.2437 7.86448 17.3225 7.85993L17.3368 7.86136V17.8287L24.4125 24.9087C23.0157 26.3116 21.2337 27.2684 19.2923 27.6579C17.3509 28.0474 15.3376 27.8522 13.5073 27.0968C11.6771 26.3415 10.1123 25.0601 9.01126 23.415C7.91024 21.7699 7.32251 19.8352 7.32255 17.8559H11.6083L5.89397 12.1439L0.179688 17.8559H4.4654C4.46346 19.9096 4.95389 21.9338 5.89563 23.759C6.83737 25.5843 8.20298 27.1573 9.87806 28.3464C11.5531 29.5355 13.4889 30.3061 15.5232 30.5935C17.5575 30.8809 19.6311 30.6768 21.5702 29.9983C23.5094 29.3198 25.2577 28.1867 26.6686 26.6939C28.0795 25.201 29.1119 23.3919 29.6794 21.4181C30.247 19.4444 30.333 17.3634 29.9304 15.3495C29.5278 13.3357 28.6482 11.4476 27.3654 9.84341Z" fill="#101010"/>
</svg>
