<svg width="24" height="30" viewBox="0 0 24 30" fill="none" xmlns="http://www.w3.org/2000/svg">
<path d="M14.6666 2.02606V7.53345C14.6666 8.28019 14.6666 8.65355 14.8119 8.93877C14.9397 9.18965 15.1437 9.39363 15.3946 9.52146C15.6798 9.66678 16.0532 9.66678 16.7999 9.66678H22.3073M17.3333 16.3334H6.66658M17.3333 21.6667H6.66658M9.33325 11H6.66658M14.6666 1.66669H7.73325C5.49304 1.66669 4.37294 1.66669 3.51729 2.10266C2.76464 2.48615 2.15272 3.09808 1.76923 3.85073C1.33325 4.70637 1.33325 5.82648 1.33325 8.06669V21.9334C1.33325 24.1736 1.33325 25.2937 1.76923 26.1493C2.15272 26.902 2.76464 27.5139 3.51729 27.8974C4.37294 28.3334 5.49304 28.3334 7.73325 28.3334H16.2666C18.5068 28.3334 19.6269 28.3334 20.4825 27.8974C21.2352 27.5139 21.8471 26.902 22.2306 26.1493C22.6666 25.2937 22.6666 24.1736 22.6666 21.9334V9.66669L14.6666 1.66669Z" stroke="#101010" stroke-width="2" stroke-linecap="round" stroke-linejoin="round"/>
</svg>
