<svg width="30" height="30" viewBox="0 0 30 30" fill="none" xmlns="http://www.w3.org/2000/svg">
<path d="M19.3867 29.9977H19.287C18.9216 29.9757 18.5736 29.8331 18.2973 29.5924C18.0211 29.3516 17.8319 29.0261 17.7594 28.6664L15.2022 16.0687C15.1371 15.7489 14.9796 15.4553 14.7493 15.2245C14.5191 14.9937 14.2261 14.8359 13.907 14.7706L1.33703 12.2078C0.977485 12.1362 0.651672 11.9475 0.410398 11.6709C0.169123 11.3943 0.0259496 11.0455 0.0032016 10.6788C-0.0195464 10.3121 0.0794102 9.94822 0.284641 9.64381C0.489871 9.33941 0.78984 9.11162 1.13777 8.99597L27.7058 0.125969C28.004 0.00255929 28.3316 -0.0311047 28.6486 0.0290923C28.9656 0.0892892 29.2583 0.240739 29.4908 0.46493C29.7233 0.689121 29.8856 0.976341 29.9578 1.29148C30.0301 1.60663 30.0092 1.93604 29.8976 2.23946L21.0472 28.8661C20.9316 29.2106 20.7068 29.5076 20.4069 29.712C20.1071 29.9163 19.7488 30.0167 19.3867 29.9977Z" fill="#101010"/>
</svg>
