<?xml version="1.0" encoding="UTF-8"?>
<svg version="1.1" xmlns="http://www.w3.org/2000/svg" width="512" height="512">
<path d="M0 0 C1.81449807 -0.00571013 3.62899256 -0.01267687 5.44348145 -0.02079773 C10.34854947 -0.03867394 15.25343805 -0.03757111 20.1585288 -0.03185534 C24.26367471 -0.02875523 28.36878657 -0.03486513 32.47392762 -0.04089409 C42.16396258 -0.05491976 51.85390935 -0.05339456 61.54394531 -0.04199219 C71.51761441 -0.0305149 81.49101448 -0.04458462 91.46464813 -0.07138866 C100.04927419 -0.09359006 108.63381607 -0.10017298 117.21846879 -0.09431225 C122.33618053 -0.09095185 127.4537199 -0.09329649 132.57140732 -0.11056328 C137.38638555 -0.12610108 142.20096722 -0.12200144 147.01593018 -0.10325813 C148.77503512 -0.099591 150.5341699 -0.10262549 152.29324722 -0.11314392 C167.19252097 -0.19537865 180.59137679 2.02591741 192.15673828 12.34545898 C193.81683581 13.99224911 195.42326058 15.66067061 196.98095703 17.40405273 C200.02742482 16.04115925 202.09849717 14.47381629 204.48095703 12.15405273 C213.18415812 4.36184092 224.16066796 0.08475354 235.80326843 0.1366272 C236.93885082 0.12983053 236.93885082 0.12983053 238.09737426 0.12289655 C240.61812063 0.1103005 243.1386496 0.11186981 245.65942383 0.11352539 C247.47347794 0.10753705 249.28752952 0.1007308 251.10157776 0.09317017 C256.01918119 0.07553179 260.93671498 0.07081563 265.85434699 0.06953859 C268.93080156 0.06811494 272.00723854 0.06384124 275.08368874 0.05854416 C285.8283462 0.04004938 296.5729541 0.03187265 307.31762695 0.03344727 C317.31337572 0.03464775 327.30890825 0.01356215 337.30460232 -0.01804006 C345.90189775 -0.04424679 354.49912275 -0.05491815 363.09645778 -0.05364192 C368.22428641 -0.05313348 373.35192289 -0.05875103 378.47971153 -0.07999802 C383.30694446 -0.09945396 388.13380342 -0.0994548 392.96105003 -0.08496475 C394.72499644 -0.08288449 396.48896671 -0.08753047 398.25287247 -0.09968567 C414.76773174 -0.20604864 428.15604353 3.1088923 440.73095703 14.59155273 C452.75134151 27.47879186 454.43272211 41.67335437 454.38500977 58.4230957 C454.3907199 60.23759378 454.39768663 62.05208826 454.4058075 63.86657715 C454.42368371 68.77164517 454.42258087 73.67653375 454.41686511 78.58162451 C454.413765 82.68677042 454.4198749 86.79188227 454.42590386 90.89702332 C454.43992952 100.58705829 454.43840432 110.27700505 454.42700195 119.96704102 C454.41552467 129.94071011 454.42959439 139.91411018 454.45639843 149.88774383 C454.47859983 158.47236989 454.48518275 167.05691178 454.47932202 175.64156449 C454.47596162 180.75927624 454.47830626 185.8768156 454.49557304 190.99450302 C454.51111084 195.80948125 454.50701121 200.62406293 454.4882679 205.43902588 C454.48460077 207.19813083 454.48763526 208.9572656 454.49815369 210.71634293 C454.58427334 226.31948668 451.89219227 239.32285226 441.19580078 251.42358398 C439.83580229 252.79644298 438.41558975 254.10938418 436.98095703 255.40405273 C438.34385052 258.45052053 439.91119348 260.52159287 442.23095703 262.90405273 C450.02316885 271.60725382 454.30025622 282.58376366 454.24838257 294.22636414 C454.25291368 294.98341906 454.25744479 295.74047398 454.26211321 296.52046996 C454.27470927 299.04121633 454.27313996 301.5617453 454.27148438 304.08251953 C454.27747272 305.89657365 454.28427897 307.71062522 454.2918396 309.52467346 C454.30947798 314.4422769 454.31419414 319.35981068 454.31547117 324.27744269 C454.31689482 327.35389726 454.32116853 330.43033425 454.32646561 333.50678444 C454.34496039 344.2514419 454.35313711 354.9960498 454.3515625 365.74072266 C454.35036201 375.73647143 454.37144761 385.73200395 454.40304983 395.72769803 C454.42925655 404.32499345 454.43992792 412.92221845 454.43865168 421.51955348 C454.43814324 426.64738212 454.4437608 431.77501859 454.46500778 436.90280724 C454.48446372 441.73004016 454.48446456 446.55689912 454.46997452 451.38414574 C454.46789426 453.14809215 454.47254023 454.91206241 454.48469543 456.67596817 C454.5910584 473.19082744 451.27611746 486.57913924 439.79345703 499.15405273 C426.90621791 511.17443721 412.7116554 512.85581782 395.96191406 512.80810547 C394.14741599 512.8138156 392.3329215 512.82078234 390.51843262 512.8289032 C385.6133646 512.84677941 380.70847601 512.84567657 375.80338526 512.83996081 C371.69823935 512.8368607 367.5931275 512.8429706 363.48798645 512.84899956 C353.79795148 512.86302523 344.10800471 512.86150003 334.41796875 512.85009766 C324.44429965 512.83862037 314.47089959 512.85269009 304.49726593 512.87949413 C295.91263988 512.90169553 287.32809799 512.90827845 278.74344528 512.90241772 C273.62573353 512.89905732 268.50819416 512.90140196 263.39050674 512.91866875 C258.57552851 512.93420655 253.76094684 512.93010691 248.94598389 512.9113636 C247.18687894 512.90769647 245.42774416 512.91073096 243.66866684 512.92124939 C228.06552309 513.00736904 215.06215751 510.31528797 202.96142578 499.61889648 C201.58856679 498.258898 200.27562558 496.83868545 198.98095703 495.40405273 C195.93448924 496.76694622 193.8634169 498.33428918 191.48095703 500.65405273 C182.77775594 508.44626455 171.8012461 512.72335193 160.15864563 512.67147827 C159.40159071 512.67600938 158.64453578 512.6805405 157.8645398 512.68520892 C155.34379344 512.69780497 152.82326446 512.69623566 150.30249023 512.69458008 C148.48843612 512.70056842 146.67438455 512.70737467 144.8603363 512.7149353 C139.94273287 512.73257368 135.02519908 512.73728984 130.10756707 512.73856688 C127.0311125 512.73999052 123.95467552 512.74426423 120.87822533 512.74956131 C110.13356786 512.76805609 99.38895996 512.77623282 88.64428711 512.7746582 C78.64853834 512.77345772 68.65300582 512.79454332 58.65731174 512.82614553 C50.06001631 512.85235226 41.46279131 512.86302362 32.86545628 512.86174738 C27.73762765 512.86123894 22.60999117 512.8668565 17.48220253 512.88810349 C12.6549696 512.90755943 7.82811064 512.90756027 3.00086403 512.89307022 C1.23691762 512.89098996 -0.52705265 512.89563594 -2.2909584 512.90779114 C-18.80581767 513.0141541 -32.19412947 509.69921317 -44.76904297 498.21655273 C-56.78942744 485.32931361 -58.47080805 471.1347511 -58.4230957 454.38500977 C-58.42880583 452.57051169 -58.43577257 450.75601721 -58.44389343 448.94152832 C-58.46176965 444.0364603 -58.46066681 439.13157172 -58.45495105 434.22648096 C-58.45185093 430.12133505 -58.45796084 426.0162232 -58.46398979 421.91108215 C-58.47801546 412.22104718 -58.47649026 402.53110041 -58.46508789 392.84106445 C-58.45361061 382.86739536 -58.46768033 372.89399529 -58.49448436 362.92036164 C-58.51668577 354.33573558 -58.52326869 345.75119369 -58.51740795 337.16654098 C-58.51404756 332.04882923 -58.5163922 326.93128986 -58.53365898 321.81360245 C-58.54919678 316.99862422 -58.54509715 312.18404254 -58.52635384 307.36907959 C-58.5226867 305.60997464 -58.5257212 303.85083986 -58.53623962 302.09176254 C-58.61847435 287.1924888 -56.3971783 273.79363297 -46.07763672 262.22827148 C-44.43084659 260.56817396 -42.76242509 258.96174919 -41.01904297 257.40405273 C-42.38193645 254.35758494 -43.94927942 252.2865126 -46.26904297 249.90405273 C-54.06125479 241.20085165 -58.33834216 230.2243418 -58.28646851 218.58174133 C-58.29099962 217.82468641 -58.29553073 217.06763149 -58.30019915 216.28763551 C-58.31279521 213.76688914 -58.31122589 211.24636017 -58.30957031 208.72558594 C-58.31555866 206.91153182 -58.32236491 205.09748025 -58.32992554 203.28343201 C-58.34756391 198.36582857 -58.35228007 193.44829479 -58.35355711 188.53066278 C-58.35498076 185.45420821 -58.35925446 182.37777122 -58.36455154 179.30132103 C-58.38304633 168.55666357 -58.39122305 157.81205567 -58.38964844 147.06738281 C-58.38844795 137.07163404 -58.40953355 127.07610152 -58.44113576 117.08040744 C-58.46734249 108.48311202 -58.47801385 99.88588702 -58.47673762 91.28855199 C-58.47622918 86.16072335 -58.48184673 81.03308688 -58.50309372 75.90529823 C-58.52254966 71.07806531 -58.5225505 66.25120635 -58.50806046 61.42395973 C-58.5059802 59.66001332 -58.51062617 57.89604305 -58.52278137 56.1321373 C-58.62914434 39.61727803 -55.3142034 26.22896623 -43.83154297 13.65405273 C-30.94430384 1.63366826 -16.74974134 -0.04771235 0 0 Z M-30.33154297 30.65405273 C-36.68302239 38.76983199 -38.13864747 47.3386492 -38.15275574 57.48054504 C-38.15502129 58.15734005 -38.15728685 58.83413506 -38.15962106 59.53143901 C-38.165909 61.78041721 -38.16513507 64.02933434 -38.16430664 66.27832031 C-38.16730139 67.89857561 -38.17070464 69.5188302 -38.17448425 71.13908386 C-38.18329637 75.52763441 -38.18566119 79.91616544 -38.18630004 84.30472398 C-38.18701213 87.05015848 -38.18914946 89.79558807 -38.19179726 92.54102135 C-38.20104147 102.12923878 -38.2051333 111.71744233 -38.2043457 121.30566406 C-38.20374517 130.22666115 -38.21429466 139.14759772 -38.23008937 148.06857949 C-38.24318822 155.7418524 -38.24852861 163.41510558 -38.24789029 171.08838958 C-38.247636 175.66500999 -38.25044946 180.24157659 -38.26106834 184.81818581 C-38.27078886 189.1249542 -38.27080153 193.43161776 -38.26355171 197.73838997 C-38.26251077 199.31289067 -38.26483941 200.88739803 -38.27091217 202.46188736 C-38.31633983 215.06287226 -38.27626757 227.27813292 -29.45263672 237.15795898 C-21.2528917 244.74890623 -11.85905305 246.52257969 -0.94255066 246.5377655 C-0.26575565 246.54003106 0.41103936 246.54229662 1.1083433 246.54463083 C3.35732151 246.55091877 5.60623864 246.55014484 7.85522461 246.54931641 C9.47547991 246.55231115 11.0957345 246.55571441 12.71598816 246.55949402 C17.10453871 246.56830614 21.49306974 246.57067096 25.88162827 246.5713098 C28.62706278 246.57202189 31.37249236 246.57415922 34.11792564 246.57680702 C43.70614307 246.58605123 53.29434662 246.59014307 62.88256836 246.58935547 C71.80356544 246.58875493 80.72450201 246.59930442 89.64548379 246.61509913 C97.3187567 246.62819799 104.99200988 246.63353838 112.66529387 246.63290006 C117.24191428 246.63264576 121.81848088 246.63545923 126.3950901 246.64607811 C130.70185849 246.65579863 135.00852206 246.65581129 139.31529427 246.64856148 C140.88979496 246.64752054 142.46430233 246.64984917 144.03879166 246.65592194 C156.63977656 246.7013496 168.85503722 246.66127733 178.73486328 237.83764648 C187.4709129 228.40096131 187.561723 218.19322142 187.49853516 206.00170898 C187.50396178 204.24160179 187.51108747 202.48149915 187.51977539 200.72140503 C187.53794741 195.96104074 187.53096658 191.20102481 187.51825905 186.44065475 C187.50809958 181.44805748 187.51753289 176.45548912 187.52380371 171.46289062 C187.53107155 163.08026805 187.5215151 154.69778666 187.50244141 146.31518555 C187.48067435 136.63741141 187.48772633 126.95997441 187.50974703 117.28220844 C187.52792565 108.95835907 187.53044731 100.63461092 187.51999235 92.3107481 C187.51377096 87.34570989 187.51288445 82.38082991 187.52613831 77.415802 C187.53773206 72.74692201 187.5296069 68.07847474 187.50656128 63.40964127 C187.50129298 61.70088544 187.50275564 59.9920929 187.51161194 58.2833519 C187.56615045 46.68750938 186.71211806 37.76205917 178.55126953 28.90405273 C170.71866188 21.42215886 161.33291622 20.28484686 150.90446472 20.27033997 C150.22766971 20.26807441 149.55087471 20.26580885 148.85357076 20.26347464 C146.60459256 20.2571867 144.35567543 20.25796063 142.10668945 20.25878906 C140.48643415 20.25579432 138.86617956 20.25239106 137.2459259 20.24861145 C132.85737536 20.23979933 128.46884433 20.23743451 124.08028579 20.23679566 C121.33485128 20.23608358 118.5894217 20.23394625 115.84398842 20.23129845 C106.25577099 20.22205423 96.66756744 20.2179624 87.0793457 20.21875 C78.15834862 20.21935054 69.23741205 20.20880105 60.31643027 20.19300634 C52.64315737 20.17990748 44.96990418 20.17456709 37.29662019 20.17520541 C32.71999978 20.17545971 28.14343318 20.17264624 23.56682396 20.16202736 C19.26005557 20.15230684 14.953392 20.15229418 10.6466198 20.15954399 C9.0721191 20.16058493 7.49761174 20.1582563 5.92312241 20.15218353 C-7.40860598 20.10412148 -20.65909357 20.20586804 -30.33154297 30.65405273 Z M215.10595703 31.21655273 C208.7955027 38.98776039 207.86089349 47.66863864 207.84724426 57.48054504 C207.84497871 58.15734005 207.84271315 58.83413506 207.84037894 59.53143901 C207.834091 61.78041721 207.83486493 64.02933434 207.83569336 66.27832031 C207.83269861 67.89857561 207.82929536 69.5188302 207.82551575 71.13908386 C207.81670363 75.52763441 207.81433881 79.91616544 207.81369996 84.30472398 C207.81298787 87.05015848 207.81085054 89.79558807 207.80820274 92.54102135 C207.79895853 102.12923878 207.7948667 111.71744233 207.7956543 121.30566406 C207.79625483 130.22666115 207.78570534 139.14759772 207.76991063 148.06857949 C207.75681178 155.7418524 207.75147139 163.41510558 207.75210971 171.08838958 C207.752364 175.66500999 207.74955054 180.24157659 207.73893166 184.81818581 C207.72921114 189.1249542 207.72919847 193.43161776 207.73644829 197.73838997 C207.73748923 199.31289067 207.73516059 200.88739803 207.72908783 202.46188736 C207.68366017 215.06287226 207.72373243 227.27813292 216.54736328 237.15795898 C224.7471083 244.74890623 234.14094695 246.52257969 245.05744934 246.5377655 C245.73424435 246.54003106 246.41103936 246.54229662 247.1083433 246.54463083 C249.35732151 246.55091877 251.60623864 246.55014484 253.85522461 246.54931641 C255.47547991 246.55231115 257.0957345 246.55571441 258.71598816 246.55949402 C263.10453871 246.56830614 267.49306974 246.57067096 271.88162827 246.5713098 C274.62706278 246.57202189 277.37249236 246.57415922 280.11792564 246.57680702 C289.70614307 246.58605123 299.29434662 246.59014307 308.88256836 246.58935547 C317.80356544 246.58875493 326.72450201 246.59930442 335.64548379 246.61509913 C343.3187567 246.62819799 350.99200988 246.63353838 358.66529387 246.63290006 C363.24191428 246.63264576 367.81848088 246.63545923 372.3950901 246.64607811 C376.70185849 246.65579863 381.00852206 246.65581129 385.31529427 246.64856148 C386.88979496 246.64752054 388.46430233 246.64984917 390.03879166 246.65592194 C402.63977656 246.7013496 414.85503722 246.66127733 424.73486328 237.83764648 C433.4709129 228.40096131 433.561723 218.19322142 433.49853516 206.00170898 C433.50396178 204.24160179 433.51108747 202.48149915 433.51977539 200.72140503 C433.53794741 195.96104074 433.53096658 191.20102481 433.51825905 186.44065475 C433.50809958 181.44805748 433.51753289 176.45548912 433.52380371 171.46289062 C433.53107155 163.08026805 433.5215151 154.69778666 433.50244141 146.31518555 C433.48067435 136.63741141 433.48772633 126.95997441 433.50974703 117.28220844 C433.52792565 108.95835907 433.53044731 100.63461092 433.51999235 92.3107481 C433.51377096 87.34570989 433.51288445 82.38082991 433.52613831 77.415802 C433.53773206 72.74692201 433.5296069 68.07847474 433.50656128 63.40964127 C433.50129298 61.70088544 433.50275564 59.9920929 433.51161194 58.2833519 C433.56615045 46.68750938 432.71211806 37.76205917 424.55126953 28.90405273 C416.71866188 21.42215886 407.33291622 20.28484686 396.90446472 20.27033997 C396.22766971 20.26807441 395.55087471 20.26580885 394.85357076 20.26347464 C392.60459256 20.2571867 390.35567543 20.25796063 388.10668945 20.25878906 C386.48643415 20.25579432 384.86617956 20.25239106 383.2459259 20.24861145 C378.85737536 20.23979933 374.46884433 20.23743451 370.08028579 20.23679566 C367.33485128 20.23608358 364.5894217 20.23394625 361.84398842 20.23129845 C352.25577099 20.22205423 342.66756744 20.2179624 333.0793457 20.21875 C324.15834862 20.21935054 315.23741205 20.20880105 306.31643027 20.19300634 C298.64315737 20.17990748 290.96990418 20.17456709 283.29662019 20.17520541 C278.71999978 20.17545971 274.14343318 20.17264624 269.56682396 20.16202736 C265.26005557 20.15230684 260.953392 20.15229418 256.6466198 20.15954399 C255.0721191 20.16058493 253.49761174 20.1582563 251.92312241 20.15218353 C237.97031741 20.10188244 225.19452052 20.45118835 215.10595703 31.21655273 Z M195.25439453 249.93530273 C194.31466797 250.90983398 194.31466797 250.90983398 193.35595703 251.90405273 C192.72431641 252.55374023 192.09267578 253.20342773 191.44189453 253.87280273 C190.95978516 254.37811523 190.47767578 254.88342773 189.98095703 255.40405273 C191.70250491 259.16893315 193.97329817 261.55469171 196.98095703 264.40405273 C200.79779929 262.84904292 203.17291435 260.36809778 205.98095703 257.40405273 C204.42491932 253.58468745 202.02490772 251.14360835 198.98095703 248.40405273 C196.8457161 248.18287843 196.8457161 248.18287843 195.25439453 249.93530273 Z M-30.33154297 276.65405273 C-37.06042655 284.70232525 -38.13837444 293.14238292 -38.15275574 303.48054504 C-38.15502129 304.15734005 -38.15728685 304.83413506 -38.15962106 305.53143901 C-38.165909 307.78041721 -38.16513507 310.02933434 -38.16430664 312.27832031 C-38.16730139 313.89857561 -38.17070464 315.5188302 -38.17448425 317.13908386 C-38.18329637 321.52763441 -38.18566119 325.91616544 -38.18630004 330.30472398 C-38.18701213 333.05015848 -38.18914946 335.79558807 -38.19179726 338.54102135 C-38.20104147 348.12923878 -38.2051333 357.71744233 -38.2043457 367.30566406 C-38.20374517 376.22666115 -38.21429466 385.14759772 -38.23008937 394.06857949 C-38.24318822 401.7418524 -38.24852861 409.41510558 -38.24789029 417.08838958 C-38.247636 421.66500999 -38.25044946 426.24157659 -38.26106834 430.81818581 C-38.27078886 435.1249542 -38.27080153 439.43161776 -38.26355171 443.73838997 C-38.26251077 445.31289067 -38.26483941 446.88739803 -38.27091217 448.46188736 C-38.31633983 461.06287226 -38.27626757 473.27813292 -29.45263672 483.15795898 C-21.2528917 490.74890623 -11.85905305 492.52257969 -0.94255066 492.5377655 C-0.26575565 492.54003106 0.41103936 492.54229662 1.1083433 492.54463083 C3.35732151 492.55091877 5.60623864 492.55014484 7.85522461 492.54931641 C9.47547991 492.55231115 11.0957345 492.55571441 12.71598816 492.55949402 C17.10453871 492.56830614 21.49306974 492.57067096 25.88162827 492.5713098 C28.62706278 492.57202189 31.37249236 492.57415922 34.11792564 492.57680702 C43.70614307 492.58605123 53.29434662 492.59014307 62.88256836 492.58935547 C71.80356544 492.58875493 80.72450201 492.59930442 89.64548379 492.61509913 C97.3187567 492.62819799 104.99200988 492.63353838 112.66529387 492.63290006 C117.24191428 492.63264576 121.81848088 492.63545923 126.3950901 492.64607811 C130.70185849 492.65579863 135.00852206 492.65581129 139.31529427 492.64856148 C140.88979496 492.64752054 142.46430233 492.64984917 144.03879166 492.65592194 C156.63977656 492.7013496 168.85503722 492.66127733 178.73486328 483.83764648 C187.4709129 474.40096131 187.561723 464.19322142 187.49853516 452.00170898 C187.50396178 450.24160179 187.51108747 448.48149915 187.51977539 446.72140503 C187.53794741 441.96104074 187.53096658 437.20102481 187.51825905 432.44065475 C187.50809958 427.44805748 187.51753289 422.45548912 187.52380371 417.46289062 C187.53107155 409.08026805 187.5215151 400.69778666 187.50244141 392.31518555 C187.48067435 382.63741141 187.48772633 372.95997441 187.50974703 363.28220844 C187.52792565 354.95835907 187.53044731 346.63461092 187.51999235 338.3107481 C187.51377096 333.34570989 187.51288445 328.38082991 187.52613831 323.415802 C187.53773206 318.74692201 187.5296069 314.07847474 187.50656128 309.40964127 C187.50129298 307.70088544 187.50275564 305.9920929 187.51161194 304.2833519 C187.56515478 292.8992073 186.80384872 283.6865811 178.73486328 274.97045898 C168.26681605 265.6214903 155.02153448 266.10779409 141.76611328 266.14526367 C140.14541467 266.14254909 138.52471729 266.13898555 136.90402222 266.13464355 C132.52801833 266.1255728 128.15210939 266.12904176 123.77610397 266.13540173 C119.18170682 266.14048935 114.58731742 266.13576262 109.99291992 266.13262939 C102.27960766 266.12899778 94.56633377 266.13376771 86.85302734 266.14331055 C77.95411509 266.15419354 69.0552945 266.15066739 60.15638447 266.13965774 C52.49578476 266.13056191 44.83521255 266.12931079 37.17460918 266.13453507 C32.60810024 266.13764217 28.0416343 266.13809893 23.47512817 266.1314621 C19.180622 266.12565579 14.88623324 266.12974525 10.59173965 266.14125061 C9.02207763 266.14387971 7.45240561 266.14316229 5.88274765 266.13872528 C-7.72184417 266.10383427 -20.47900613 266.22723324 -30.33154297 276.65405273 Z M216.23095703 276.09155273 C208.20178731 285.19257764 208.40393002 295.33628162 208.46337891 306.80639648 C208.45795228 308.56650368 208.45082659 310.32660632 208.44213867 312.08670044 C208.42396665 316.84706472 208.43094748 321.60708066 208.44365501 326.36745071 C208.45381448 331.36004798 208.44438117 336.35261634 208.43811035 341.34521484 C208.43084252 349.72783741 208.44039897 358.11031881 208.45947266 366.49291992 C208.48123971 376.17069406 208.47418773 385.84813106 208.45216703 395.52589703 C208.43398841 403.8497464 208.43146675 412.17349455 208.44192171 420.49735737 C208.4481431 425.46239558 208.44902961 430.42727556 208.43577576 435.39230347 C208.424182 440.06118346 208.43230716 444.72963073 208.45535278 449.3984642 C208.46062109 451.10722003 208.45915842 452.81601257 208.45030212 454.52475357 C208.39675929 465.90889817 209.15806535 475.12152437 217.22705078 483.83764648 C227.69509801 493.18661517 240.94037958 492.70031138 254.19580078 492.6628418 C255.8164994 492.66555637 257.43719677 492.66911992 259.05789185 492.67346191 C263.43389573 492.68253267 267.80980467 492.67906371 272.18581009 492.67270374 C276.78020725 492.66761612 281.37459664 492.67234284 285.96899414 492.67547607 C293.68230641 492.67910769 301.39558029 492.67433776 309.10888672 492.66479492 C318.00779897 492.65391193 326.90661956 492.65743808 335.80552959 492.66844773 C343.4661293 492.67754356 351.12670152 492.67879468 358.78730488 492.67357039 C363.35381382 492.6704633 367.92027977 492.67000654 372.48678589 492.67664337 C376.78129206 492.68244968 381.07568083 492.67836021 385.37017441 492.66685486 C386.93983643 492.66422576 388.50950846 492.66494318 390.07916641 492.66938019 C402.66405293 492.70165602 414.86903107 492.64877948 424.73486328 483.83764648 C432.32581052 475.63790147 434.09948398 466.24406281 434.1146698 455.32756042 C434.11806813 454.31236791 434.11806813 454.31236791 434.12153512 453.27666646 C434.12782307 451.02768826 434.12704913 448.77877113 434.1262207 446.52978516 C434.12921545 444.90952986 434.1326187 443.28927527 434.13639832 441.66902161 C434.14521043 437.28047106 434.14757526 432.89194003 434.1482141 428.50338149 C434.14892619 425.75794699 434.15106352 423.0125174 434.15371132 420.26708412 C434.16295553 410.67886669 434.16704737 401.09066314 434.16625977 391.50244141 C434.16565923 382.58144432 434.17620872 373.66050775 434.19200343 364.73952597 C434.20510229 357.06625307 434.21044268 349.39299989 434.20980436 341.71971589 C434.20955006 337.14309548 434.21236353 332.56652888 434.22298241 327.98991966 C434.23270293 323.68315127 434.23271559 319.37648771 434.22546577 315.0697155 C434.22442483 313.4952148 434.22675347 311.92070744 434.23282623 310.34621811 C434.27825389 297.74523321 434.23818163 285.52997254 425.41455078 275.65014648 C417.21480577 268.05919924 407.82096711 266.28552578 396.90446472 266.27033997 C396.22766971 266.26807441 395.55087471 266.26580885 394.85357076 266.26347464 C392.60459256 266.2571867 390.35567543 266.25796063 388.10668945 266.25878906 C386.48643415 266.25579432 384.86617956 266.25239106 383.2459259 266.24861145 C378.85737536 266.23979933 374.46884433 266.23743451 370.08028579 266.23679566 C367.33485128 266.23608358 364.5894217 266.23394625 361.84398842 266.23129845 C352.25577099 266.22205423 342.66756744 266.2179624 333.0793457 266.21875 C324.15834862 266.21935054 315.23741205 266.20880105 306.31643027 266.19300634 C298.64315737 266.17990748 290.96990418 266.17456709 283.29662019 266.17520541 C278.71999978 266.17545971 274.14343318 266.17264624 269.56682396 266.16202736 C265.26005557 266.15230684 260.953392 266.15229418 256.6466198 266.15954399 C255.0721191 266.16058493 253.49761174 266.1582563 251.92312241 266.15218353 C232.31066455 266.04885445 232.31066455 266.04885445 216.23095703 276.09155273 Z " fill="#000000" transform="translate(58.01904296875,-0.404052734375)"/>
<path d="M0 0 C9.07479433 8.42543517 15.7259307 20.08946591 16.3359375 32.63671875 C16.36541249 34.32010483 16.37788021 36.00385836 16.375 37.6875 C16.37483887 38.56873535 16.37467773 39.4499707 16.37451172 40.35791016 C16.24996657 47.50417958 14.80728041 53.42235757 12 60 C10.62929292 63.01625541 10.62929292 63.01625541 10 66 C11.0097061 67.96610724 11.0097061 67.96610724 12.8125 69.4375 C16.07130496 72.82336846 17.08965722 75.15850995 17 80 C15.42435501 83.64886208 13.53250338 86.13562322 10 88 C3.31532936 88.7292368 0.3015803 86.79011801 -4.8125 82.8125 C-5.534375 82.214375 -6.25625 81.61625 -7 81 C-7.64066406 81.33773437 -8.28132813 81.67546875 -8.94140625 82.0234375 C-9.80636719 82.46945313 -10.67132813 82.91546875 -11.5625 83.375 C-12.40941406 83.81585938 -13.25632812 84.25671875 -14.12890625 84.7109375 C-24.97153058 89.57905455 -39.19295189 89.91401537 -50.5625 86.4375 C-65.0261023 80.63571603 -74.6925633 71.37549331 -81.2265625 57.37109375 C-86.15811378 45.18413069 -86.35369311 31.70250109 -81.62109375 19.421875 C-75.07823841 5.39496471 -65.33603847 -4.77853995 -50.7265625 -10.18359375 C-32.41513261 -15.66652906 -14.68116507 -12.46514015 0 0 Z M-55.79296875 17.703125 C-61.33551999 23.77940339 -64.19142502 30.75596237 -64 39 C-62.62088544 49.14921203 -58.98866088 56.02073054 -51 62.375 C-45.69054121 66.33497135 -40.47757161 67.27846604 -33.9375 67.25 C-32.15666016 67.25773437 -32.15666016 67.25773437 -30.33984375 67.265625 C-27.12511887 67.00995097 -24.8912914 66.37732596 -22 65 C-22.42152344 64.44570312 -22.84304687 63.89140625 -23.27734375 63.3203125 C-23.82519531 62.59585938 -24.37304688 61.87140625 -24.9375 61.125 C-25.48277344 60.40570313 -26.02804688 59.68640625 -26.58984375 58.9453125 C-29.09928822 55.48353038 -29.33543545 53.27680199 -29 49 C-26.73529412 44.36764706 -26.73529412 44.36764706 -24 43 C-19.84280895 42.31863466 -16.35793006 42.23266885 -12.62890625 44.33984375 C-10.67222536 45.82217776 -8.81010515 47.34279202 -7 49 C-3.66214065 43.508683 -4.27868591 37.17625189 -5 31 C-7.79867597 22.20269134 -12.76882294 15.31918145 -20.97265625 10.94921875 C-33.83897737 5.55201446 -45.77218405 8.18447112 -55.79296875 17.703125 Z " fill="#000000" transform="translate(172,95)"/>
<path d="M0 0 C3.58666121 3.64989354 4.49909144 5.9927588 4.49829102 11.07202148 C4.51334435 12.87430458 4.51334435 12.87430458 4.52870178 14.71299744 C4.52051926 16.00266922 4.51233673 17.292341 4.50390625 18.62109375 C4.51127901 19.96722231 4.52083004 21.31334054 4.53245544 22.65943909 C4.55911164 26.19666653 4.56475304 29.73355701 4.56335449 33.27087402 C4.5611233 38.92821832 4.57539241 44.58514489 4.61894035 50.24232674 C4.62873112 52.21088095 4.61965955 54.17949998 4.61024475 56.14805603 C4.61712814 57.35273026 4.62401154 58.55740448 4.63110352 59.79858398 C4.62966087 61.38146461 4.62966087 61.38146461 4.62818909 62.99632263 C5.22326093 67.80361514 6.96372773 71.04144815 10.5 74.3125 C15.60385189 77.75760003 21.03541953 77.72421236 27 77 C32.33853891 74.9011617 35.39662031 72.1118936 38 67 C38.44081202 64.0307336 38.44081202 64.0307336 38.36889648 60.8203125 C38.37577988 59.59554199 38.38266327 58.37077148 38.38975525 57.10888672 C38.38359695 55.7942041 38.37743866 54.47952148 38.37109375 53.125 C38.3777912 51.75405871 38.38637061 50.38312544 38.39674377 49.01220703 C38.43674033 43.20541706 38.4380455 37.39870175 38.43579102 31.59179688 C38.43573984 28.03264779 38.45493975 24.47399186 38.48512459 20.91497803 C38.49592143 18.90704685 38.48379543 16.8990346 38.47129822 14.89111328 C38.48133377 13.66634277 38.49136932 12.44157227 38.50170898 11.1796875 C38.50154282 10.10444824 38.50137665 9.02920898 38.50120544 7.92138672 C39.12555742 4.26462351 40.41679251 2.62076027 43 0 C47.24791574 -1.92358449 49.23792497 -2.21592126 53.75 -0.9375 C57.302274 1.18020181 58.24894222 2.33400718 60 6 C60.38095093 8.92570496 60.38095093 8.92570496 60.38818359 12.19213867 C60.39764008 13.42079147 60.40709656 14.64944427 60.4168396 15.91532898 C60.41146653 17.24954552 60.40531274 18.58375911 60.3984375 19.91796875 C60.40046118 21.2993434 60.40337507 22.680717 60.40713501 24.06208801 C60.41155194 26.95629047 60.40515294 29.85021473 60.39111328 32.74438477 C60.37410162 36.42822032 60.3838148 40.11139617 60.40183067 43.79520702 C60.41275465 46.64967164 60.40918176 49.50398414 60.4014473 52.35845375 C60.39850913 54.36895302 60.40752506 56.37945852 60.4168396 58.38993835 C60.32464535 70.52212275 58.22208059 79.33996361 50 88.5 C41.29704525 96.99529206 30.75490457 99.36202367 19.06225586 99.37841797 C7.40356934 99.13822501 -0.41596707 94.61887592 -8.71484375 86.546875 C-17.19654577 77.09376437 -17.30965243 65.3461824 -17.30078125 53.20703125 C-17.30506638 51.90223312 -17.3093515 50.597435 -17.31376648 49.25309753 C-17.32118085 46.50731306 -17.32097065 43.76165731 -17.31567383 41.01586914 C-17.30985795 37.50889716 -17.32688364 34.0024497 -17.3500185 30.49556446 C-17.3683301 27.12853165 -17.3645705 23.76161352 -17.36328125 20.39453125 C-17.372491 19.14130569 -17.38170074 17.88808014 -17.39118958 16.59687805 C-17.33239688 5.53695934 -17.33239688 5.53695934 -14 1 C-8.78864171 -2.20698972 -5.58258875 -2.52796472 0 0 Z " fill="#000000" transform="translate(359,84)"/>
<path d="M0 0 C1.18480453 -0.01583633 2.36960907 -0.03167267 3.59031677 -0.04798889 C4.86641312 -0.04302902 6.14250946 -0.03806915 7.45727539 -0.03295898 C9.4286422 -0.04225685 9.4286422 -0.04225685 11.43983459 -0.05174255 C14.21983368 -0.06214175 16.99932077 -0.05759372 19.77929688 -0.04296875 C23.33510976 -0.02578993 26.88930533 -0.04926373 30.44493771 -0.08445835 C33.84497832 -0.11175287 37.2446303 -0.10169453 40.64477539 -0.09545898 C41.9188475 -0.10871719 43.19291962 -0.1219754 44.50559998 -0.13563538 C54.32247499 -0.03206595 54.32247499 -0.03206595 57.39697266 2.94775391 C59.92653444 6.74945517 60.58545415 9.03910551 59.98852539 13.68188477 C58.19806579 19.54303055 54.14485308 24.40724169 50.63256836 29.36010742 C47.96538893 33.18595842 45.45658893 37.11399817 42.92993164 41.03344727 C41.8354044 42.72258955 40.74033823 44.41138273 39.64477539 46.09985352 C39.07871582 46.97270996 38.51265625 47.84556641 37.92944336 48.74487305 C35.97729285 51.74911222 34.01882676 54.74916012 32.05883789 57.74829102 C31.38167725 58.78469727 30.7045166 59.82110352 30.00683594 60.88891602 C28.68998502 62.90369313 27.37246736 64.91803466 26.05419922 66.93188477 C25.45373779 67.85098633 24.85327637 68.77008789 24.23461914 69.71704102 C23.70465332 70.52713623 23.1746875 71.33723145 22.62866211 72.171875 C21.07596855 74.59824087 19.58765607 77.05639687 18.11743164 79.53344727 C19.2120874 79.54279297 20.30674316 79.55213867 21.43457031 79.56176758 C25.50708275 79.60172663 29.57884444 79.66750128 33.65087891 79.7409668 C35.41119725 79.76914225 37.17164131 79.79037386 38.93212891 79.80444336 C41.46720575 79.82592099 44.00077675 79.87259318 46.53540039 79.92407227 C47.7106855 79.92591522 47.7106855 79.92591522 48.90971375 79.92779541 C53.87549703 80.06004789 56.50834371 80.81607365 60.11743164 84.53344727 C61.72297108 87.74452614 61.5921222 91.05015454 61.11743164 94.53344727 C59.33971885 97.67863144 58.01012499 99.11316161 54.74658203 100.6496582 C49.39259928 101.95348717 44.16698266 101.81829558 38.67602539 101.79907227 C36.87537376 101.80194244 36.87537376 101.80194244 35.03834534 101.80487061 C32.50586741 101.80622905 29.97338244 101.80255645 27.44091797 101.79418945 C23.56535212 101.78347607 19.69024883 101.79410147 15.81469727 101.80688477 C13.35180562 101.80556329 10.88891426 101.80300116 8.42602539 101.79907227 C7.26759628 101.80312073 6.10916718 101.80716919 4.91563416 101.81134033 C3.8342366 101.80503601 2.75283905 101.79873169 1.63867188 101.79223633 C0.69080307 101.79064514 -0.25706573 101.78905396 -1.23365784 101.78741455 C-5.40952562 101.38704852 -8.1121806 100.24137116 -11.19506836 97.40844727 C-13.35149643 93.73453278 -13.51187703 90.65886313 -12.88256836 86.53344727 C-11.75072748 83.77637183 -10.1910555 81.42179278 -8.50756836 78.97094727 C-8.05422119 78.2796875 -7.60087402 77.58842773 -7.13378906 76.8762207 C-5.73381555 74.7499852 -4.31017435 72.64119805 -2.88256836 70.53344727 C-2.06991429 69.31175838 -1.25865012 68.08914348 -0.44897461 66.86547852 C1.16402052 64.43287338 2.78647685 62.00692782 4.41430664 59.58422852 C12.82923806 47.02157865 20.95658391 34.26205693 29.11743164 21.53344727 C28.21500732 21.54915771 27.31258301 21.56486816 26.3828125 21.58105469 C23.00759031 21.6324408 19.63278893 21.66992136 16.25732422 21.69824219 C14.80152797 21.7132504 13.34577632 21.7336636 11.89013672 21.75976562 C9.78740375 21.79650402 7.68527279 21.81325286 5.58227539 21.82641602 C3.68916626 21.84998169 3.68916626 21.84998169 1.7578125 21.87402344 C-2.53840472 21.47209043 -5.08486717 20.55675738 -8.88256836 18.53344727 C-11.40801311 14.55395857 -12.03298382 12.51950419 -11.32006836 7.84594727 C-8.79373962 2.02440712 -6.36712 0.03787883 0 0 Z " fill="#000000" transform="translate(354.882568359375,328.466552734375)"/>
<path d="M0 0 C0.825 -0.01289063 1.65 -0.02578125 2.5 -0.0390625 C6.21521731 0.9477921 7.62070357 2.62579216 10 5.625 C10.72238332 8.54447356 10.68414638 11.378909 10.64697266 14.375 C10.66011505 15.68078003 10.66011505 15.68078003 10.67352295 17.01293945 C10.69548995 19.88413665 10.68097399 22.75378776 10.6640625 25.625 C10.66743141 27.62370092 10.67228466 29.62239984 10.67855835 31.62109375 C10.68592602 35.80749032 10.67522741 39.99335304 10.65185547 44.1796875 C10.62336794 49.54348239 10.63977245 54.90602639 10.66971779 60.26977539 C10.6877935 64.39625458 10.68203144 68.52243763 10.66907883 72.64892578 C10.66574558 74.62646635 10.66982903 76.60403389 10.68147659 78.58154297 C10.69418974 81.34675203 10.67480238 84.10994125 10.64697266 86.875 C10.65709381 87.69073486 10.66721497 88.50646973 10.67764282 89.34692383 C10.59873472 93.58316151 10.36077192 95.16892482 7.63925171 98.609375 C4.52392046 100.98858708 2.91691719 101.625 -1 101.625 C-5.34986291 100.1750457 -7.4325645 99.47615325 -10 95.625 C-10.21033657 92.75263623 -10.30407531 89.97587838 -10.30639648 87.10205078 C-10.31472 86.23182281 -10.32304352 85.36159485 -10.33161926 84.46499634 C-10.35574785 81.58338977 -10.36449479 78.70200943 -10.37109375 75.8203125 C-10.3800578 73.8187554 -10.3891796 71.817199 -10.39845276 69.81564331 C-10.41495301 65.6174761 -10.42264478 61.41938874 -10.42553711 57.22119141 C-10.43092244 51.84175647 -10.46860443 46.46307192 -10.51428127 41.08384895 C-10.54402393 36.94885518 -10.55126006 32.81404272 -10.55226326 28.67895126 C-10.55647099 26.69579506 -10.56892738 24.71263858 -10.58978081 22.72958755 C-10.61663773 19.95474324 -10.61188701 17.18164621 -10.59936523 14.40673828 C-10.61419952 13.58786133 -10.62903381 12.76898438 -10.64431763 11.92529297 C-10.5894415 7.65480377 -10.36636841 6.08770577 -7.61878967 2.61764526 C-4.77564844 0.45429019 -3.52310388 -0.0550485 0 0 Z " fill="#000000" transform="translate(133,328.375)"/>
</svg>
