<?xml version="1.0" encoding="UTF-8"?>
<svg version="1.1" xmlns="http://www.w3.org/2000/svg" width="512" height="512">
<path d="M0 0 C1.1016449 -0.01606293 2.20328979 -0.03212585 3.33831787 -0.04867554 C8.38374264 -0.09307976 13.42903491 -0.13419594 18.47460938 -0.15722656 C21.13669014 -0.17054996 23.796955 -0.20106092 26.45898438 -0.23925781 C30.29352933 -0.29400982 34.12703089 -0.3159002 37.96191406 -0.33056641 C39.74344879 -0.36457047 39.74344879 -0.36457047 41.56097412 -0.39926147 C50.77482288 -0.3756943 50.77482288 -0.3756943 54.46289062 2.60058594 C58.16044422 6.83308099 57.89215356 10.08469343 57.92041016 15.49462891 C57.93267639 16.78271202 57.93267639 16.78271202 57.94519043 18.09681702 C57.97005884 20.94653624 57.98656487 23.79620558 58.00097656 26.64599609 C58.00630024 27.61857109 58.01162392 28.59114609 58.01710892 29.59319305 C58.04384785 34.74180819 58.06321965 39.89039903 58.07763672 45.0390625 C58.09427887 50.35673665 58.139051 55.67379035 58.19000816 60.99123001 C58.22367006 65.07992258 58.23521305 69.16846777 58.2408638 73.25728607 C58.24758008 75.21730028 58.26281192 77.17730467 58.28675461 79.13718414 C58.31838402 81.88314786 58.31844629 84.627437 58.31103516 87.37353516 C58.32744049 88.18103714 58.34384583 88.98853912 58.36074829 89.82051086 C58.31554064 93.91938334 57.93480173 96.43971024 55.31607056 99.68157959 C51.30586379 103.57212456 48.29236177 103.8244475 42.81738281 103.81005859 C36.87565065 102.6232145 33.01570109 98.22721668 28.72753906 94.19287109 C27.07256455 92.84505252 25.40938699 91.50700317 23.72753906 90.19287109 C19.19389213 91.63802267 16.46956945 94.00363355 13.04003906 97.25537109 C7.49983541 102.48070526 5.07069367 103.59198214 -2.49902344 103.55224609 C-6.79361631 102.99576364 -8.40592086 101.36115223 -11.27246094 98.19287109 C-12.6785385 95.38071598 -12.3919658 93.05242889 -12.38598633 89.90722656 C-12.38613235 89.26319885 -12.38627838 88.61917114 -12.38642883 87.95562744 C-12.38573134 85.82373707 -12.3779466 83.69193373 -12.37011719 81.56005859 C-12.36825243 80.08318123 -12.3668288 78.60630325 -12.36582947 77.12942505 C-12.36200886 73.23974911 -12.35218245 69.35011043 -12.34112549 65.46044922 C-12.33090157 61.49235539 -12.32632974 57.52425555 -12.32128906 53.55615234 C-12.31055979 45.76837493 -12.29348883 37.98062823 -12.27246094 30.19287109 C-15.83557497 30.30316756 -19.39767238 30.43369827 -22.95996094 30.56787109 C-23.96736328 30.59880859 -24.97476563 30.62974609 -26.01269531 30.66162109 C-26.98916016 30.70029297 -27.965625 30.73896484 -28.97167969 30.77880859 C-29.86717529 30.81022949 -30.7626709 30.84165039 -31.68530273 30.87402344 C-34.61111622 31.23460779 -36.69358797 31.74628668 -39.27246094 33.19287109 C-41.11559787 36.83068786 -41.5228061 39.82322994 -41.52414322 43.86978912 C-41.53196646 45.57825209 -41.53196646 45.57825209 -41.53994775 47.32122946 C-41.5354863 48.56781285 -41.53102486 49.81439624 -41.52642822 51.09875488 C-41.52873293 52.44006854 -41.53190952 53.78138093 -41.53588271 55.12269068 C-41.544238 58.8072867 -41.54010212 62.49177922 -41.53391027 66.17637563 C-41.52938979 70.15052447 -41.53636754 74.12465537 -41.54187012 78.09880066 C-41.55077007 85.88366896 -41.54883942 93.66849873 -41.54304484 101.45336854 C-41.53853072 107.77948789 -41.53791436 114.10559643 -41.54009247 120.43171692 C-41.54039893 121.33158826 -41.5407054 122.2314596 -41.54102115 123.15859976 C-41.54166059 124.98658844 -41.54230902 126.81457712 -41.54296634 128.64256579 C-41.54867139 145.78943563 -41.54210898 162.93628411 -41.5313656 180.08315045 C-41.52242993 194.80056152 -41.52398193 209.51794105 -41.53320312 224.23535156 C-41.54390265 241.32026295 -41.54812206 258.4051556 -41.5419786 275.49006987 C-41.54134149 277.31138833 -41.54071275 279.1327068 -41.54009247 280.95402527 C-41.53978392 281.85018261 -41.53947537 282.74633994 -41.53915747 283.66965356 C-41.53742957 289.98923101 -41.54034766 296.30879658 -41.54505157 302.62837219 C-41.55065687 310.32830073 -41.54915135 318.02818848 -41.53849009 325.72811234 C-41.53322865 329.65780643 -41.53118467 333.58743248 -41.53778839 337.51712608 C-41.54374019 341.11322444 -41.54048551 344.70919158 -41.52983329 348.305278 C-41.52653469 350.22502304 -41.53307714 352.14477716 -41.53994775 354.06451273 C-41.53473225 355.20348804 -41.52951676 356.34246335 -41.52414322 357.51595306 C-41.52365616 358.9899489 -41.52365616 358.9899489 -41.52315927 360.49372244 C-41.25167501 363.41666323 -40.55732653 365.56172043 -39.27246094 368.19287109 C-35.85147755 370.8880623 -31.76810768 370.4724591 -27.60522461 370.44683838 C-26.44051903 370.45151835 -26.44051903 370.45151835 -25.25228405 370.45629287 C-22.64825557 370.46427558 -20.04445994 370.45794818 -17.44042969 370.45166016 C-15.57443098 370.4543699 -13.70843335 370.45793073 -11.84243774 370.46228027 C-6.77229319 370.47140855 -1.7022299 370.4678582 3.36791611 370.4615221 C8.66984021 370.4564644 13.97175727 370.46115292 19.27368164 370.46429443 C28.17790987 370.46793474 37.08210493 370.46313327 45.98632812 370.45361328 C56.28601012 370.44272862 66.58561293 370.44625415 76.88529301 370.45726609 C85.72273722 370.46633711 94.56015758 370.46762515 103.39760494 370.46238875 C108.67830135 370.45926804 113.95896052 370.45886252 119.23965454 370.46546173 C124.20381 370.47123185 129.16786321 370.46724439 134.1320076 370.45567322 C135.95574397 370.45302485 137.77948892 370.45379473 139.60322189 370.45819855 C142.08903236 370.46364845 144.57451336 370.45682668 147.06030273 370.44683838 C147.78520307 370.45129982 148.5101034 370.45576127 149.25697041 370.4603579 C152.88478768 370.43200536 155.70279634 370.31175493 158.72753906 368.19287109 C159.9022335 365.84348221 159.92788795 364.24213905 160.04394531 361.62255859 C160.08583984 360.72666016 160.12773437 359.83076172 160.17089844 358.90771484 C160.21021484 357.97056641 160.24953125 357.03341797 160.29003906 356.06787109 C160.35481445 354.65054688 160.35481445 354.65054688 160.42089844 353.20458984 C160.52712979 350.86750017 160.62917083 348.53030279 160.72753906 346.19287109 C158.82488281 346.24121094 158.82488281 346.24121094 156.88378906 346.29052734 C153.80752955 346.36868434 152.93301859 346.3212958 150.22753906 344.63037109 C148.14361089 341.24398781 148.16951809 339.09901792 148.72753906 335.19287109 C150.22753906 332.75537109 150.22753906 332.75537109 152.72753906 331.19287109 C155.36753906 331.19287109 158.00753906 331.19287109 160.72753906 331.19287109 C160.72753906 317.99287109 160.72753906 304.79287109 160.72753906 291.19287109 C158.08753906 291.19287109 155.44753906 291.19287109 152.72753906 291.19287109 C150.22753906 289.63037109 150.22753906 289.63037109 148.72753906 287.19287109 C148.16951809 283.28672427 148.14361089 281.14175438 150.22753906 277.75537109 C152.72753906 276.19287109 152.72753906 276.19287109 160.72753906 276.19287109 C160.72753906 262.99287109 160.72753906 249.79287109 160.72753906 236.19287109 C158.08753906 236.19287109 155.44753906 236.19287109 152.72753906 236.19287109 C150.22753906 234.63037109 150.22753906 234.63037109 148.72753906 232.19287109 C148.16951809 228.28672427 148.14361089 226.14175438 150.22753906 222.75537109 C152.72753906 221.19287109 152.72753906 221.19287109 160.72753906 221.19287109 C160.72753906 207.99287109 160.72753906 194.79287109 160.72753906 181.19287109 C158.08753906 181.19287109 155.44753906 181.19287109 152.72753906 181.19287109 C150.22753906 179.63037109 150.22753906 179.63037109 148.72753906 177.19287109 C148.16951809 173.28672427 148.14361089 171.14175438 150.22753906 167.75537109 C152.72753906 166.19287109 152.72753906 166.19287109 160.72753906 166.19287109 C160.72753906 152.99287109 160.72753906 139.79287109 160.72753906 126.19287109 C158.08753906 126.19287109 155.44753906 126.19287109 152.72753906 126.19287109 C150.22753906 124.63037109 150.22753906 124.63037109 148.72753906 122.19287109 C148.16951809 118.28672427 148.14361089 116.14175438 150.22753906 112.75537109 C152.72753906 111.19287109 152.72753906 111.19287109 160.72753906 111.19287109 C160.72753906 98.32287109 160.72753906 85.45287109 160.72753906 72.19287109 C158.41753906 72.19287109 156.10753906 72.19287109 153.72753906 72.19287109 C151.29003906 70.63037109 151.29003906 70.63037109 149.72753906 68.19287109 C149.16465904 64.25271097 149.12357878 62.13504914 151.29003906 58.75537109 C154.5289288 56.67915972 156.94970954 57.08266603 160.72753906 57.19287109 C160.64675146 53.58778004 160.53390222 49.98439188 160.41503906 46.38037109 C160.39248047 45.35621094 160.36992187 44.33205078 160.34667969 43.27685547 C160.31123047 42.29394531 160.27578125 41.31103516 160.23925781 40.29833984 C160.21307373 39.39237061 160.18688965 38.48640137 160.15991211 37.55297852 C159.64811922 34.75935806 158.97515282 33.88098448 156.72753906 32.19287109 C153.21891365 31.02332929 150.43694204 31.05393424 146.73339844 31.03515625 C146.02576859 31.03007553 145.31813873 31.02499481 144.58906555 31.01976013 C143.05363702 31.00906662 141.51819301 31.00044244 139.98274231 30.9936409 C137.55363827 30.9818479 135.12471169 30.96239575 132.69567871 30.94052124 C125.78985471 30.87890673 118.88405061 30.82479796 111.97802734 30.79150391 C107.75339459 30.77058826 103.52908827 30.73531471 99.30464172 30.69074631 C97.69391209 30.67656576 96.08312475 30.66785924 94.47233582 30.66469193 C92.22176802 30.65979672 89.97207121 30.636678 87.72167969 30.609375 C86.44055298 30.60128815 85.15942627 30.59320129 83.83947754 30.58486938 C80.72753906 30.19287109 80.72753906 30.19287109 78.81530762 28.80160522 C77.37753208 26.67523508 77.32701779 25.24499879 77.35253906 22.69287109 C77.34480469 21.91943359 77.33707031 21.14599609 77.32910156 20.34912109 C77.8484529 17.53851386 78.39290165 16.85694235 80.72753906 15.19287109 C83.33655926 14.89684452 85.70713448 14.78291536 88.31665039 14.8046875 C89.47327934 14.79680206 89.47327934 14.79680206 90.65327454 14.78875732 C93.20557851 14.77554067 95.75725984 14.78430364 98.30957031 14.79443359 C100.08452982 14.79241271 101.85948852 14.78950115 103.63444519 14.78573608 C107.35769543 14.78130997 111.08072991 14.78775067 114.80395508 14.80175781 C119.56883678 14.81881259 124.33321015 14.809034 129.09807301 14.79104042 C132.76559753 14.78017841 136.43300242 14.78366064 140.10053062 14.7914238 C141.85674792 14.79342107 143.61297619 14.79098317 145.36918068 14.78398514 C147.8298257 14.77633499 150.28965927 14.7880258 152.75024414 14.8046875 C153.47201843 14.79861481 154.19379272 14.79254211 154.93743896 14.7862854 C159.62603593 14.84486802 162.65490536 15.95268791 166.72753906 18.19287109 C169.49317599 17.99050742 171.37921905 17.36127412 173.86637402 16.15880394 C177.57700739 14.90608954 181.07374497 14.90979705 184.94367981 14.92544556 C185.76718498 14.92091444 186.59069016 14.91638333 187.43915004 14.91171491 C190.19655107 14.89906215 192.9537548 14.90069185 195.71118164 14.90234375 C197.68906407 14.89635903 199.66694415 14.88955362 201.64482117 14.88198853 C207.01680422 14.86431515 212.38872357 14.85963257 217.76073289 14.85835695 C222.24625404 14.85645756 226.73176036 14.84909952 231.2172758 14.84201276 C241.80118956 14.82572597 252.38506929 14.82084406 262.96899414 14.82226562 C273.88385729 14.82346702 284.7985227 14.80236623 295.71333581 14.7707783 C305.08674194 14.74461875 314.46008348 14.7338982 323.83352584 14.73517644 C329.43073742 14.73568619 335.0277733 14.72999602 340.6249485 14.70882034 C345.89042706 14.68944361 351.1555622 14.68930979 356.42105293 14.70385361 C358.35115816 14.70594352 360.28128485 14.70122996 362.2113533 14.68913269 C364.85145332 14.67365982 367.49037218 14.68300151 370.13044739 14.69839478 C370.88970561 14.68810765 371.64896384 14.67782052 372.43122989 14.66722167 C378.78232034 14.74875061 383.92397879 16.77358259 388.75097656 20.93896484 C389.19699219 21.49712891 389.64300781 22.05529297 390.10253906 22.63037109 C390.79476562 23.46375 390.79476562 23.46375 391.50097656 24.31396484 C394.5821698 29.03388187 394.95715756 32.90828141 394.85253906 38.50537109 C394.83449219 39.75962891 394.81644531 41.01388672 394.79785156 42.30615234 C394.76304687 43.73507813 394.76304687 43.73507813 394.72753906 45.19287109 C395.64535156 45.14646484 396.56316406 45.10005859 397.50878906 45.05224609 C411.02178355 44.65480508 411.02178355 44.65480508 416.72753906 49.19287109 C421.86904569 54.05770472 424.78145339 58.59925416 424.98201466 65.81339455 C424.9943185 67.7191145 424.99555976 69.62492457 424.98823547 71.53067017 C424.99206102 72.58229855 424.99588657 73.63392693 424.99982804 74.71742284 C425.0101594 78.24656168 425.00616562 81.77553788 425.00219727 85.3046875 C425.00654356 87.8325465 425.01172643 90.36040418 425.01768494 92.88825989 C425.02969971 99.04416693 425.03222566 105.20001385 425.02988467 111.35593034 C425.02810199 116.35769767 425.02985007 121.35945175 425.03410912 126.3612175 C425.0347043 127.07294172 425.03529949 127.78466594 425.03591272 128.51795756 C425.03712445 129.9637617 425.03833859 131.40956584 425.0395551 132.85536997 C425.05043024 146.41212821 425.04826784 159.96886158 425.04217025 173.52562122 C425.03699708 185.93580548 425.0482671 198.34591135 425.06726847 210.75608011 C425.08662383 223.49489012 425.09490718 236.23366299 425.09114522 248.97248781 C425.08923018 256.12606981 425.09175037 263.27958503 425.10585976 270.43315506 C425.11898434 277.155443 425.11654509 283.8775479 425.10344887 290.59984398 C425.10107208 293.07225153 425.10385685 295.54467 425.11207199 298.01706505 C425.12244777 301.38124258 425.11451282 304.74488184 425.10176086 308.10903931 C425.10913515 309.0968639 425.11650943 310.08468848 425.12410718 311.10244715 C425.11690064 312.00056947 425.1096941 312.89869178 425.10226917 313.82402992 C425.10232419 314.6008854 425.1023792 315.37774087 425.10243589 316.17813742 C424.6275459 318.7302445 423.75444046 319.61817662 421.72753906 321.19287109 C419.57128906 321.59130859 419.57128906 321.59130859 417.22753906 321.56787109 C416.45410156 321.57560547 415.68066406 321.58333984 414.88378906 321.59130859 C412.17838037 321.09139612 411.42830134 320.32513222 409.72753906 318.19287109 C409.35083288 316.22302163 409.35083288 316.22302163 409.34836483 313.93335152 C409.33603012 312.6227437 409.33603012 312.6227437 409.32344621 311.28565896 C409.32965803 310.325071 409.33586985 309.36448305 409.3422699 308.37478638 C409.3370342 307.35486284 409.33179851 306.33493931 409.32640415 305.284109 C409.31238181 301.85009461 409.31975967 298.41645273 409.3269043 294.98242188 C409.32116512 292.52706568 409.31408374 290.0717123 409.30575562 287.61636353 C409.29061295 282.32072035 409.28450628 277.02518257 409.28628349 271.72952652 C409.288665 264.06743284 409.27268932 256.40546165 409.25183094 248.74339996 C409.21828613 236.30550474 409.19663705 223.86762047 409.18383789 211.4296875 C409.1830684 210.68504186 409.18229891 209.94039623 409.1815061 209.17318557 C409.17840385 206.15603633 409.17532103 203.13888707 409.17226606 200.12173779 C409.16373907 191.82008812 409.15283761 183.51844225 409.14086914 175.21679688 C409.13980112 174.47366317 409.1387331 173.73052946 409.13763272 172.96487655 C409.11954345 160.57641433 409.09355208 148.18797817 409.062738 135.79954135 C409.04417705 128.15652661 409.03326782 120.51357035 409.03221608 112.87053274 C409.03098272 107.01496425 409.01992236 101.15944145 409.00527573 95.30389023 C409.00098762 92.90005609 409.00014169 90.49621303 409.00295067 88.09237671 C409.00634013 84.81646745 408.99759455 81.54080775 408.98582458 78.2649231 C408.99179623 76.83073333 408.99179623 76.83073333 408.99788851 75.36757004 C408.98457873 69.03963001 408.98457873 69.03963001 406.72753906 63.19287109 C402.9584488 61.03910523 398.97955801 60.77246475 394.72753906 60.19287109 C394.72943766 60.84789989 394.73133627 61.5029287 394.7332924 62.17780685 C394.84518104 100.99951348 394.93097094 139.8211993 394.98286571 178.64303452 C394.98911925 183.30434099 394.99559086 187.96564714 395.00219727 192.62695312 C395.00350882 193.55493584 395.00482037 194.48291855 395.00617167 195.43902194 C395.02792864 210.46510896 395.06735179 225.49110034 395.11330304 240.51713061 C395.16005953 255.93505247 395.18783275 271.35292423 395.19798154 286.77091408 C395.20484237 296.28480105 395.22651211 305.7984177 395.2671214 315.31222147 C395.29354979 321.83606607 395.30153984 328.3597709 395.29504595 334.88366514 C395.29184318 338.64778695 395.29675487 342.41143635 395.32356644 346.17547417 C395.35243851 350.25864885 395.34247384 354.34081865 395.32881165 358.42407227 C395.34337585 359.61085445 395.35794006 360.79763664 395.37294561 362.02038193 C395.30147393 369.91233123 393.84758513 375.06596673 388.21401864 380.70891094 C381.31189946 386.76431997 374.74099459 387.34750904 365.79528809 387.31985474 C365.01443643 387.32141473 364.23358478 387.32297472 363.42907095 387.32458198 C360.82216071 387.32855892 358.21530908 387.32541516 355.60839844 387.32226562 C353.73549872 387.32362113 351.86259927 387.32540191 349.98970032 387.32757568 C344.90922962 387.33213223 339.82877924 387.33036775 334.74830818 387.3271966 C329.42998322 387.32466383 324.11165999 387.3270131 318.79333496 387.32858276 C309.86238289 387.33040177 300.93143909 387.32800517 292.00048828 387.32324219 C281.67696708 387.31780009 271.35346562 387.31956293 261.0299449 387.32506859 C252.16440903 387.32960735 243.29887911 387.33024652 234.43334246 387.32762992 C229.13920804 387.32607136 223.84508291 387.3258619 218.5509491 387.32916641 C213.57365686 387.33205618 208.59639006 387.33004904 203.61910057 387.32427216 C201.79297617 387.3229505 199.96684963 387.32332859 198.14072609 387.32553482 C195.64705187 387.32826966 193.15345908 387.3248366 190.65979004 387.31985474 C189.93818868 387.32208546 189.21658732 387.32431618 188.47311926 387.3266145 C184.45500813 387.31105836 180.67035305 386.96760488 176.72753906 386.19287109 C177.15348495 387.63383695 177.59380539 389.07055821 178.04003906 390.50537109 C178.28367187 391.30587891 178.52730469 392.10638672 178.77832031 392.93115234 C179.82639192 395.42840939 180.56861696 396.56772223 182.72753906 398.19287109 C187.38052419 400.08757166 191.59484709 400.477971 196.5569458 400.44683838 C197.32680809 400.44995836 198.09667037 400.45307834 198.88986182 400.45629287 C201.45985643 400.46424602 204.02961316 400.45795963 206.59960938 400.45166016 C208.4463159 400.4543713 210.29302134 400.45793292 212.13972473 400.46228027 C217.15023865 400.4713944 222.16067015 400.46786334 227.17118549 400.4615221 C232.42090894 400.45645405 237.67062539 400.46115608 242.92034912 400.46429443 C251.7403693 400.46793301 260.560356 400.46313916 269.38037109 400.45361328 C279.56296011 400.44274244 289.74546895 400.44624479 299.928056 400.45726609 C308.67986016 400.46635817 317.43164024 400.46761445 326.1834476 400.46238875 C331.40617863 400.45927788 336.62887206 400.45883515 341.85160065 400.46546173 C346.76655492 400.47126203 351.68140648 400.46718933 356.59634972 400.45567322 C358.39499173 400.45304037 360.19364247 400.45376808 361.99228096 400.45819855 C382.27460396 400.62216333 382.27460396 400.62216333 399.47753906 390.94287109 C409.3948317 380.28008721 409.03165693 366.23641074 409.20605469 352.45068359 C409.23248047 351.42716797 409.25890625 350.40365234 409.28613281 349.34912109 C409.2995874 348.429375 409.31304199 347.50962891 409.3269043 346.56201172 C409.79911549 343.76960624 410.48464089 342.87121173 412.72753906 341.19287109 C414.88378906 340.79443359 414.88378906 340.79443359 417.22753906 340.81787109 C418.00097656 340.81013672 418.77441406 340.80240234 419.57128906 340.79443359 C422.37840556 341.3131399 423.05881901 341.86741388 424.72753906 344.19287109 C425.05103599 346.7714425 425.19555609 349.10378171 425.19628906 351.68505859 C425.20770935 352.79773605 425.20770935 352.79773605 425.21936035 353.93289185 C425.2301701 355.50812423 425.23301087 357.08342834 425.22851562 358.65869141 C425.22755622 361.02554068 425.26888417 363.38900122 425.31347656 365.75537109 C425.43169904 380.72351863 421.49659725 391.60601731 411.35253906 402.81787109 C401.55080864 411.68610338 391.79165216 416.34317078 378.47979736 416.34004211 C377.6408124 416.3437188 376.80182745 416.34739549 375.9374187 416.35118359 C373.1216844 416.36221051 370.30598702 416.36606258 367.49023438 416.36987305 C365.47309248 416.37613839 363.45595174 416.38278525 361.43881226 416.38978577 C354.81110436 416.41081811 348.18339624 416.42118659 341.55566406 416.43115234 C339.27379087 416.43520005 336.9919178 416.43931697 334.71004486 416.44350243 C323.99074566 416.46255136 313.27145334 416.47678368 302.55214047 416.4851144 C290.17858895 416.4948896 277.80521618 416.52121787 265.43172765 416.56161529 C255.86726836 416.5917703 246.30286035 416.60658265 236.73835444 416.60989541 C231.02598181 416.61224636 225.31380022 416.62121313 219.60147858 416.64635658 C214.22686731 416.66963173 208.85257295 416.67387265 203.47792435 416.6635952 C201.50750042 416.66309962 199.53706092 416.66942667 197.56668472 416.68315125 C194.8718162 416.70086909 192.17808519 416.69376468 189.48321533 416.68061829 C188.31995912 416.69707216 188.31995912 416.69707216 187.13320279 416.71385843 C180.43364845 416.63521968 175.81124675 414.1201884 170.22753906 410.63037109 C167.05971729 410.07600228 166.27660554 410.82314018 163.60253906 412.50537109 C162.93996094 412.97587891 162.27738281 413.44638672 161.59472656 413.93115234 C157.51842679 416.68563943 153.34602818 416.34115097 148.62696838 416.34004211 C147.79166011 416.3437188 146.95635184 416.34739549 146.0957312 416.35118359 C143.28622674 416.36222937 140.47675926 416.36606586 137.66723633 416.36987305 C135.656732 416.37613723 133.64622883 416.38278399 131.63572693 416.38978577 C125.02180795 416.41084116 118.4078887 416.42119235 111.79394531 416.43115234 C109.51618882 416.43519992 107.23843244 416.43931685 104.96067619 416.44350243 C94.25524765 416.46256058 83.54982602 416.47678798 72.84438378 416.4851144 C60.49633213 416.49487716 48.1484602 416.52116908 35.80047184 416.56161529 C26.25210596 416.59181477 16.70379146 416.60658708 7.15537876 416.60989541 C1.45515946 416.61224233 -4.24486798 416.6211557 -9.94503593 416.64635658 C-15.31390097 416.66970797 -20.68244881 416.67384207 -26.05135155 416.6635952 C-28.01525683 416.66310138 -29.97917809 416.66937613 -31.94303513 416.68315125 C-47.94016192 416.78902298 -60.67230822 414.89998635 -72.95996094 403.75537109 C-73.72308594 402.90974609 -74.48621094 402.06412109 -75.27246094 401.19287109 C-75.75328125 400.71591797 -76.23410156 400.23896484 -76.72949219 399.74755859 C-83.13676799 393.03208471 -87.38702901 383.14423662 -87.40947533 373.86413288 C-87.41454987 372.75189014 -87.41962441 371.63964739 -87.42485273 370.49370033 C-87.42535049 369.2666833 -87.42584824 368.03966628 -87.42636108 366.77546692 C-87.43074334 365.47589497 -87.43512559 364.17632302 -87.43964064 362.8373701 C-87.45161083 359.22249189 -87.45725561 355.60762703 -87.46182179 351.99273288 C-87.46777618 348.09688177 -87.47938641 344.20104664 -87.4901123 340.3052063 C-87.51463966 330.89292114 -87.52926374 321.48063069 -87.54217237 312.0683234 C-87.54588399 309.41024692 -87.54985725 306.75217096 -87.55392504 304.09409499 C-87.5791607 287.59062485 -87.60121554 271.08715389 -87.61365318 254.58366871 C-87.61658292 250.76061309 -87.61954458 246.9375575 -87.62255859 243.11450195 C-87.62330464 242.16429083 -87.6240507 241.2140797 -87.62481935 240.2350743 C-87.63747428 224.84058031 -87.67069903 209.44620179 -87.71236043 194.05176178 C-87.75477514 178.24953399 -87.77834766 162.44736532 -87.78357375 146.64508075 C-87.78698834 137.77148006 -87.79874917 128.89805983 -87.83167648 120.02451515 C-87.85967177 112.46767994 -87.87067864 104.91106217 -87.85948102 97.35417912 C-87.85429303 93.4989111 -87.85718967 89.64409848 -87.88194656 85.78889656 C-87.90857487 81.60734593 -87.8963837 77.42679831 -87.88046265 73.24519348 C-87.89434473 72.02933007 -87.90822682 70.81346665 -87.92252958 69.56075889 C-87.8473591 61.55958466 -86.42509739 56.44900388 -80.79436719 50.67793876 C-75.45081395 45.90261574 -71.0017358 44.93624913 -63.95996094 45.06787109 C-62.07857422 45.09494141 -62.07857422 45.09494141 -60.15917969 45.12255859 C-59.2065625 45.14576172 -58.25394531 45.16896484 -57.27246094 45.19287109 C-57.33046875 44.20287109 -57.38847656 43.21287109 -57.44824219 42.19287109 C-57.9824056 29.25169749 -57.9824056 29.25169749 -53.76464844 23.77099609 C-49.19930624 18.94272843 -44.89804687 15.44775014 -38.04272461 14.96582031 C-36.25958862 14.98153076 -36.25958862 14.98153076 -34.44042969 14.99755859 C-32.50200195 15.00722656 -32.50200195 15.00722656 -30.52441406 15.01708984 C-29.16959363 15.03379782 -27.81477593 15.05072768 -26.45996094 15.06787109 C-25.08561843 15.07791106 -23.7112689 15.08703513 -22.33691406 15.09521484 C-18.98191777 15.11875868 -15.62727895 15.15164543 -12.27246094 15.19287109 C-12.32144531 13.94376953 -12.37042969 12.69466797 -12.42089844 11.40771484 C-12.41944228 8.10441989 -12.29508755 6.20150461 -9.89746094 3.75537109 C-6.34626406 0.28872652 -4.82639028 0.06383797 0 0 Z M2.72753906 15.19287109 C2.72753906 37.96287109 2.72753906 60.73287109 2.72753906 84.19287109 C8.37816553 80.0009894 8.37816553 80.0009894 13.66503906 75.38037109 C17.53507088 72.61606266 20.97926631 71.68638867 25.72753906 72.19287109 C30.27176716 74.05269425 33.48396676 76.52935304 37.04003906 79.88037109 C39.5314459 82.69627628 39.5314459 82.69627628 42.72753906 84.19287109 C42.72753906 61.42287109 42.72753906 38.65287109 42.72753906 15.19287109 C29.52753906 15.19287109 16.32753906 15.19287109 2.72753906 15.19287109 Z M177.72753906 33.19287109 C176.47505404 35.69784113 176.613795 37.40140383 176.62988281 40.20068359 C176.63310547 41.18681641 176.63632812 42.17294922 176.63964844 43.18896484 C176.64802734 44.22150391 176.65640625 45.25404297 176.66503906 46.31787109 C176.66955078 47.35814453 176.6740625 48.39841797 176.67871094 49.47021484 C176.69051954 52.04449071 176.70698831 54.61865256 176.72753906 57.19287109 C178.64566406 57.40363281 178.64566406 57.40363281 180.60253906 57.61865234 C183.12139954 57.8954223 184.52841778 58.07464283 186.72753906 59.38037109 C188.24210486 62.1255216 188.10467001 64.11296838 187.72753906 67.19287109 C186.72753906 69.50537109 186.72753906 69.50537109 184.72753906 71.19287109 C182.08753906 71.52287109 179.44753906 71.85287109 176.72753906 72.19287109 C176.72753906 85.06287109 176.72753906 97.93287109 176.72753906 111.19287109 C179.03753906 111.52287109 181.34753906 111.85287109 183.72753906 112.19287109 C185.66503906 113.38037109 185.66503906 113.38037109 186.72753906 115.19287109 C187.14501625 118.46310903 187.04503396 120.50185279 185.66503906 123.50537109 C183.72753906 125.19287109 183.72753906 125.19287109 176.72753906 126.19287109 C176.72753906 139.39287109 176.72753906 152.59287109 176.72753906 166.19287109 C179.03753906 166.52287109 181.34753906 166.85287109 183.72753906 167.19287109 C185.66503906 168.38037109 185.66503906 168.38037109 186.72753906 170.19287109 C187.14501625 173.46310903 187.04503396 175.50185279 185.66503906 178.50537109 C183.72753906 180.19287109 183.72753906 180.19287109 176.72753906 181.19287109 C176.72753906 194.39287109 176.72753906 207.59287109 176.72753906 221.19287109 C179.03753906 221.52287109 181.34753906 221.85287109 183.72753906 222.19287109 C185.66503906 223.38037109 185.66503906 223.38037109 186.72753906 225.19287109 C187.14501625 228.46310903 187.04503396 230.50185279 185.66503906 233.50537109 C183.72753906 235.19287109 183.72753906 235.19287109 176.72753906 236.19287109 C176.72753906 249.39287109 176.72753906 262.59287109 176.72753906 276.19287109 C179.03753906 276.52287109 181.34753906 276.85287109 183.72753906 277.19287109 C185.66503906 278.38037109 185.66503906 278.38037109 186.72753906 280.19287109 C187.14501625 283.46310903 187.04503396 285.50185279 185.66503906 288.50537109 C183.72753906 290.19287109 183.72753906 290.19287109 176.72753906 291.19287109 C176.72753906 304.39287109 176.72753906 317.59287109 176.72753906 331.19287109 C179.03753906 331.52287109 181.34753906 331.85287109 183.72753906 332.19287109 C185.66503906 333.38037109 185.66503906 333.38037109 186.72753906 335.19287109 C187.14501625 338.46310903 187.04503396 340.50185279 185.66503906 343.50537109 C182.91804573 345.89791367 180.27473136 345.77869026 176.72753906 346.19287109 C176.6111587 349.44256879 176.54023326 352.69172939 176.47753906 355.94287109 C176.44402344 356.86326172 176.41050781 357.78365234 176.37597656 358.73193359 C176.20831141 364.11883411 176.20831141 364.11883411 178.61816406 368.77099609 C182.51284545 371.39629984 185.57044578 371.3387455 190.14753723 371.33331299 C190.9215932 371.33628411 191.69564917 371.33925523 192.49316138 371.34231639 C195.10100184 371.35102562 197.70879652 371.35251351 200.31665039 371.35400391 C202.18073119 371.35863052 204.04481104 371.36365496 205.90888977 371.36904907 C210.98332503 371.38219044 216.05774704 371.38862144 221.13219666 371.39305973 C224.30052701 371.39598774 227.46885372 371.40009203 230.63718224 371.4045639 C240.54436757 371.41824358 250.4515446 371.42790786 260.35873872 371.43176579 C271.80579333 371.43624748 283.25272859 371.45379854 294.69974691 371.48276639 C303.54055903 371.50436443 312.38133754 371.51446908 321.22217578 371.51580691 C326.50576178 371.51685632 331.78923567 371.52279275 337.07279396 371.54062653 C342.04269346 371.55707469 347.01239618 371.55927856 351.98231316 371.55048752 C353.80724743 371.54971539 355.63219213 371.55408295 357.45709991 371.56394577 C359.94716577 371.57661498 362.43652936 371.57081611 364.92658997 371.56036377 C365.6499417 371.56842017 366.37329342 371.57647658 367.1185649 371.58477712 C371.48014844 371.54191465 374.34966873 371.02092902 377.72753906 368.19287109 C379.53962139 364.53414846 379.97788057 361.57358179 379.97922134 357.51595306 C379.98704459 355.8074901 379.98704459 355.8074901 379.99502587 354.06451273 C379.98833371 352.19463764 379.98833371 352.19463764 379.98150635 350.2869873 C379.98381105 348.94567365 379.98698765 347.60436126 379.99096084 346.26305151 C379.99931612 342.57845549 379.99518025 338.89396297 379.9889884 335.20936656 C379.98446792 331.23521772 379.99144566 327.26108682 379.99694824 323.28694153 C380.0058482 315.50207323 380.00391755 307.71724346 379.99812296 299.93237364 C379.99360885 293.6062543 379.99299248 287.28014576 379.99517059 280.95402527 C379.99563029 279.60421826 379.99563029 279.60421826 379.99609928 278.22714242 C379.99673872 276.39915375 379.99738715 274.57116507 379.99804446 272.7431764 C380.00374952 255.59630655 379.9971871 238.44945808 379.98644373 221.30259174 C379.97750806 206.58518066 379.97906005 191.86780113 379.98828125 177.15039062 C379.99898077 160.06547924 380.00320018 142.98058659 379.99705672 125.89567232 C379.99641961 124.07435386 379.99579087 122.25303539 379.99517059 120.43171692 C379.99486204 119.53555958 379.99455349 118.63940224 379.99423559 117.71608862 C379.9925077 111.39651118 379.99542579 105.0769456 380.0001297 98.75737 C380.005735 91.05744146 380.00422948 83.3575537 379.99356821 75.65762985 C379.98830677 71.72793576 379.98626279 67.79830971 379.99286652 63.8686161 C379.99881831 60.27251775 379.99556364 56.67655061 379.98491141 53.08046418 C379.98161282 51.16071915 379.98815526 49.24096503 379.99502587 47.32122946 C379.98981038 46.18225415 379.98459488 45.04327884 379.97922134 43.86978912 C379.97889664 42.88712523 379.97857193 41.90446134 379.97823739 40.89201975 C379.60175113 36.83857272 378.61409348 34.07942551 375.72753906 31.19287109 C372.0026865 29.80292362 368.0705727 30.04768263 364.14968872 30.0524292 C363.38279657 30.04945808 362.61590442 30.04648695 361.82577312 30.0434258 C359.25411765 30.03474897 356.68250879 30.03323142 354.11083984 30.03173828 C352.26779074 30.02710945 350.42474259 30.0220847 348.58169556 30.01669312 C343.57342518 30.00357486 338.56516821 29.99712547 333.55688334 29.99268246 C330.4284017 29.98975129 327.29992373 29.98564644 324.17144394 29.98117828 C314.38439899 29.96750594 304.59736241 29.95783754 294.81030858 29.95397639 C283.5098747 29.94949372 272.20956167 29.93193499 260.90916455 29.9029758 C252.17530192 29.88136994 243.44147333 29.87127273 234.70758426 29.86993527 C229.49050621 29.86888662 224.27354179 29.86296576 219.05649185 29.84511566 C214.14976172 29.82865358 209.24323088 29.82647043 204.336483 29.83525467 C202.53615536 29.836026 200.73581709 29.83166976 198.93551636 29.82179642 C196.47655863 29.80910211 194.01830948 29.81493972 191.55935669 29.82537842 C190.84806394 29.81732201 190.13677119 29.80926561 189.40392411 29.80096507 C184.8003021 29.84662894 181.63499549 30.75997511 177.72753906 33.19287109 Z M-71.27246094 64.19287109 C-72.32033794 67.25574363 -72.39858608 70.11985193 -72.40109539 73.33954716 C-72.40431984 74.38574634 -72.40754428 75.43194552 -72.41086644 76.5098477 C-72.40931784 77.65797751 -72.40776924 78.80610731 -72.40617371 79.98902893 C-72.40843926 81.20975111 -72.41070482 82.4304733 -72.41303903 83.68818706 C-72.41828097 87.07840259 -72.41902275 90.46856515 -72.41784465 93.85878098 C-72.41764078 97.51471915 -72.42315824 101.17064938 -72.42790222 104.82658386 C-72.43621343 111.99128358 -72.43895731 119.15597506 -72.4395146 126.3206792 C-72.43998972 132.14667344 -72.44204425 137.97266498 -72.44521523 143.79865837 C-72.45402454 160.32056339 -72.45863439 176.8424619 -72.45788475 193.36436928 C-72.4578448 194.25531638 -72.45780484 195.14626349 -72.45776367 196.06420898 C-72.45772279 196.956246 -72.45768191 197.84828301 -72.45763979 198.76735144 C-72.45723366 213.21236377 -72.46679418 227.65734999 -72.48090204 242.10235477 C-72.49527731 256.93846919 -72.50217153 271.77457089 -72.50130826 286.61069244 C-72.5009766 294.93824772 -72.50370997 303.26577566 -72.51448631 311.59332466 C-72.52360665 318.68667727 -72.52575414 325.77999015 -72.51897689 332.8733461 C-72.51571888 336.48986531 -72.51562879 340.10630838 -72.52433014 343.72282028 C-72.53368415 347.65119106 -72.52739998 351.57945152 -72.5196991 355.50782776 C-72.52484266 356.64034251 -72.52998622 357.77285727 -72.53528565 358.93969065 C-72.4819821 371.27751715 -71.21157498 382.19152026 -62.52246094 391.44287109 C-51.07196516 402.21732284 -36.73411161 401.49061523 -21.91455078 401.4675293 C-20.06400854 401.47188218 -18.2134681 401.47706724 -16.3629303 401.48301697 C-11.36105824 401.49635238 -6.35926198 401.49699202 -1.35737562 401.49445367 C2.82518567 401.49338081 7.00773182 401.49827508 11.19028986 401.50305909 C21.05753559 401.51413417 30.92474325 401.51460215 40.79199219 401.50854492 C50.96109809 401.50249839 61.13006586 401.514838 71.2991482 401.53611499 C80.04420973 401.55373757 88.7892273 401.55973153 97.53430593 401.55647725 C102.75134949 401.5546662 107.96829438 401.55728335 113.18532181 401.57119179 C118.08886701 401.58377711 122.99219667 401.58181932 127.8957386 401.5687809 C129.69200145 401.56641758 131.48827952 401.56914103 133.28452492 401.57740402 C135.742473 401.58789346 138.1997006 401.57975379 140.65762329 401.5670929 C141.36288859 401.57446718 142.06815389 401.58184147 142.79479086 401.58943921 C147.77619758 401.53570852 152.37843372 400.66610702 156.72753906 398.19287109 C159.95888776 394.53693611 160.92614554 391.00907817 160.72753906 386.19287109 C159.71962814 386.19471468 158.71171722 386.19655827 157.67326355 386.19845772 C133.14391956 386.24286495 108.61458078 386.2757265 84.08520508 386.29649544 C72.22296723 386.3068062 60.36075595 386.32086275 48.49853516 386.34375 C38.15893632 386.36368995 27.81935672 386.37658899 17.47973919 386.38104808 C12.00546067 386.38365442 6.53123719 386.3897764 1.05697632 386.40433121 C-4.09754129 386.41792462 -9.25198129 386.42209015 -14.40651512 386.41908646 C-16.29630137 386.41963583 -18.18609026 386.42360276 -20.07586098 386.43128204 C-22.66118291 386.44127082 -25.24621394 386.43882566 -27.83154297 386.43338013 C-28.94636409 386.44211865 -28.94636409 386.44211865 -30.08370686 386.45103371 C-37.68881597 386.40790337 -44.17450661 385.04351658 -50.27246094 380.19287109 C-54.43501329 375.56781293 -56.51905824 372.10158605 -56.53417397 365.84367752 C-56.54163946 364.7523773 -56.54910495 363.66107708 -56.55679667 362.53670716 C-56.55486194 361.33827361 -56.5529272 360.13984005 -56.55093384 358.90509033 C-56.55962244 356.99498661 -56.55962244 356.99498661 -56.56848657 355.04629493 C-56.58430793 351.50942679 -56.58771842 347.97263805 -56.58913517 344.4357388 C-56.5928255 340.62252614 -56.60797913 336.80935722 -56.62174988 332.99617004 C-56.64403809 326.38879096 -56.65904198 319.78142741 -56.66911697 313.17401886 C-56.68369427 303.6207873 -56.70922842 294.06760984 -56.73744826 284.51440999 C-56.78293352 269.01548035 -56.81954116 253.51654292 -56.85058594 238.01757812 C-56.88076438 222.96059808 -56.9151114 207.90363707 -56.95507812 192.84667969 C-56.95753967 191.91877496 -56.96000122 190.99087023 -56.96253736 190.03484717 C-56.97491183 185.37988336 -56.98736839 180.72491978 -56.99986577 176.0699563 C-57.10345954 137.44428762 -57.19265422 98.81859582 -57.27246094 60.19287109 C-65.02546377 60.054733 -65.02546377 60.054733 -71.27246094 64.19287109 Z " fill="#000000" transform="translate(87.2724609375,47.80712890625)"/>
<path d="M0 0 C2.52734375 2.05078125 2.52734375 2.05078125 4.9375 4.3125 C8.87522472 7.98130693 12.89618407 11.51956726 17 15 C17.37697021 14.5968457 17.75394043 14.19369141 18.14233398 13.77832031 C19.89349243 11.9218631 21.66508803 10.0861678 23.4375 8.25 C24.32598633 7.29867187 24.32598633 7.29867187 25.23242188 6.328125 C30.29866267 1.12642322 35.55989331 -2.20912546 42.78515625 -3.49609375 C49.64501321 -3.31959657 54.76713713 -1.87957144 60.6875 1.5625 C65.7124561 6.85907535 68.29523196 12.68857141 68.625 20 C67.94594157 32.67575738 59.76191442 39.86693111 51 48 C52.53677007 51.76036474 54.84815446 53.89620215 57.8125 56.625 C64.27170668 63.01877333 68.15207144 68.75424656 68.625 78 C68.31663931 84.15140041 66.78009159 89.09633279 63 94 C56.73565445 99.47294247 50.94117482 101.49688704 42.69921875 101.31640625 C31.49726013 100.00329677 24.25579412 90.76756644 17 83 C13.31487792 86.08346949 9.77925215 89.17135882 6.4375 92.625 C0.94431204 98.16712505 -4.58186889 101.85400246 -12.609375 102.0703125 C-20.06191135 101.72033151 -25.17571609 99.71696982 -30.53125 94.51171875 C-34.89560923 89.60181462 -36.29734922 85.17134031 -36.375 78.6875 C-36.40335937 77.61886719 -36.43171875 76.55023438 -36.4609375 75.44921875 C-35.35724397 67.19022391 -30.61862245 62.05849199 -24.75 56.5 C-24.1003125 55.86835938 -23.450625 55.23671875 -22.78125 54.5859375 C-21.19633703 53.04763961 -19.60284632 51.51956494 -18 50 C-19.86287778 45.90713187 -22.64468786 43.2935024 -25.875 40.25 C-32.59251587 33.65478348 -36.09876847 29.20757395 -36.5 19.5 C-36.22666697 11.87312667 -34.33743151 6.95545795 -28.8125 1.6875 C-19.86967555 -5.2764867 -9.74089554 -5.55357551 0 0 Z M-17.6875 13.625 C-20.18605279 15.80736706 -20.18605279 15.80736706 -20.75 18.75 C-19.42092386 24.50932994 -15.03337508 28.05938838 -10.859375 32.04296875 C-5.25984048 37.40400457 -2.44374476 41.00629712 -1.5625 48.9375 C-1.92209825 57.00816076 -7.06172525 62.61680079 -12.6875 67.875 C-18.00887925 72.50834229 -18.00887925 72.50834229 -20.375 78.875 C-20.28532909 82.15156184 -20.28532909 82.15156184 -17.8125 84.4375 C-15.17778039 86.24426161 -15.17778039 86.24426161 -12.5625 85.7890625 C-9.73726425 84.91909661 -8.34603431 83.93244013 -6.1875 81.9375 C-5.15689453 80.99970703 -5.15689453 80.99970703 -4.10546875 80.04296875 C-2.00245161 78.00237883 -0.00767725 75.88389664 2 73.75 C6.28685799 69.44642912 10.1489004 67.14433423 16.29296875 66.9140625 C25.43208752 67.49578195 30.64210495 73.36869258 36.41210938 79.84179688 C39.21655616 82.80796799 40.6396863 83.90708892 44.7265625 84.9609375 C48.02317794 85.30020614 48.02317794 85.30020614 50.4375 83.4375 C52.44467741 80.30630324 52.40994274 78.67581988 52 75 C50.31464108 72.41023005 50.31464108 72.41023005 47.9375 70.125 C47.12152344 69.27164063 46.30554688 68.41828125 45.46484375 67.5390625 C44.24474609 66.28222656 44.24474609 66.28222656 43 65 C41.65579257 63.50973688 40.32118529 62.01071083 39 60.5 C38.443125 59.8709375 37.88625 59.241875 37.3125 58.59375 C34.78649371 55.52645665 34.77985931 53.15825733 34.6875 49.25 C34.63142578 47.71085937 34.63142578 47.71085937 34.57421875 46.140625 C35.44541993 39.71451721 40.11703857 35.62158078 44.625 31.3125 C49.94521014 26.54081851 49.94521014 26.54081851 52.375 20.0625 C52.21886207 16.95394463 52.21886207 16.95394463 50.4375 14.5625 C48.03088466 12.71458037 48.03088466 12.71458037 44.78125 12.97265625 C39.6913191 14.35556103 37.48866767 17.01333521 34.0625 20.875 C28.88159686 26.6837136 24.58677217 30.52727312 16.4609375 31.21484375 C15.77257812 31.12332031 15.08421875 31.03179687 14.375 30.9375 C13.33472656 30.82728516 13.33472656 30.82728516 12.2734375 30.71484375 C6.26250199 28.82480733 2.09621 24.31212867 -2.125 19.875 C-6.45802179 15.09754003 -6.45802179 15.09754003 -12 12 C-15.09556503 11.74129033 -15.09556503 11.74129033 -17.6875 13.625 Z " fill="#000000" transform="translate(351,167)"/>
<path d="M0 0 C5.6196056 3.14295615 9.73790134 8.95198528 11.74609375 14.9765625 C11.91698294 16.86754944 12.01241642 18.76593121 12.05859375 20.6640625 C12.11466797 22.15486328 12.11466797 22.15486328 12.171875 23.67578125 C11.18498005 31.32648066 6.68523598 36.6297452 1.36035156 41.89575195 C0.72888214 42.53583694 0.09741272 43.17592194 -0.55319214 43.83540344 C-2.62569708 45.93045373 -4.71243685 48.01059062 -6.80078125 50.08984375 C-8.25614724 51.55044962 -9.71099342 53.01157361 -11.16534424 54.47319031 C-14.2084343 57.52666301 -17.25885417 60.57257216 -20.31445312 63.61352539 C-24.22132353 67.50319522 -28.1074571 71.41286578 -31.98810959 75.32867146 C-34.98534714 78.34790832 -37.99423301 81.35532134 -41.00662994 84.3594265 C-42.44409345 85.79607222 -43.87773952 87.23654848 -45.30739594 88.68096352 C-47.30997177 90.70103432 -49.32795499 92.70438198 -51.35058594 94.7043457 C-52.22373947 95.59503754 -52.22373947 95.59503754 -53.11453247 96.50372314 C-58.1915662 101.46614713 -63.89819333 104.40159547 -71.19140625 104.4140625 C-71.94292969 104.43339844 -72.69445312 104.45273437 -73.46875 104.47265625 C-82.16208502 102.92419405 -87.86944579 98.09925965 -93.90234375 91.95703125 C-94.68155182 91.18023514 -95.46075989 90.40343903 -96.26358032 89.60310364 C-97.89810323 87.96760637 -99.52647492 86.32594053 -101.14892578 84.6784668 C-103.62684634 82.166151 -106.12797497 79.6788081 -108.6328125 77.19335938 C-110.22409438 75.59518064 -111.81398697 73.99561714 -113.40234375 72.39453125 C-114.14608246 71.65575241 -114.88982117 70.91697357 -115.65609741 70.1558075 C-121.27386177 64.40938299 -124.68011166 59.43696751 -124.69140625 51.1015625 C-124.49259091 44.47438453 -123.12675233 39.14213934 -118.60546875 34.16015625 C-113.48404403 29.51956398 -108.9135337 27.68506103 -101.94140625 27.6015625 C-100.87277344 27.57320312 -99.80414063 27.54484375 -98.703125 27.515625 C-90.18103059 28.65447793 -84.99254825 33.69129089 -79.25390625 39.7265625 C-78.57457031 40.42394531 -77.89523438 41.12132812 -77.1953125 41.83984375 C-75.53858303 43.54324165 -73.89200772 45.25527619 -72.25390625 46.9765625 C-68.79627843 45.49472635 -66.61009368 43.55058567 -63.99536133 40.86572266 C-62.74804985 39.5939769 -62.74804985 39.5939769 -61.47554016 38.29653931 C-60.58384628 37.37883759 -59.6921524 36.46113586 -58.7734375 35.515625 C-57.83745697 34.56319623 -56.90065004 33.61157896 -55.96305847 32.66073608 C-51.99198857 28.63183182 -48.03060314 24.59361704 -44.0847168 20.54003906 C-41.66603475 18.05645196 -39.23492622 15.5855978 -36.79587364 13.12202072 C-35.43018902 11.7353641 -34.07840705 10.33505849 -32.727005 8.93447876 C-23.34889086 -0.51926489 -13.02981352 -5.61042272 0 0 Z M-16.9543457 16.86401367 C-17.64348053 17.50688324 -18.33261536 18.14975281 -19.04263306 18.81210327 C-19.77235321 19.52637482 -20.50207336 20.24064636 -21.25390625 20.9765625 C-22.01013275 21.71653473 -22.76635925 22.45650696 -23.54550171 23.21890259 C-26.06462204 25.72048016 -28.55765235 28.24602629 -31.046875 30.77734375 C-32.43572482 32.1792256 -33.8245836 33.5810987 -35.21397114 34.98244762 C-38.60573172 38.40453474 -41.99230167 41.83169761 -45.37182617 45.26586914 C-47.28153986 47.20597356 -49.19520427 49.14201559 -51.11335754 51.07377625 C-52.91147296 52.8850206 -54.70362496 54.70220938 -56.48905945 56.5259552 C-57.71106804 57.75314522 -57.71106804 57.75314522 -58.95776367 59.00512695 C-59.66865646 59.72569778 -60.37954926 60.44626862 -61.11198425 61.18867493 C-64.51822194 64.03190173 -68.0013221 65.38898233 -72.44140625 65.1640625 C-80.14579234 64.05615905 -85.05029094 57.32366933 -90.12109375 51.93359375 C-90.6020752 51.43134277 -91.08305664 50.9290918 -91.57861328 50.41162109 C-92.9412478 48.97989788 -94.27797422 47.52364999 -95.61328125 46.06640625 C-98.11561048 43.71662906 -98.11561048 43.71662906 -101.4296875 43.5703125 C-104.33118763 43.78863088 -104.33118763 43.78863088 -106.69140625 45.5390625 C-108.53549366 47.93944035 -108.53549366 47.93944035 -108.27978516 51.15087891 C-106.88583761 56.34915545 -104.17799201 58.91750566 -100.40234375 62.625 C-99.71008698 63.32299713 -99.0178302 64.02099426 -98.30459595 64.74014282 C-96.84080365 66.20800778 -95.3694478 67.66836406 -93.89111328 69.12158203 C-91.63615008 71.34442187 -89.41497645 73.59744145 -87.1953125 75.85546875 C-85.76624269 77.28057354 -84.33531266 78.70381588 -82.90234375 80.125 C-82.24164886 80.79784027 -81.58095398 81.47068054 -80.90023804 82.16390991 C-80.26333038 82.7819046 -79.62642273 83.39989929 -78.97021484 84.03662109 C-78.42029877 84.58176361 -77.87038269 85.12690613 -77.30380249 85.68856812 C-74.1639339 87.66141583 -71.96248223 88.01469676 -68.25390625 87.9765625 C-65.63444916 86.15973329 -63.76502691 84.56465638 -61.58422852 82.31030273 C-60.95897781 81.695858 -60.33372711 81.08141327 -59.68952942 80.448349 C-57.62947364 78.41329467 -55.5998317 76.35063173 -53.5703125 74.28515625 C-52.14673557 72.86188924 -50.72182468 71.43995532 -49.29563904 70.01930237 C-46.31156139 67.03799386 -43.34191628 64.04321388 -40.38208008 61.0378418 C-36.58686 57.18585061 -32.76131576 53.36578054 -28.92491245 49.55485439 C-25.9788271 46.62267798 -23.04766461 43.67594796 -20.12098503 40.72441292 C-18.71569866 39.31009292 -17.30620814 37.89993747 -15.89248848 36.49404716 C-13.91914343 34.5265224 -11.966302 32.54069583 -10.01782227 30.54858398 C-9.43037231 29.97013733 -8.84292236 29.39169067 -8.2376709 28.79571533 C-5.64830722 26.10927673 -4.32241524 24.45646662 -3.78819275 20.71424866 C-4.06726116 17.87515663 -4.06726116 17.87515663 -5.94140625 15.6015625 C-10.1601979 12.6370062 -13.35183828 13.47226391 -16.9543457 16.86401367 Z " fill="#000000" transform="translate(203.25390625,165.0234375)"/>
<path d="M0 0 C1.04754456 -0.00700928 2.09508911 -0.01401855 3.17437744 -0.02124023 C6.63995811 -0.03885743 10.1047234 -0.02718366 13.5703125 -0.01367188 C15.97640134 -0.0163657 18.38248911 -0.02024721 20.78857422 -0.02526855 C25.83246215 -0.03116868 30.87606684 -0.02258372 35.91992188 -0.00390625 C42.39007106 0.01888313 48.85955657 0.00576287 55.3296814 -0.01819611 C60.29847223 -0.03263992 65.26710533 -0.0280545 70.23590088 -0.01768494 C72.62176593 -0.01501375 75.00764524 -0.0183011 77.39349365 -0.02760315 C80.72625747 -0.03774497 84.05794173 -0.02229948 87.390625 0 C88.87444672 -0.01214539 88.87444672 -0.01214539 90.38824463 -0.02453613 C97.04598253 0.05812651 97.04598253 0.05812651 100.30810547 2.36633301 C102.22830169 5.34412411 102.26382716 7.03542582 101.6953125 10.51757812 C100.30810547 13.16954041 100.30810547 13.16954041 97.6953125 15.51757812 C94.26937302 16.27597042 90.88730527 16.19001129 87.390625 16.14868164 C86.34308044 16.15583694 85.29553589 16.16299225 84.21624756 16.17036438 C80.75049347 16.18728534 77.28602665 16.16782763 73.8203125 16.14648438 C71.41422417 16.14731275 69.00813589 16.14977095 66.60205078 16.15379333 C61.55809506 16.15665368 56.51458281 16.14192621 51.47070312 16.11450195 C45.00053153 16.0804195 38.53115315 16.08643554 32.0609436 16.10516453 C27.09213636 16.11572567 22.12351415 16.10680461 17.15472412 16.09177971 C14.76886545 16.08659097 12.38298751 16.08708804 9.99713135 16.09332466 C6.66433053 16.09876592 3.33267086 16.07843507 0 16.05102539 C-0.98921448 16.05755127 -1.97842896 16.06407715 -2.99761963 16.07080078 C-9.64212045 15.9777324 -9.64212045 15.9777324 -12.91748047 13.70298767 C-14.96832284 10.47208529 -14.83908953 8.25839233 -14.3046875 4.51757812 C-10.8664331 -0.90151503 -5.77403523 -0.04726167 0 0 Z " fill="#000000" transform="translate(323.3046875,293.482421875)"/>
<path d="M0 0 C1.04754456 -0.00700928 2.09508911 -0.01401855 3.17437744 -0.02124023 C6.63995811 -0.03885743 10.1047234 -0.02718366 13.5703125 -0.01367188 C15.97640134 -0.0163657 18.38248911 -0.02024721 20.78857422 -0.02526855 C25.83246215 -0.03116868 30.87606684 -0.02258372 35.91992188 -0.00390625 C42.39007106 0.01888313 48.85955657 0.00576287 55.3296814 -0.01819611 C60.29847223 -0.03263992 65.26710533 -0.0280545 70.23590088 -0.01768494 C72.62176593 -0.01501375 75.00764524 -0.0183011 77.39349365 -0.02760315 C80.72625747 -0.03774497 84.05794173 -0.02229948 87.390625 0 C88.87444672 -0.01214539 88.87444672 -0.01214539 90.38824463 -0.02453613 C97.04598253 0.05812651 97.04598253 0.05812651 100.30810547 2.36633301 C102.22830169 5.34412411 102.26382716 7.03542582 101.6953125 10.51757812 C100.30810547 13.16954041 100.30810547 13.16954041 97.6953125 15.51757812 C94.26937302 16.27597042 90.88730527 16.19001129 87.390625 16.14868164 C86.34308044 16.15583694 85.29553589 16.16299225 84.21624756 16.17036438 C80.75049347 16.18728534 77.28602665 16.16782763 73.8203125 16.14648438 C71.41422417 16.14731275 69.00813589 16.14977095 66.60205078 16.15379333 C61.55809506 16.15665368 56.51458281 16.14192621 51.47070312 16.11450195 C45.00053153 16.0804195 38.53115315 16.08643554 32.0609436 16.10516453 C27.09213636 16.11572567 22.12351415 16.10680461 17.15472412 16.09177971 C14.76886545 16.08659097 12.38298751 16.08708804 9.99713135 16.09332466 C6.66433053 16.09876592 3.33267086 16.07843507 0 16.05102539 C-0.98921448 16.05755127 -1.97842896 16.06407715 -2.99761963 16.07080078 C-9.64212045 15.9777324 -9.64212045 15.9777324 -12.91748047 13.70298767 C-14.96832284 10.47208529 -14.83908953 8.25839233 -14.3046875 4.51757812 C-10.8664331 -0.90151503 -5.77403523 -0.04726167 0 0 Z " fill="#000000" transform="translate(103.3046875,293.482421875)"/>
<path d="M0 0 C0.65740173 -0.00700928 1.31480347 -0.01401855 1.99212646 -0.02124023 C4.15924667 -0.03880619 6.32505466 -0.02720423 8.4921875 -0.01367188 C10.00146739 -0.01636724 11.51074558 -0.02025003 13.02001953 -0.02526855 C16.18083249 -0.03116164 19.34119284 -0.02260738 22.50195312 -0.00390625 C26.55087307 0.01888393 30.59873248 0.00575973 34.64761353 -0.01819611 C37.76350883 -0.03265965 40.87915324 -0.02804571 43.99505615 -0.01768494 C45.4877739 -0.01501915 46.98051454 -0.01828225 48.47320557 -0.02760315 C50.56087454 -0.03777883 52.64683324 -0.02225756 54.734375 0 C56.51497314 0.00477356 56.51497314 0.00477356 58.33154297 0.00964355 C61.98208258 0.6204645 63.16708706 1.59003584 65.3671875 4.51757812 C66.00298015 8.25285997 65.72767546 9.92624953 63.75048828 13.16954041 C60.63466406 16.23926323 59.05854633 16.14517819 54.734375 16.14868164 C54.07697327 16.15583694 53.41957153 16.16299225 52.74224854 16.17036438 C50.57484888 16.18723745 48.40952208 16.16786133 46.2421875 16.14648438 C44.73290842 16.14731322 43.22362942 16.14977321 41.71435547 16.15379333 C38.55343406 16.15665033 35.39322163 16.14196115 32.23242188 16.11450195 C28.18346611 16.08041812 24.13577792 16.08643762 20.08676147 16.10516453 C16.97084006 16.11574015 13.85521291 16.10679184 10.73931885 16.09177971 C9.24661127 16.08660148 7.75387291 16.08707537 6.26116943 16.09332466 C4.17344237 16.09878418 2.08752116 16.07838337 0 16.05102539 C-1.78059814 16.04172752 -1.78059814 16.04172752 -3.59716797 16.03224182 C-7.2549758 15.41209645 -8.44695057 14.47236618 -10.6328125 11.51757812 C-11.18467751 7.65452306 -11.37453958 5.52067943 -9.01611328 2.33117676 C-5.86397372 -0.0674781 -3.93949714 0.0105613 0 0 Z " fill="#000000" transform="translate(339.6328125,323.482421875)"/>
<path d="M0 0 C0.65740173 -0.00700928 1.31480347 -0.01401855 1.99212646 -0.02124023 C4.15924667 -0.03880619 6.32505466 -0.02720423 8.4921875 -0.01367188 C10.00146739 -0.01636724 11.51074558 -0.02025003 13.02001953 -0.02526855 C16.18083249 -0.03116164 19.34119284 -0.02260738 22.50195312 -0.00390625 C26.55087307 0.01888393 30.59873248 0.00575973 34.64761353 -0.01819611 C37.76350883 -0.03265965 40.87915324 -0.02804571 43.99505615 -0.01768494 C45.4877739 -0.01501915 46.98051454 -0.01828225 48.47320557 -0.02760315 C50.56087454 -0.03777883 52.64683324 -0.02225756 54.734375 0 C56.51497314 0.00477356 56.51497314 0.00477356 58.33154297 0.00964355 C61.98208258 0.6204645 63.16708706 1.59003584 65.3671875 4.51757812 C66.00298015 8.25285997 65.72767546 9.92624953 63.75048828 13.16954041 C60.63466406 16.23926323 59.05854633 16.14517819 54.734375 16.14868164 C54.07697327 16.15583694 53.41957153 16.16299225 52.74224854 16.17036438 C50.57484888 16.18723745 48.40952208 16.16786133 46.2421875 16.14648438 C44.73290842 16.14731322 43.22362942 16.14977321 41.71435547 16.15379333 C38.55343406 16.15665033 35.39322163 16.14196115 32.23242188 16.11450195 C28.18346611 16.08041812 24.13577792 16.08643762 20.08676147 16.10516453 C16.97084006 16.11574015 13.85521291 16.10679184 10.73931885 16.09177971 C9.24661127 16.08660148 7.75387291 16.08707537 6.26116943 16.09332466 C4.17344237 16.09878418 2.08752116 16.07838337 0 16.05102539 C-1.78059814 16.04172752 -1.78059814 16.04172752 -3.59716797 16.03224182 C-7.2549758 15.41209645 -8.44695057 14.47236618 -10.6328125 11.51757812 C-11.18467751 7.65452306 -11.37453958 5.52067943 -9.01611328 2.33117676 C-5.86397372 -0.0674781 -3.93949714 0.0105613 0 0 Z " fill="#000000" transform="translate(119.6328125,323.482421875)"/>
</svg>
