<svg width="31" height="31" viewBox="0 0 31 31" fill="none" xmlns="http://www.w3.org/2000/svg">
<path d="M10.2344 2.99784C11.2233 2.99784 12.19 3.31203 13.0122 3.90068C13.8345 4.48933 14.4753 5.326 14.8538 6.30489C15.2322 7.28378 15.3312 8.36092 15.1383 9.40011C14.9454 10.4393 14.4692 11.3938 13.7699 12.1431C13.0706 12.8923 12.1797 13.4025 11.2098 13.6092C10.2399 13.8159 9.23459 13.7098 8.32096 13.3043C7.40733 12.8989 6.62643 12.2122 6.07703 11.3312C5.52762 10.4503 5.23438 9.41452 5.23438 8.35498C5.23438 6.93418 5.76116 5.57157 6.69884 4.56691C7.63652 3.56225 8.90829 2.99784 10.2344 2.99784ZM10.2344 0.85498C8.84991 0.85498 7.49653 1.29485 6.34538 2.11896C5.19424 2.94307 4.29703 4.11441 3.76722 5.48485C3.2374 6.8553 3.09878 8.3633 3.36888 9.81816C3.63897 11.273 4.30566 12.6094 5.28463 13.6583C6.2636 14.7072 7.51088 15.4215 8.86874 15.7109C10.2266 16.0003 11.6341 15.8517 12.9132 15.2841C14.1922 14.7164 15.2855 13.7551 16.0547 12.5218C16.8238 11.2884 17.2344 9.83834 17.2344 8.35498C17.2344 6.36586 16.4969 4.4582 15.1841 3.05168C13.8714 1.64516 12.0909 0.85498 10.2344 0.85498ZM20.2344 30.855H18.2344V25.4978C18.2344 24.077 17.7076 22.7144 16.7699 21.7098C15.8322 20.7051 14.5605 20.1407 13.2344 20.1407H7.23438C5.90829 20.1407 4.63652 20.7051 3.69884 21.7098C2.76116 22.7144 2.23438 24.077 2.23438 25.4978V30.855H0.234375V25.4978C0.234375 23.5087 0.971873 21.6011 2.28463 20.1945C3.59738 18.788 5.37786 17.9978 7.23438 17.9978H13.2344C15.0909 17.9978 16.8714 18.788 18.1841 20.1945C19.4969 21.6011 20.2344 23.5087 20.2344 25.4978V30.855ZM20.2344 2.99784H30.2344V5.14069H20.2344V2.99784ZM20.2344 8.35498H30.2344V10.4978H20.2344V8.35498ZM20.2344 13.7121H27.2344V15.855H20.2344V13.7121Z" fill="#101010"/>
</svg>
